<svg xmlns="http://www.w3.org/2000/svg" xmlns:xlink="http://www.w3.org/1999/xlink" fill="none" version="1.1" width="240" height="240" viewBox="0 0 240 240"><defs><clipPath id="master_svg0_2641_4407"><rect x="0" y="0" width="240" height="240" rx="0"/></clipPath><filter id="master_svg1_2641_4409" filterUnits="objectBoundingBox" color-interpolation-filters="sRGB" x="0" y="0" width="240" height="240"><feFlood flood-opacity="0" result="BackgroundImageFix"/><feBlend mode="normal" in="SourceGraphic" in2="BackgroundImageFix" result="shape"/><feGaussianBlur in="BackgroundImage" stdDeviation="6"/><feComposite in2="SourceAlpha" operator="in" result="effect1_foregroundBlur"/><feBlend mode="normal" in="SourceGraphic" in2="effect1_foregroundBlur" result="shape"/></filter></defs><g clip-path="url(#master_svg0_2641_4407)"><g filter="url(#master_svg1_2641_4409)"><rect x="0" y="0" width="240" height="240" rx="20" fill="#D6D6D6" fill-opacity="1"/></g><g><path d="M71.35,199.652Q68.0933,197.368,67.81,194.314Q67.834,193.081,66.6515,192.731Q61.43863,190.603,58.16183,188.031Q52.9771699,183.869,53.00967958,177.718L53.0556585,105.5798L53.0796971,80.5496L53.000490409,55.0674Q52.9483848,48.6589,57.88127,44.9702Q60.94628,42.6669,64.4012,41.00947Q72.499,37.1477,85.70570000000001,34.77367Q98.9471,32.448421,112.3896,32.143965Q112.715,32.134601,113.3249,32.0483923Q113.5583,32.0154076,113.6858,31.9999049597L123.8035,31.9999049597Q123.9429,32.0156052,124.2021,32.0496033Q124.8515,32.134752,125.1801,32.14389Q139.1483,32.459619,152.89249999999998,34.95757Q163.982,37.02408,171.64100000000002,40.29583Q177.94,42.9658,181.306,46.4169Q184.558,49.7752,184.554,53.985600000000005L184.542,60.721599999999995L184.523,67.3899Q184.523,67.63159999999999,184.556,68.0906Q184.568,68.2622,184.573,68.34700000000001L184.606,68.89609999999999L185.155,68.89609999999999Q185.794,68.89609999999999,187.04,68.8835Q189.424,68.8596,190.586,68.89580000000001Q196.085,69.1063,200.265,71.5766Q206.885,75.47399999999999,210.394,83.96600000000001Q213.794,92.2021,213.957,103.4278Q213.999,106.422,213.986,112.4221Q213.976,116.8051,213.991,118.9916Q214.092,125.1405,213.1,131.2033Q211.503,140.39100000000002,207.441,146.388Q200.444,156.72,188.913,156.273Q188.089,156.24,186.423,156.261Q185.553,156.273,185.103,156.273L184.52,156.273L184.52,178.249Q184.537,179.543,184.314,180.811Q183.638,184.365,180.10500000000002,187.406Q176.64600000000002,190.377,171.036,192.634Q169.94299999999998,193.083,169.689,194.326Q169.26600000000002,196.398,168.525,197.291Q167.012,199.122,164.99099999999999,200.364Q162.297,201.99,158.702,203.152Q156.155,203.975,151.9499,204.894Q139.675,207.545,122.9113,207.949Q111.92349999999999,208.206,100.9812,207.172Q89.6327,206.125,81.3707,203.864Q74.828,202.073,71.35,199.652ZM118.7369,38.31225L118.7419,38.31216Q132.3611,38.07475,145.8444,40.01815Q160.224,42.1139,169.077,45.9229Q170.803,46.6656,174.023,48.6071Q175.026,49.212,175.52800000000002,49.5051L175.54399999999998,49.514700000000005L175.56,49.5253Q176.495,50.156800000000004,177.19799999999998,51.0394Q179.522,53.684799999999996,177.11599999999999,56.1432Q175.579,57.6977,173.736,58.8697Q171.988,59.984,171.316,60.340199999999996Q170.277,60.8913,169.441,61.0111Q168.607,61.1305,167.462,60.8938Q166.744,60.7453,164.757,60.169799999999995L164.74,60.165Q151.9324,56.4332,138.68380000000002,54.897999999999996Q130.3854,53.968599999999995,122.035,54.0946Q120.1718,54.1194,116.4483,54.1164Q112.3426,54.113,110.2913,54.146699999999996Q98.7471,54.3078,87.4533,56.702Q83.4565,57.5593,75.5247,59.6008Q71.6142,60.607299999999995,69.6497,61.0924Q68.646,61.335300000000004,68.0891,61.0398Q65.8317,59.8307,61.991749999999996,57.6062L61.974959999999996,57.5964L61.95886,57.5856Q61.44248,57.2387,61.01728,56.7846Q59.20305,55.0496,59.20823,53.5339Q59.21347,52.003699999999995,61.06967,50.2832Q63.6088,47.9324,68.4014,45.9151Q76.0335,42.6975,87.531,40.68309Q99.1605,38.70121,110.94839999999999,38.32798Q112.7404,38.26216,116.3134,38.29662Q117.9285,38.3122,118.7369,38.31225ZM155.829,65.0212L155.761,65.41929999999999L155.365,65.4952Q118.7565,72.5099,82.1525,65.47059999999999L81.7214,65.3877L81.6075,64.12010000000001L82.1206,64.01740000000001Q83.1397,63.8133,85.1763,63.387Q89.26429999999999,62.5313,91.3284,62.1739Q103.5784,60.022,116.015,60.2107Q117.722,60.2397,121.1412,60.2198Q124.5726,60.199799999999996,126.2917,60.2291Q139.8191,60.4751,154.86599999999999,63.9268Q155.01999999999998,63.963499999999996,155.29399999999998,64.0566Q155.414,64.0976,155.471,64.11529999999999L155.959,64.2676L155.829,65.0212ZM59.15383,66.2992L59.15383,63.5272L59.98998,63.9323Q60.70789,64.28020000000001,62.0964,64.9731Q64.8921,66.3683,66.3071,66.9836Q72.8104,69.7799,79.7617,71.11670000000001Q83.7885,71.89699999999999,91.904,73.1906Q94.6789,73.6329,96.0673,73.8598Q97.3258,74.06450000000001,97.3258,75.1885L97.3074,97.4392L97.30590000000001,97.4601Q97.2877,97.7113,97.23740000000001,97.9581L97.14699999999999,98.4019L96.6956,98.4245Q96.5984,98.4294,96.3988,98.4427Q95.9709,98.4713,95.7471,98.4713L85.9836,98.4713Q84.3445,98.4733,83.443,99.3534Q82.5415,100.2336,82.5415,101.8422L82.5415,138.166Q82.5455,139.78300000000002,83.443,140.66Q84.3404,141.536,85.9829,141.536L114.7547,141.536Q116.3801,141.536,117.277,140.654Q118.1777,139.769,118.1777,138.149L118.1777,101.8253Q118.1737,100.2155,117.2727,99.3438Q116.3709,98.4713,114.7209,98.4713L103.47,98.4713L103.47,74.5673L108.4132,74.8197Q118.8266,75.41579999999999,129.2348,74.7954Q138.0215,74.22749999999999,143.99439999999998,73.5249Q158.906,71.75909999999999,169.90699999999998,67.5307Q171.69400000000002,66.8404,175.20600000000002,65.1305Q176.75400000000002,64.3772,177.547,64.0058L178.376,63.6174L178.376,161.091Q178.376,162.635,178.37,165.731Q178.35399999999998,174.051,178.40300000000002,178.197Q178.478,180.568,176.731,182.169Q174.346,184.489,169.787,186.503Q162.784,189.591,152.5586,191.519Q132.9956,195.206,109.7786,194.26Q94.3725,193.637,81.6955,190.834Q71.7625,188.639,65.8063,185.545L65.7999,185.542L65.7937,185.538Q63.3297,184.181,61.136430000000004,182.418Q59.12625,180.873,59.12625,177.954L59.15383,66.2992ZM184.548,112.5933L184.526,78.8917Q184.426,77.243,185.84,76.3923Q188.265,74.73910000000001,192.022,75.19720000000001Q199.054,76.0403,203.2,83.1533Q206.386,88.6206,207.202,95.7226Q207.814,101.1203,207.88,106.5511Q208.006,117.0221,207.726,124.1349Q207.314,134.614,203.019,141.937Q199.358,148.178,193.587,149.702Q188.976,150.91500000000002,185.601,148.55700000000002Q184.443,147.836,184.532,146.475L184.548,112.5933ZM111.9385,135.324L88.7347,135.324L88.7347,104.7008L111.9385,104.7008L111.9385,135.324Z" fill-rule="evenodd" fill="#0D0D0D" fill-opacity="1" style="mix-blend-mode:passthrough"/></g></g></svg>