<svg xmlns="http://www.w3.org/2000/svg" xmlns:xlink="http://www.w3.org/1999/xlink" fill="none" version="1.1" width="240" height="240" viewBox="0 0 240 240"><defs><clipPath id="master_svg0_2967_11304"><rect x="0" y="0" width="240" height="240" rx="0"/></clipPath><filter id="master_svg1_2967_11306" filterUnits="objectBoundingBox" color-interpolation-filters="sRGB" x="0" y="0" width="1" height="1"><feFlood flood-opacity="0" result="BackgroundImageFix"/><feBlend mode="normal" in="SourceGraphic" in2="BackgroundImageFix" result="shape"/><feGaussianBlur in="BackgroundImageFix" stdDeviation="6"/><feComposite in2="SourceAlpha" operator="in" result="effect1_foregroundBlur"/><feBlend mode="normal" in="SourceGraphic" in2="effect1_foregroundBlur" result="shape"/></filter><mask id="master_svg2_2967_12016" style="mask-type:alpha" maskUnits="objectBoundingBox"><g><rect x="38" y="38" width="164" height="164" rx="0" fill="#FFFFFF" fill-opacity="1"/></g></mask></defs><g clip-path="url(#master_svg0_2967_11304)"><g filter="url(#master_svg1_2967_11306)"><rect x="0" y="0" width="240" height="240" rx="20" fill="#D6D6D6" fill-opacity="1"/></g><g mask="url(#master_svg2_2967_12016)"><g><g><path d="" fill="#EFEFEF" fill-opacity="1" style="mix-blend-mode:passthrough"/><path d="M188.687,134.8355Q184.966,140.65949999999998,180.982,146.039L185.803,149.61Q189.911,144.064,193.743,138.0658Q206.045,118.9815,195.632,102.3862Q174.817,69.2543,142.0396,47.82594Q130.5433,40.17776,121.4121,40.00056L121.3269,39.99891L121.2418,40.0021Q112.8921,40.31452,105.7629,44.6561Q88.55340000000001,54.1937,74.764,68.2139Q53.45418,88.8677,44.223085,107.3879Q37.33125,120.1263,44.221217,132.8647Q47.18613,138.85250000000002,50.92857,144.39Q65.01599999999999,164.40300000000002,83.7277,180.109Q94.48519999999999,189.509,107.12530000000001,196.302Q113.6336,200.132,121.1932,200.132Q128.78449999999998,200.132,135.3157,196.27Q143.01229999999998,191.904,150.192,186.724L146.68099999999998,181.858Q139.76690000000002,186.847,132.2619,191.105Q121.1932,197.65,110.1245,191.105L110.0712,191.074L110.0166,191.045Q97.9442,184.564,87.5852,175.513Q69.4723,160.31,55.899699999999996,141.0303Q52.36877,135.8057,49.57456,130.15460000000002L49.5491,130.10309999999998L49.52167,130.05259999999998Q44.132063,120.128,49.52167,110.2035L49.54724,110.1564L49.57111,110.1085Q58.346199999999996,92.47630000000001,78.9653,72.4976L78.9915,72.4722L79.0171,72.4462Q92.2279,59.0072,108.7248,49.87445L108.7817,49.84296L108.8372,49.80904Q114.6143,46.27547,121.3796,46.00127Q128.73430000000002,46.18075,138.75639999999999,52.84795Q170.435,73.5579,190.549,105.5753Q198.934,118.9381,188.687,134.8355Z" fill-rule="evenodd" fill="#0D0D0D" fill-opacity="1"/></g><g><path d="M76.75144592651367,115.05592891845703Q75.45753592651367,111.64482891845702,76.39913592651367,108.11242891845703Q77.34159592651368,104.57682891845704,80.16703592651368,102.25802891845703Q100.56060592651367,84.09580891845704,126.57780592651366,75.72300891845703L126.71740592651366,75.67805891845703L126.86080592651368,75.64694891845703Q128.73010592651366,75.24146891845703,130.64200592651366,75.18083891845703L130.68730592651366,75.17940891845703L130.7327059265137,75.17933891845703Q135.57500592651365,75.17224891845703,138.65700592651368,78.85391591845703Q146.36680592651368,86.25887891845703,155.62660592651366,102.64512891845703Q161.75690592651367,113.11652891845702,165.4073059265137,124.68292891845704Q166.7438059265137,128.33702891845704,165.74340592651367,132.10442891845702Q164.74510592651367,135.86422891845703,161.7807059265137,138.37512891845702Q151.2148059265137,148.31332891845705,130.51670592651368,158.73002891845704Q123.47530592651367,162.38032891845702,115.82880592651367,164.49162891845702Q108.32750592651368,166.97402891845704,103.18230592651366,161.00742891845704Q85.19458592651367,140.76362891845702,76.75144592651367,115.05592891845703ZM107.66750592651367,157.02212891845704Q90.48320592651368,137.68242891845705,82.42989592651367,113.11672891845703L82.40538592651367,113.04192891845703L82.37697592651367,112.96852891845703Q80.96946592651368,109.33142891845704,84.00354592651367,106.87152891845703L84.05809592651367,106.82732891845703L84.11051592651367,106.78052891845704Q103.51800592651367,89.47952891845704,128.27060592651367,81.48134891845703Q129.51410592651368,81.22376891845703,130.78380592651368,81.17943891845704Q132.83240592651367,81.19273891845702,134.12390592651366,82.78734891845703L134.24600592651367,82.93817891845703L134.38660592651368,83.07200891845703Q141.50260592651367,89.84672891845703,150.44870592651367,105.67652891845702Q156.25560592651368,115.59542891845703,159.70630592651366,126.55452891845704L159.72950592651367,126.62832891845703L159.75660592651366,126.70092891845704Q161.33310592651367,130.93232891845702,157.86210592651366,133.83092891845703L157.79250592651368,133.88902891845703L157.72660592651368,133.95112891845702Q147.79670592651365,143.316628918457,127.75520592651367,153.40332891845702Q121.23900592651367,156.78142891845704,114.15970592651368,158.72792891845702L114.07820592651368,158.75032891845703L113.99810592651367,158.777228918457Q110.26520592651367,160.03372891845703,107.66750592651367,157.02212891845704Z" fill-rule="evenodd" fill="#0D0D0D" fill-opacity="1"/></g><g><g><path d="M147.03361549316406,196.65351551208497L144.21579914316408,159.60023551208496C144.11233649316407,158.20477551208495,145.16087249316405,156.98975051208495,146.55761549316406,156.88638245208497C146.61995549316407,156.88176901208496,146.68228549316407,156.87941551208496,146.74479549316408,156.87941551208496L197.46415549316407,156.87941551208496C198.86465549316407,156.87941551208496,200.00005549316407,158.01376551208497,200.00005549316407,159.41305551208495C200.00005549316407,159.47551551208497,199.99775549316405,159.53795551208495,199.99315549316407,159.60023551208496L197.17545549316407,196.65351551208497C197.07735549316408,197.97661551208495,195.97435549316407,199.00001551208496,194.64645549316407,199.00001551208496L149.56264549316407,199.00001551208496C148.23475549316407,199.00001551208496,147.13170549316408,197.97661551208495,147.03361549316406,196.65351551208497ZM149.47560549316407,161.94670551208497L151.91771549316405,193.93271551208497L192.29135549316408,193.93271551208497L194.73335549316405,161.94670551208497L149.47560549316407,161.94670551208497Z" fill-rule="evenodd" fill="#0D0D0D" fill-opacity="1" style="mix-blend-mode:passthrough"/></g><g><path d="M174.75168076782228,159.40173302001952L174.75168076782228,154.49633302001953L169.45948076782227,154.49633302001953L169.45938076782227,159.40173302001952L165.43459076782227,159.40173302001952L165.43470076782228,150.47527302001953L178.77638076782227,150.47527302001953L178.77648076782228,159.40173302001952L174.75168076782228,159.40173302001952ZM182.64988076782225,159.40173302001952L186.67468076782228,159.40173302001952L186.67468076782228,149.06956302001953Q186.67468076782228,146.60249302001952,184.92858076782227,144.85801302001954Q183.18248076782226,143.11353302001953,180.71318076782228,143.11353302001953L163.49787076782226,143.11353302001953Q161.02854076782228,143.11353302001953,159.28246076782227,144.85801302001954Q157.53638076782227,146.60249302001952,157.53638076782227,149.06956302001953L157.53638076782227,159.40173302001952L161.56116076782226,159.40173302001952L161.56116076782226,149.06956302001953C161.56116076782226,148.00092302001954,162.42825076782228,147.13461302001954,163.49787076782226,147.13461302001954L180.71318076782228,147.13461302001954C181.78278076782226,147.13461302001954,182.64988076782225,148.00092302001954,182.64988076782225,149.06956302001953L182.64988076782225,159.40173302001952Z" fill-rule="evenodd" fill="#0D0D0D" fill-opacity="1"/><path d="M181.72928076782227,148.05506302001953Q182.14988076782225,148.47531302001954,182.14988076782225,149.06956302001953L182.14988076782225,159.90173302001952L187.17468076782228,159.90173302001952L187.17468076782228,149.06956302001953Q187.17468076782228,146.39524302001954,185.28198076782226,144.50429302001953Q183.38948076782228,142.61353302001953,180.71318076782228,142.61353302001953L163.49788076782227,142.61353302001953Q160.82157076782227,142.61353302001953,158.92907076782225,144.50429302001953Q157.03638076782227,146.39525302001954,157.03638076782227,149.06956302001953L157.03638076782227,159.90173302001952L162.06116076782226,159.90173302001952L162.06116076782226,149.06956302001953Q162.06116076782226,148.47532302001954,162.48180076782228,148.05506302001953Q162.90263076782227,147.63461302001954,163.49788076782227,147.63461302001954L180.71318076782228,147.63461302001954Q181.30838076782226,147.63461302001954,181.72928076782227,148.05506302001953ZM183.14988076782225,158.90173302001952L183.14988076782225,149.06956302001953Q183.14988076782225,148.06083302001954,182.43598076782226,147.34763302001954Q181.72238076782227,146.63461302001954,180.71318076782228,146.63461302001954L163.49788076782227,146.63461302001954Q162.48869076782228,146.63461302001954,161.77502076782227,147.34763302001954Q161.06116076782226,148.06083302001954,161.06116076782226,149.06956302001953L161.06116076782226,158.90173302001952L158.03638076782227,158.90173302001952L158.03638076782227,149.06956302001953Q158.03638076782227,146.80973302001954,159.63585076782226,145.21172302001952Q161.23551076782226,143.61353302001953,163.49788076782227,143.61353302001953L180.71318076782228,143.61353302001953Q182.97548076782226,143.61353302001953,184.57518076782227,145.21172302001952Q186.17468076782228,146.80972302001953,186.17468076782228,149.06956302001953L186.17468076782228,158.90173302001952L183.14988076782225,158.90173302001952ZM174.25168076782228,159.90173302001952L179.27648076782228,159.90173302001952L179.27638076782227,149.97527302001953L164.93471076782225,149.97527302001953L164.93459076782227,159.90173302001952L169.95938076782227,159.90173302001952L169.95948076782227,154.99633302001953L174.25168076782228,154.99633302001953L174.25168076782228,159.90173302001952ZM178.27648076782228,158.90173302001952L175.25168076782228,158.90173302001952L175.25168076782228,153.99633302001953L168.95948076782227,153.99633302001953L168.95938076782227,158.90173302001952L165.93460076782227,158.90173302001952L165.93470076782228,150.97527302001953L178.27638076782227,150.97527302001953L178.27648076782228,158.90173302001952Z" fill-rule="evenodd" fill="#0D0D0D" fill-opacity="1"/></g><g><path d="M161.39206735565185,185.09054946899414L182.81894735565186,185.09054946899414C184.15024735565186,185.09054946899414,185.22944735565187,186.16878946899413,185.22944735565187,187.49885946899414C185.22944735565187,188.82893946899415,184.15024735565186,189.90716946899414,182.81894735565186,189.90716946899414L161.39206735565185,189.90716946899414C160.06077735565185,189.90716946899414,158.98154735565186,188.82893946899415,158.98154735565186,187.49885946899414C158.98154735565186,186.16878946899413,160.06077735565185,185.09054946899414,161.39206735565185,185.09054946899414Z" fill-rule="evenodd" fill="#0D0D0D" fill-opacity="1" style="mix-blend-mode:passthrough"/></g></g></g></g></g></svg>