<svg xmlns="http://www.w3.org/2000/svg" xmlns:xlink="http://www.w3.org/1999/xlink" fill="none" version="1.1" width="240" height="240" viewBox="0 0 240 240"><defs><clipPath id="master_svg0_2641_4405"><rect x="0" y="0" width="240" height="240" rx="0"/></clipPath><filter id="master_svg1_2647_4260" filterUnits="objectBoundingBox" color-interpolation-filters="sRGB" x="0" y="0" width="240" height="240"><feFlood flood-opacity="0" result="BackgroundImageFix"/><feBlend mode="normal" in="SourceGraphic" in2="BackgroundImageFix" result="shape"/><feGaussianBlur in="BackgroundImage" stdDeviation="6"/><feComposite in2="SourceAlpha" operator="in" result="effect1_foregroundBlur"/><feBlend mode="normal" in="SourceGraphic" in2="effect1_foregroundBlur" result="shape"/></filter></defs><g clip-path="url(#master_svg0_2641_4405)"><g filter="url(#master_svg1_2647_4260)"><rect x="0" y="0" width="240" height="240" rx="20" fill="#D6D6D6" fill-opacity="1"/></g><g><path d="M183.478,154.774L180.304,154.774L180.304,105.5118C180.304,91.8424,171.90300000000002,80.09190000000001,159.969,75.1191C164.606,71.65440000000001,167.60899999999998,66.1379,167.60899999999998,59.9355L167.60899999999998,40.9677C167.60899999999998,30.50703,159.06799999999998,22,148.565,22L91.4348,22C80.9323,22,72.3913,30.50703,72.3913,40.9677L72.3913,59.9355C72.3913,66.1379,75.3938,71.65440000000001,80.0309,75.1191C68.09700000000001,80.09190000000001,59.6957,91.8424,59.6957,105.5118L59.6957,154.774L56.52174,154.774C51.27209,154.774,47,159.029,47,164.258L47,176.903C47,182.132,51.27209,186.387,56.52174,186.387L73.4704,186.387L70.122,195.915C69.5221,197.635,69.2174,199.421,69.2174,201.232L69.2174,201.893C69.2174,210.773,76.46979999999999,218,85.3885,218C92.2505,218,98.3856,213.666,100.655,207.214L107.9709,186.387L132.0291,186.387L139.34820000000002,207.214C141.6175,213.666,147.75,218,154.612,218C163.53,218,170.78300000000002,210.773,170.78300000000002,201.893L170.78300000000002,201.232C170.78300000000002,199.421,170.478,197.635,169.878,195.912L166.53,186.387L183.478,186.387C188.728,186.387,193,182.132,193,176.903L193,164.258C193,159.029,188.728,154.774,183.478,154.774ZM173.957,105.5118L173.957,154.774L155.418,154.774L154.21800000000002,151.363C160.036,150.209,164.435,145.094,164.435,138.96800000000002L164.435,97.871C164.435,89.1553,157.316,82.06450000000001,148.565,82.06450000000001L136.73919999999998,82.06450000000001C137.8437,81.0972,138.8689,80.0444,139.7893,78.9032L147.24200000000002,78.9032C161.975,78.9032,173.957,90.8371,173.957,105.5118ZM139.0435,101.0322L139.0435,132.92700000000002C138.10399999999998,132.756,137.14870000000002,132.64499999999998,136.1711,132.64499999999998C127.2524,132.64499999999998,120,139.872,120,148.752C120,139.872,112.7476,132.64499999999998,103.8289,132.64499999999998C102.85130000000001,132.64499999999998,101.896,132.756,100.9565,132.92700000000002L100.9565,101.0322L94.6087,101.0322L94.6087,135.538C91.8728,137.43099999999998,89.71770000000001,140.15300000000002,88.5656,143.428L87.92439999999999,145.256C84.5823,145.078,81.913,142.341,81.913,138.96800000000002L81.913,97.871C81.913,92.6422,86.1851,88.3871,91.4348,88.3871L120,88.3871L148.565,88.3871C153.815,88.3871,158.087,92.6422,158.087,97.871L158.087,138.96800000000002C158.087,142.341,155.41500000000002,145.078,152.076,145.256L151.434,143.428C150.28199999999998,140.15300000000002,148.127,137.43099999999998,145.3945,135.538L145.3945,101.0322L139.0435,101.0322ZM120.9204,154.774L119.0796,154.774L119.0954,154.73C119.6953,153.01,120,151.224,120,149.413C120,151.224,120.3047,153.01,120.9046,154.733L120.9204,154.774ZM100.9565,63.0968C100.9565,52.6361,109.4975,44.129000000000005,120,44.129000000000005C130.5025,44.129000000000005,139.0435,52.6361,139.0435,63.0968C139.0435,73.5575,130.5025,82.06450000000001,120,82.06450000000001C109.4975,82.06450000000001,100.9565,73.5575,100.9565,63.0968ZM78.73910000000001,59.9355L78.73910000000001,40.9677C78.73910000000001,33.9939,84.4331,28.322580000000002,91.4348,28.322580000000002L148.565,28.322580000000002C155.567,28.322580000000002,161.261,33.9939,161.261,40.9677L161.261,59.9355C161.261,66.9093,155.567,72.5806,148.565,72.5806L147.24200000000002,72.5806L143.52190000000002,72.5806C144.7184,69.65010000000001,145.3913,66.45089999999999,145.3913,63.0968C145.3913,49.1523,134.0001,37.8064,120,37.8064C105.9999,37.8064,94.6087,49.1523,94.6087,63.0968C94.6087,66.45089999999999,95.2816,69.65010000000001,96.4781,72.5806L92.75829999999999,72.5806L91.4348,72.5806C84.4331,72.5806,78.73910000000001,66.9093,78.73910000000001,59.9355ZM66.0435,105.5118C66.0435,90.8371,78.025,78.9032,92.75829999999999,78.9032L100.2106,78.9032C101.1311,80.0444,102.1594,81.0972,103.2608,82.06450000000001L91.4348,82.06450000000001C82.68430000000001,82.06450000000001,75.5652,89.1553,75.5652,97.871L75.5652,138.96800000000002C75.5652,145.094,79.9611,150.209,85.7789,151.363L84.5791,154.774L66.0435,154.774L66.0435,105.5118ZM56.52174,180.064C54.76974,180.064,53.34783,178.645,53.34783,176.903L53.34783,164.258C53.34783,162.516,54.76974,161.097,56.52174,161.097L82.3574,161.097L75.6922,180.064L56.52174,180.064ZM94.6627,205.124C93.282,209.044,89.5558,211.677,85.3885,211.677C79.9738,211.677,75.5652,207.29,75.5652,201.893L75.5652,201.232C75.5652,200.132,75.7525,199.045,76.1175,198.002L94.55789999999999,145.52100000000002C95.9354,141.601,99.66159999999999,138.96800000000002,103.8289,138.96800000000002C109.2436,138.96800000000002,113.6522,143.356,113.6522,148.752L113.6522,149.413C113.6522,150.513,113.4649,151.6,113.0999,152.643L94.6627,205.124ZM110.1926,180.064L116.8578,161.097L123.1422,161.097L129.8074,180.064L110.1926,180.064ZM164.435,201.893C164.435,207.29,160.026,211.677,154.612,211.677C150.44400000000002,211.677,146.71800000000002,209.044,145.34050000000002,205.124L126.8969,152.647C126.5351,151.603,126.3478,150.513,126.3478,149.413L126.3478,148.752C126.3478,143.356,130.75639999999999,138.96800000000002,136.1711,138.96800000000002C140.33839999999998,138.96800000000002,144.06459999999998,141.601,145.44209999999998,145.52100000000002L163.886,197.998C164.248,199.042,164.435,200.132,164.435,201.232L164.435,201.893ZM186.652,176.903C186.652,178.645,185.23,180.064,183.478,180.064L164.308,180.064L157.643,161.097L183.478,161.097C185.23,161.097,186.652,162.516,186.652,164.258L186.652,176.903Z" fill="#0D0D0D" fill-opacity="1" style="mix-blend-mode:passthrough"/></g></g></svg>