<svg xmlns="http://www.w3.org/2000/svg" xmlns:xlink="http://www.w3.org/1999/xlink" fill="none" version="1.1" width="240" height="240" viewBox="0 0 240 240"><defs><clipPath id="0_2647_4254"><rect x="0" y="0" width="240" height="240" rx="0"/></clipPath><filter id="1_2647_4257" filterUnits="objectBoundingBox" color-interpolation-filters="sRGB" x="0" y="0" width="240" height="240"><feFlood flood-opacity="0" result="BackgroundImageFix"/><feBlend mode="normal" in="SourceGraphic" in2="BackgroundImageFix" result="shape"/><feGaussianBlur in="BackgroundImage" stdDeviation="6"/><feComposite in2="SourceAlpha" operator="in" result="effect1_foregroundBlur"/><feBlend mode="normal" in="SourceGraphic" in2="effect1_foregroundBlur" result="shape"/></filter></defs><g clip-path="url(#0_2647_4254)"><g filter="url(#1_2647_4257)"><rect x="0" y="0" width="240" height="240" rx="20" fill="#D6D6D6" fill-opacity="1"/></g><g><path d="M183.8365859375,110.2019921875Q184.2355859375,110.2795921875,184.4285859375,110.3380921875Q187.8425859375,111.0975921875,189.8355859375,110.6305921875Q192.7615859375,109.9432921875,195.8035859375,106.4363921875Q196.4145859375,105.7333921875,197.6295859375,104.3376921875Q202.9445859375,98.2354921875,205.5085859375,95.1078921875Q210.1415859375,89.45439218749999,213.4635859375,84.78289218750001Q214.5335859375,83.27599218750001,214.3795859375,81.89019218749999Q214.2305859375,80.54429218749999,212.9095859375,79.05849218750001Q210.4735859375,76.3206921875,205.6165859375,70.8912921875Q193.6555859375,57.5192921875,187.7815859375,50.737492187499996Q181.1025859375,43.0377421875,171.6815859375,40.4372521875Q163.9545859375,38.2963121875,156.1365859375,36.5544121875Q150.0835859375,35.1992751875,146.17358593749998,34.9589961875Q143.2865859375,34.7826341875,139.6835859375,35.0852941875Q137.5095859375,35.2678541875,133.15658593749998,35.8454021875Q130.9985859375,36.1317421875,129.91958593750002,36.2619821875Q119.4344859375,37.5839421875,108.9990859375,35.9062621875Q104.6325859375,35.1919281875,102.4115859375,34.9407581875Q98.7669859375,34.5286090875,95.8153859375,34.6279358875Q95.5132859375,34.6381921875,94.9199859375,34.6155761875Q93.9580859375,34.5789091875,93.5295859375,34.6645559875Q89.5635859375,35.4392841875,83.74418593749999,36.7351121875Q82.2641859375,37.0667921875,79.3013859375,37.7089021875Q71.38888593749999,39.4237421875,67.4935859375,40.4766321875Q60.2023859375,42.4540621875,55.6922859375,47.5488921875L38.6083859375,66.7806921875L28.2978659375,78.4210921875Q27.2636689375,79.63249218749999,26.8210659375,81.1674921875Q26.0569769375,83.7011921875,27.9385359375,86.56709218750001Q29.9735359375,89.66899218750001,32.4016759375,92.47669218749999Q33.5126759375,93.7612921875,35.8728159375,96.2367921875Q38.0372859375,98.5069921875,39.0754859375,99.6871921875Q40.1244859375,100.8792921875,42.1050859375,103.3462921875Q43.9963859375,105.7021921875,44.9862859375,106.8347921875Q48.6495859375,111.0251921875,54.6821859375,110.2610921875L57.5487859375,109.8926921875L57.5487859375,112.5096921875L57.5070859375,200.5884921875Q57.500985937500005,203.1934921875,58.6459859375,204.3034921875Q59.7762859375,205.4004921875,62.3967859375,205.4004921875L154.8545859375,205.3584921875L179.0405859375,205.3584921875Q181.0125859375,205.3584921875,182.0155859375,204.3504921875Q182.9865859375,203.3744921875,182.9865859375,201.4674921875L182.9565859375,112.1834921875L182.9565859375,110.0271921875L183.6745859375,110.1699921875Q183.7305859375,110.1811921875,183.8365859375,110.2019921875ZM98.6216859375,42.0673721875L98.4029859375,41.2331021875L99.2612859375,41.3181321875Q101.7190859375,41.5616421875,106.5469859375,42.2976621875Q111.1718859375,43.002742187500004,113.4723859375,43.2354621875Q117.2807859375,43.620732187499996,120.3489859375,43.4639921875Q125.2329859375,43.2164021875,135.00858593750002,42.3906521875Q139.08458593749998,42.0462721875,141.2115859375,41.8789621875Q141.3375859375,41.8374721875,141.4995859375,41.8551421875Q141.7125859375,41.8782121875,141.8635859375,42.0306721875Q141.9635859375,42.1313521875,142.01558593750002,42.2763021875Q142.0645859375,42.4129721875,142.0635859375,42.5458621875L142.1555859375,43.0087621875L141.9345859375,43.0260721875Q137.8975859375,54.4241921875,128.2495859375,58.595392187499996Q120.9067859375,61.768992187500004,113.5577859375,59.3078921875Q106.2344859375,56.855492187500005,101.9089859375,49.8144921875Q99.6996859375,46.1788921875,98.6216859375,42.0673721875ZM68.21758593749999,47.7931921875L68.0736859375,47.2509921875L68.60508593750001,47.070992187499996Q72.6732859375,45.6932921875,80.9862859375,44.073612187500004Q87.6623859375,42.7728821875,90.9272859375,41.8305621875L91.4964859375,41.6662721875L91.6679859375,42.2333521875Q91.8042859375,42.684262187499996,92.0563859375,43.5513021875Q92.5421859375,45.2219921875,92.8155859375,46.0190921875Q96.7855859375,57.5667921875,105.8994859375,63.034992187499995Q113.4716859375,67.5813921875,122.1129859375,66.9308921875Q130.7385859375,66.2815921875,137.7015859375,60.6644921875Q145.6305859375,54.2787921875,148.8995859375,43.3425621875Q148.9505859375,43.1726621875,149.0695859375,42.8000221875Q149.1715859375,42.4804921875,149.2355859375,42.2755621875L149.4035859375,41.7362821875L172.3845859375,47.4231921875L172.2405859375,48.005492187499996Q172.0605859375,48.733892187500004,171.7065859375,50.1235921875Q170.9895859375,52.9392921875,170.6905859375,54.314392187500005Q165.4155859375,78.6011921875,173.3445859375,99.9813921875Q173.7755859375,101.1405921875,174.8135859375,103.4185921875Q175.4805859375,104.8836921875,175.7955859375,105.6321921875Q176.1845859375,106.4895921875,176.2235859375,107.4301921875L176.2245859375,107.4422921875L176.2955859375,197.0164921875L176.2955859375,198.6004921875L64.2637859375,198.6004921875L64.2637859375,197.0134921875L64.2846859375,107.7213921875Q64.3027859375,106.5267921875,64.8272859375,105.4529921875Q69.4934859375,95.8741921875,71.1549859375,84.0792921875Q72.5090859375,74.2907921875,71.49758593749999,64.4600921875Q70.6964859375,56.5355921875,68.5209859375,48.8715921875Q68.4226859375,48.5676921875,68.2504859375,47.917292187499996Q68.2302859375,47.8409921875,68.21758593749999,47.7931921875ZM141.4335859375,42.4564221875C141.4335859375,42.4512821875,141.4345859375,42.450492187500004,141.4375859375,42.4530421875C141.43558593749998,42.4512121875,141.4345859375,42.4511021875,141.4335859375,42.4531121875L141.4335859375,42.4564221875ZM171.6085859375,48.0607921875C171.5545859375,48.2770921875,171.5005859375,48.4910921875,171.4475859375,48.7029921875C171.4695859375,48.6168921875,171.4905859375,48.5304921875,171.5125859375,48.4436921875C171.5445859375,48.3168921875,171.5765859375,48.1892921875,171.6085859375,48.0607921875ZM61.3517859375,51.3382921875L62.1180859375,50.5752921875L62.3599859375,51.6292921875Q62.4988859375,52.2348921875,62.7754859375,53.408992187500004Q63.3492859375,55.8454921875,63.5974859375,57.0483921875Q65.96128593750001,68.4118921875,64.89278593750001,79.9699921875Q63.7700859375,91.70949218749999,59.3095859375,101.4616921875Q58.6503859375,102.9045921875,57.2120859375,103.0670921875Q56.504585937499996,103.1536921875,55.0849859375,103.3960921875Q54.0188859375,103.5781921875,53.4756859375,103.6565921875Q51.1827859375,104.0560921875,49.7815859375,102.2049921875Q49.202785937499996,101.4943921875,48.0656859375,100.0709921875Q45.5509859375,96.9231921875,44.2268859375,95.41639218750001Q43.0607859375,94.0906921875,40.6231859375,91.51779218749999Q38.5119859375,89.28919218749999,37.4849859375,88.14409218750001Q36.6605859375,87.22459218750001,35.165605937500004,85.2801921875Q34.4284259375,84.32139218750001,34.0537059375,83.8525921875Q33.2325959375,82.8288921875,34.145075937499996,81.8099921875L60.7192859375,51.9712921875Q60.8330859375,51.8283921875,61.0771859375,51.6009921875Q61.2451859375,51.4444921875,61.3517859375,51.3382921875ZM206.8875859375,81.7462921875L206.8875859375,82.7911921875L206.7615859375,82.9536921875Q206.4945859375,83.2967921875,205.9695859375,83.98489218750001Q204.6395859375,85.7292921875,203.9105859375,86.5753921875Q202.2625859375,88.5243921875,198.9395859375,92.4159921875Q193.4265859375,98.8727921875,190.7165859375,102.1376921875Q188.3725859375,104.9622921875,185.3595859375,103.6986921875Q184.4015859375,103.2890921875,183.3715859375,103.1493921875Q181.8585859375,102.9508921875,181.0735859375,101.2387921875Q176.3725859375,90.91559218750001,175.4655859375,78.5144921875Q174.5585859375,65.4169921875,177.9315859375,52.7238921875Q177.9785859375,52.5481921875,178.1065859375,52.1303921875Q178.1655859375,51.9338921875,178.2005859375,51.8181921875L178.4885859375,50.8651921875L179.1965859375,51.564792187500004Q179.4345859375,51.7996921875,179.8995859375,52.2435921875Q180.8525859375,53.1523921875,181.2855859375,53.6397921875L202.6955859375,77.6754921875L206.7055859375,81.5694921875L206.8875859375,81.7462921875Z" fill-rule="evenodd" fill="#0D0D0D" fill-opacity="1" style="mix-blend-mode:passthrough"/></g></g></svg>