<svg xmlns="http://www.w3.org/2000/svg" xmlns:xlink="http://www.w3.org/1999/xlink" fill="none" version="1.1" width="48" height="48" viewBox="0 0 48 48"><defs><clip-path  id="0_2537_5270"><rect x="0" y="0" width="48" height="48" rx="0"/></clip-path ></defs><g style="opacity:0.6000000238418579;"  clip-path ="url(#0_2537_5270)"><g><path d="M23.25,16Q23.25,15.9261315,23.264411,15.853682Q23.278822,15.781233,23.30709,15.712987Q23.335359,15.644742,23.376398000000002,15.583322Q23.417437,15.521903,23.46967,15.46967Q23.521903000000002,15.417437,23.583322,15.376398Q23.644742,15.335359,23.712987,15.30709Q23.781233,15.278822,23.853682,15.264410999999999Q23.9261315,15.25,24,15.25Q24.0738685,15.25,24.146318,15.264410999999999Q24.218767,15.278822,24.287013,15.30709Q24.355258,15.335359,24.416678,15.376398Q24.478096999999998,15.417437,24.53033,15.46967Q24.582563,15.521903,24.623601999999998,15.583322Q24.664641,15.644742,24.69291,15.712987Q24.721178,15.781233,24.735589,15.853682Q24.75,15.9261315,24.75,16L24.75,32Q24.75,32.073899999999995,24.735589,32.1463Q24.721178,32.2188,24.69291,32.287Q24.664641,32.3553,24.623601999999998,32.4167Q24.582563,32.4781,24.53033,32.5303Q24.478096999999998,32.5826,24.416678,32.623599999999996Q24.355258,32.6646,24.287013,32.6929Q24.218767,32.721199999999996,24.146318,32.735600000000005Q24.0738685,32.75,24,32.75Q23.9261315,32.75,23.853682,32.735600000000005Q23.781233,32.721199999999996,23.712987,32.6929Q23.644742,32.6646,23.583322,32.623599999999996Q23.521903000000002,32.5826,23.46967,32.5303Q23.417437,32.4781,23.376398000000002,32.4167Q23.335359,32.3553,23.30709,32.287Q23.278822,32.2188,23.264411,32.1463Q23.25,32.073899999999995,23.25,32L23.25,16Z" fill-rule="evenodd" fill="#FFFFFF" fill-opacity="1"/></g><g><path d="M16,23.25L32,23.25Q32.073899999999995,23.25,32.1463,23.264411Q32.2188,23.278822,32.287,23.30709Q32.3553,23.335359,32.4167,23.376398000000002Q32.4781,23.417437,32.5303,23.46967Q32.5826,23.521903000000002,32.623599999999996,23.583322Q32.6646,23.644742,32.6929,23.712987Q32.721199999999996,23.781233,32.735600000000005,23.853682Q32.75,23.9261315,32.75,24Q32.75,24.0738685,32.735600000000005,24.146318Q32.721199999999996,24.218767,32.6929,24.287013Q32.6646,24.355258,32.623599999999996,24.416678Q32.5826,24.478096999999998,32.5303,24.53033Q32.4781,24.582563,32.4167,24.623601999999998Q32.3553,24.664641,32.287,24.69291Q32.2188,24.721178,32.1463,24.735589Q32.073899999999995,24.75,32,24.75L16,24.75Q15.9261315,24.75,15.853682,24.735589Q15.781233,24.721178,15.712987,24.69291Q15.644742,24.664641,15.583322,24.623601999999998Q15.521903,24.582563,15.46967,24.53033Q15.417437,24.478096999999998,15.376398,24.416678Q15.335359,24.355258,15.30709,24.287013Q15.278822,24.218767,15.264410999999999,24.146318Q15.25,24.0738685,15.25,24Q15.25,23.9261315,15.264410999999999,23.853682Q15.278822,23.781233,15.30709,23.712987Q15.335359,23.644742,15.376398,23.583322Q15.417437,23.521903000000002,15.46967,23.46967Q15.521903,23.417437,15.583322,23.376398000000002Q15.644742,23.335359,15.712987,23.30709Q15.781233,23.278822,15.853682,23.264411Q15.9261315,23.25,16,23.25Z" fill-rule="evenodd" fill="#FFFFFF" fill-opacity="1"/></g></g></svg>