<svg xmlns="http://www.w3.org/2000/svg" xmlns:xlink="http://www.w3.org/1999/xlink" fill="none" version="1.1" width="30" height="30" viewBox="0 0 30 30"><defs><clipPath id="0_14_1342"><rect x="0" y="0" width="30" height="30" rx="0"/></clipPath></defs><g style="opacity:0.6000000238418579;" clip-path="url(#0_14_1342)"><g><path d="M27.5,15Q27.5,15.3069,27.4849,15.6133Q27.4699,15.9198,27.4398,16.2252Q27.4097,16.5306,27.3647,16.8341Q27.3197,17.137700000000002,27.2598,17.4386Q27.1999,17.7396,27.1254,18.037300000000002Q27.0508,18.334899999999998,26.9618,18.6286Q26.8727,18.9222,26.7693,19.2111Q26.6659,19.5,26.5485,19.7835Q26.4311,20.067,26.2999,20.3444Q26.1687,20.6218,26.024,20.8925Q25.8794,21.1631,25.7216,21.4263Q25.5638,21.6895,25.3934,21.9446Q25.2229,22.1998,25.0401,22.4462Q24.8573,22.6927,24.6626,22.9299Q24.468,23.1671,24.2619,23.3945Q24.0558,23.6219,23.8388,23.8388Q23.6219,24.0558,23.3945,24.2619Q23.1671,24.468,22.9299,24.6626Q22.6927,24.8573,22.4462,25.0401Q22.1998,25.2229,21.9446,25.3934Q21.6895,25.5638,21.4263,25.7216Q21.1631,25.8794,20.8925,26.024Q20.6218,26.1687,20.3444,26.2999Q20.067,26.4311,19.7835,26.5485Q19.5,26.6659,19.2111,26.7693Q18.9222,26.8727,18.6286,26.9618Q18.334899999999998,27.0508,18.037300000000002,27.1254Q17.7396,27.1999,17.4386,27.2598Q17.137700000000002,27.3197,16.8341,27.3647Q16.5306,27.4097,16.2252,27.4398Q15.9198,27.4699,15.6133,27.4849Q15.3069,27.5,15,27.5Q14.6931,27.5,14.3867,27.4849Q14.0802,27.4699,13.7748,27.4398Q13.4694,27.4097,13.1659,27.3647Q12.8623,27.3197,12.5614,27.2598Q12.26041,27.1999,11.96275,27.1254Q11.66509,27.0508,11.37144,26.9618Q11.0778,26.8727,10.78888,26.7693Q10.49996,26.6659,10.21646,26.5485Q9.93296,26.4311,9.655560000000001,26.2999Q9.378160000000001,26.1687,9.10754,26.024Q8.83692,25.8794,8.57372,25.7216Q8.31051,25.5638,8.05537,25.3934Q7.80023,25.2229,7.55376,25.0401Q7.30729,24.8573,7.07008,24.6626Q6.83288,24.468,6.60551,24.2619Q6.37815,24.0558,6.161160000000001,23.8388Q5.944179999999999,23.6219,5.73811,23.3945Q5.53204,23.1671,5.33737,22.9299Q5.1427,22.6927,4.95991,22.4462Q4.77711,22.1998,4.60663,21.9446Q4.43615,21.6895,4.27839,21.4263Q4.12064,21.1631,3.97598,20.8925Q3.83133,20.6218,3.7001299999999997,20.3444Q3.56894,20.067,3.451506,19.7835Q3.334076,19.5,3.230699,19.2111Q3.127322,18.9222,3.038246,18.6286Q2.94917,18.334899999999998,2.874609,18.037300000000002Q2.800049,17.7396,2.740184,17.4386Q2.680319,17.137700000000002,2.635294,16.8341Q2.5902682,16.5306,2.5601909,16.2252Q2.5301136,15.9198,2.5150568,15.6133Q2.5,15.3069,2.5,15Q2.5,14.6931,2.5150568,14.3867Q2.5301136,14.0802,2.5601909,13.7748Q2.5902682,13.4694,2.635294,13.1659Q2.680319,12.8623,2.740184,12.5614Q2.800049,12.26041,2.874609,11.96275Q2.94917,11.66509,3.038246,11.37144Q3.127322,11.0778,3.230699,10.78888Q3.334076,10.49996,3.451506,10.21646Q3.56894,9.93296,3.7001299999999997,9.655560000000001Q3.83133,9.378160000000001,3.97598,9.10754Q4.12064,8.83692,4.27839,8.57372Q4.43615,8.31051,4.60663,8.05537Q4.77711,7.80023,4.95991,7.55376Q5.1427,7.30729,5.33737,7.07008Q5.53204,6.83288,5.73811,6.60551Q5.944179999999999,6.37815,6.161160000000001,6.161160000000001Q6.37815,5.944179999999999,6.60551,5.73811Q6.83288,5.53204,7.07008,5.33737Q7.30729,5.1427,7.55376,4.95991Q7.80023,4.77711,8.05537,4.60663Q8.31051,4.43615,8.57371,4.27839Q8.83692,4.12064,9.10754,3.97598Q9.378160000000001,3.83133,9.655560000000001,3.7001299999999997Q9.93296,3.56894,10.21646,3.451506Q10.49996,3.334076,10.78887,3.230699Q11.0778,3.127322,11.37144,3.038246Q11.66508,2.94917,11.96275,2.874609Q12.26041,2.800049,12.5614,2.740184Q12.8623,2.680319,13.1659,2.635294Q13.4694,2.5902682,13.7748,2.5601909Q14.0802,2.5301136,14.3867,2.5150568Q14.6931,2.5,15,2.5Q15.3069,2.5,15.6133,2.5150568Q15.9198,2.5301136,16.2252,2.5601909Q16.5306,2.5902682,16.8341,2.635294Q17.137700000000002,2.680319,17.4386,2.740184Q17.7396,2.800049,18.037300000000002,2.874609Q18.334899999999998,2.94917,18.6286,3.038246Q18.9222,3.127322,19.2111,3.230699Q19.5,3.334076,19.7835,3.451506Q20.067,3.56894,20.3444,3.7001299999999997Q20.6218,3.83133,20.8925,3.97598Q21.1631,4.12064,21.4263,4.27839Q21.6895,4.43615,21.9446,4.60663Q22.1998,4.77711,22.4462,4.95991Q22.6927,5.1427,22.9299,5.33737Q23.1671,5.53204,23.3945,5.73811Q23.6219,5.944179999999999,23.8388,6.161160000000001Q24.0558,6.37815,24.2619,6.60551Q24.468,6.83288,24.6626,7.07008Q24.8573,7.30729,25.0401,7.55376Q25.2229,7.80023,25.3934,8.05537Q25.5638,8.31051,25.7216,8.57371Q25.8794,8.83692,26.024,9.10754Q26.1687,9.378160000000001,26.2999,9.655560000000001Q26.4311,9.93296,26.5485,10.21646Q26.6659,10.49996,26.7693,10.78887Q26.8727,11.0778,26.9618,11.37144Q27.0508,11.66508,27.1254,11.96275Q27.1999,12.26041,27.2598,12.5614Q27.3197,12.8623,27.3647,13.1659Q27.4097,13.4694,27.4398,13.7748Q27.4699,14.0802,27.4849,14.3867Q27.5,14.6931,27.5,15Z" fill="#FFFFFF" fill-opacity="0.009999999776482582"/><path d="M2.791559,9.84227Q1.7500010000000001,12.30479,1.7500010000000001,15Q1.75,17.6952,2.791558,20.1577Q3.79734,22.5357,5.63083,24.3692Q7.46432,26.2027,9.84227,27.2084Q12.30479,28.25,15,28.25Q17.6952,28.25,20.1577,27.2084Q22.5357,26.2027,24.3692,24.3692Q26.2027,22.5357,27.2084,20.1577Q28.25,17.6952,28.25,15Q28.25,12.30479,27.2084,9.84227Q26.2027,7.46432,24.3692,5.63083Q22.5357,3.79734,20.1577,2.791559Q17.6952,1.7500010000000001,15,1.7500010000000001Q12.30479,1.75,9.84227,2.791558Q7.46432,3.79734,5.63083,5.63083Q3.79735,7.46432,2.791559,9.84227ZM4.1730599999999995,19.5734Q3.25,17.391,3.25,15Q3.250001,12.609,4.17307,10.4266Q5.0648800000000005,8.318100000000001,6.69149,6.69149Q8.31811,5.0648800000000005,10.4266,4.1730599999999995Q12.609,3.25,15,3.250001Q17.391,3.250001,19.5734,4.17307Q21.6819,5.0648800000000005,23.3085,6.69149Q24.9351,8.31811,25.8269,10.4266Q26.75,12.609,26.75,15Q26.75,17.391,25.8269,19.5734Q24.9351,21.6819,23.3085,23.3085Q21.6819,24.9351,19.5734,25.8269Q17.391,26.75,15,26.75Q12.609,26.75,10.4266,25.8269Q8.318100000000001,24.9351,6.69149,23.3085Q5.0648800000000005,21.6819,4.1730599999999995,19.5734Z" fill-rule="evenodd" fill="#FFFFFF" fill-opacity="1"/></g><g><path d="M14.25,10L14.25,20Q14.25,20.073900000000002,14.264410999999999,20.1463Q14.278822,20.2188,14.30709,20.287Q14.335359,20.3553,14.376398,20.4167Q14.417437,20.478099999999998,14.46967,20.5303Q14.521903,20.5826,14.583322,20.6236Q14.644742,20.6646,14.712987,20.6929Q14.781233,20.7212,14.853682,20.735599999999998Q14.9261315,20.75,15,20.75Q15.0738685,20.75,15.146318,20.735599999999998Q15.218767,20.7212,15.287013,20.6929Q15.355258,20.6646,15.416678,20.6236Q15.478097,20.5826,15.53033,20.5303Q15.582563,20.478099999999998,15.623602,20.4167Q15.664641,20.3553,15.69291,20.287Q15.721178,20.2188,15.735589000000001,20.1463Q15.75,20.073900000000002,15.75,20L15.75,10Q15.75,9.9261315,15.735589000000001,9.853682Q15.721178,9.781233,15.69291,9.712987Q15.664641,9.644742,15.623602,9.583322Q15.582563,9.521903,15.53033,9.46967Q15.478097,9.417437,15.416678,9.376398Q15.355258,9.335359,15.287013,9.30709Q15.218767,9.278822,15.146318,9.264410999999999Q15.0738685,9.25,15,9.25Q14.9261315,9.25,14.853682,9.264410999999999Q14.781233,9.278822,14.712987,9.30709Q14.644742,9.335359,14.583322,9.376398Q14.521903,9.417437,14.46967,9.46967Q14.417437,9.521903,14.376398,9.583322Q14.335359,9.644742,14.30709,9.712987Q14.278822,9.781233,14.264410999999999,9.853682Q14.25,9.9261315,14.25,10Z" fill-rule="evenodd" fill="#FFFFFF" fill-opacity="1"/></g><g><path d="M10,15.75L20,15.75Q20.073900000000002,15.75,20.1463,15.735589000000001Q20.2188,15.721178,20.287,15.69291Q20.3553,15.664641,20.4167,15.623602Q20.478099999999998,15.582563,20.5303,15.53033Q20.5826,15.478097,20.6236,15.416678Q20.6646,15.355258,20.6929,15.287013Q20.7212,15.218767,20.735599999999998,15.146318Q20.75,15.0738685,20.75,15Q20.75,14.9261315,20.735599999999998,14.853682Q20.7212,14.781233,20.6929,14.712987Q20.6646,14.644742,20.6236,14.583322Q20.5826,14.521903,20.5303,14.46967Q20.478099999999998,14.417437,20.4167,14.376398Q20.3553,14.335359,20.287,14.30709Q20.2188,14.278822,20.1463,14.264410999999999Q20.073900000000002,14.25,20,14.25L10,14.25Q9.9261315,14.25,9.853682,14.264410999999999Q9.781233,14.278822,9.712987,14.30709Q9.644742,14.335359,9.583322,14.376398Q9.521903,14.417437,9.46967,14.46967Q9.417437,14.521903,9.376398,14.583322Q9.335359,14.644742,9.30709,14.712987Q9.278822,14.781233,9.264410999999999,14.853682Q9.25,14.9261315,9.25,15Q9.25,15.0738685,9.264410999999999,15.146318Q9.278822,15.218767,9.30709,15.287013Q9.335359,15.355258,9.376398,15.416678Q9.417437,15.478097,9.46967,15.53033Q9.521903,15.582563,9.583322,15.623602Q9.644742,15.664641,9.712987,15.69291Q9.781233,15.721178,9.853682,15.735589000000001Q9.9261315,15.75,10,15.75Z" fill-rule="evenodd" fill="#FFFFFF" fill-opacity="1"/></g></g></svg>