<svg xmlns="http://www.w3.org/2000/svg" xmlns:xlink="http://www.w3.org/1999/xlink" fill="none" version="1.1" width="24"
  height="24" viewBox="0 0 24 24">
  <g transform="matrix(0,-1,1,0,-24,24)">
    <g>
      <path
        d="M9.46066057220459,36L14.93033057220459,30.53033Q15.035820572204589,30.424841,15.092910572204591,30.287013Q15.15000057220459,30.149184,15.15000057220459,30Q15.15000057220459,29.850816,15.092910572204591,29.712987Q15.035820572204589,29.575159,14.93033057220459,29.46967Q14.82484057220459,29.364181,14.68701057220459,29.30709Q14.54919057220459,29.25,14.40000057220459,29.25Q14.250820572204589,29.25,14.11299057220459,29.30709Q13.97516057220459,29.364181,13.86967057220459,29.46967L7.86967057220459,35.46967Q7.8174375722045895,35.5219,7.77639857220459,35.58332Q7.73535957220459,35.64474,7.7070905722045895,35.71299Q7.67882257220459,35.78123,7.66441157220459,35.85368Q7.65000057220459,35.92613,7.65000057220459,36Q7.65000057220459,36.07387,7.66441157220459,36.14632Q7.67882257220459,36.21877,7.70709157220459,36.28701Q7.73535957220459,36.35526,7.77639857220459,36.41668Q7.8174375722045895,36.4781,7.86967057220459,36.53033L13.869280572204591,42.5299L13.86967057220459,42.5303Q13.97516057220459,42.6358,14.11299057220459,42.6929Q14.250820572204589,42.75,14.40000057220459,42.75Q14.54919057220459,42.75,14.68701057220459,42.6929Q14.82484057220459,42.6358,14.93033057220459,42.5303Q15.035820572204589,42.4248,15.092910572204591,42.287Q15.15000057220459,42.1492,15.15000057220459,42Q15.15000057220459,41.8508,15.092910572204591,41.713Q15.035820572204589,41.5752,14.93033057220459,41.4697L14.92994057220459,41.469300000000004L9.46066057220459,36Z"
        fill="#d8d8d8" fill-opacity="1" />
    </g>
  </g>
</svg>