<svg xmlns="http://www.w3.org/2000/svg" xmlns:xlink="http://www.w3.org/1999/xlink" fill="none" version="1.1" width="24" height="24" viewBox="0 0 24 24"><defs><clipPath id="master_svg0_2609_4691"><rect x="0" y="0" width="24" height="24" rx="0"/></clipPath></defs><g clip-path="url(#master_svg0_2609_4691)"><g><path d="M6,11.25390625L18,11.25390625Q18.073900000000002,11.25390625,18.1463,11.268317249999999Q18.2188,11.28272825,18.287,11.31099625Q18.3553,11.33926525,18.4167,11.38030425Q18.478099999999998,11.42134325,18.5303,11.47357625Q18.5826,11.52580925,18.6236,11.58722825Q18.6646,11.64864825,18.6929,11.71689325Q18.7212,11.78513925,18.735599999999998,11.85758825Q18.75,11.93003775,18.75,12.00390625Q18.75,12.07777475,18.735599999999998,12.15022425Q18.7212,12.22267325,18.6929,12.29091925Q18.6646,12.35916425,18.6236,12.42058425Q18.5826,12.48200325,18.5303,12.53423625Q18.478099999999998,12.58646925,18.4167,12.62750825Q18.3553,12.66854725,18.287,12.69681625Q18.2188,12.72508425,18.1463,12.739495250000001Q18.073900000000002,12.75390625,18,12.75390625L6,12.75390625Q5.9261315,12.75390625,5.853682,12.739495250000001Q5.781233,12.72508425,5.712987,12.69681625Q5.644742,12.66854725,5.583322,12.62750825Q5.521903,12.58646925,5.46967,12.53423625Q5.417437,12.48200325,5.376398,12.42058425Q5.335359,12.35916425,5.30709,12.29091925Q5.278822,12.22267325,5.264411,12.15022425Q5.25,12.07777475,5.25,12.00390625Q5.25,11.93003775,5.264411,11.85758825Q5.278822,11.78513925,5.30709,11.71689325Q5.335359,11.64864825,5.376398,11.58722825Q5.417437,11.52580925,5.46967,11.47357625Q5.521903,11.42134325,5.583322,11.38030425Q5.644742,11.33926525,5.712987,11.31099625Q5.781233,11.28272825,5.853682,11.268317249999999Q5.9261315,11.25390625,6,11.25390625Z" fill-rule="evenodd" fill="#D6D6D6" fill-opacity="1" style="mix-blend-mode:passthrough"/></g><g><path d="M12.530484,5.469824L18.53033,11.46967Q18.63582,11.57516,18.69291,11.71299Q18.75,11.850819999999999,18.75,12Q18.75,12.149180000000001,18.69291,12.28701Q18.63582,12.42484,18.53033,12.53033L12.53033,18.5303Q12.424841,18.6358,12.287012,18.6929Q12.149184,18.75,12,18.75Q11.9261315,18.75,11.853682,18.735599999999998Q11.781233,18.7212,11.712987,18.6929Q11.644742,18.6646,11.583322,18.6236Q11.521903,18.5826,11.46967,18.5303Q11.417437,18.478099999999998,11.376398,18.4167Q11.335359,18.3553,11.30709,18.287Q11.278822,18.2188,11.264410999999999,18.1463Q11.25,18.073900000000002,11.25,18Q11.25,17.8508,11.30709,17.713Q11.364181,17.575200000000002,11.46967,17.4697L11.470132,17.4692L16.93934,12L11.469824,6.5304839999999995L11.46967,6.53033Q11.364181,6.424841,11.30709,6.287013Q11.25,6.149184,11.25,6Q11.25,5.9261315,11.264410999999999,5.853682Q11.278822,5.781233,11.30709,5.712987Q11.335359,5.644742,11.376398,5.583322Q11.417437,5.521903,11.46967,5.46967Q11.521903,5.417437,11.583322,5.376398Q11.644742,5.335359,11.712987,5.30709Q11.781233,5.278822,11.853682,5.264411Q11.9261315,5.25,12,5.25Q12.149184,5.25,12.287013,5.30709Q12.424841,5.364181,12.53033,5.46967L12.530484,5.469824Z" fill-rule="evenodd" fill="#D6D6D6" fill-opacity="1" style="mix-blend-mode:passthrough"/></g></g></svg>