<svg xmlns="http://www.w3.org/2000/svg" xmlns:xlink="http://www.w3.org/1999/xlink" fill="none" version="1.1" width="30" height="30" viewBox="0 0 30 30"><defs><clipPath id="master_svg0_1672_1369"><rect x="0" y="0" width="30" height="30" rx="0"/></clipPath></defs><g style="opacity:0.800000011920929;" clip-path="url(#master_svg0_1672_1369)"><g><path d="M3.62432861328125,14L26.12432861328125,14Q26.22282861328125,14,26.31942861328125,14.019214999999999Q26.41602861328125,14.03843,26.50702861328125,14.076121Q26.59802861328125,14.113812,26.67992861328125,14.16853Q26.76182861328125,14.223249,26.83142861328125,14.292893Q26.90102861328125,14.362537,26.95582861328125,14.44443Q27.01052861328125,14.526322,27.04822861328125,14.617317Q27.08592861328125,14.708311,27.10512861328125,14.80491Q27.12432861328125,14.9015086,27.12432861328125,15Q27.12432861328125,15.0984914,27.10512861328125,15.19509Q27.08592861328125,15.291689,27.04822861328125,15.382683Q27.01052861328125,15.473678,26.95582861328125,15.55557Q26.90102861328125,15.637463,26.83142861328125,15.707107Q26.76182861328125,15.776751,26.67992861328125,15.83147Q26.59802861328125,15.886188,26.50702861328125,15.923879Q26.41602861328125,15.96157,26.31942861328125,15.980785000000001Q26.22282861328125,16,26.12432861328125,16L3.62432861328125,16Q3.52583721328125,16,3.42923861328125,15.980785000000001Q3.33263961328125,15.96157,3.24164561328125,15.923879Q3.15065061328125,15.886188,3.06875861328125,15.83147Q2.98686561328125,15.776751,2.91722161328125,15.707107Q2.84757761328125,15.637463,2.79285861328125,15.55557Q2.7381406132812502,15.473678,2.70044961328125,15.382683Q2.66275861328125,15.291689,2.64354361328125,15.19509Q2.62432861328125,15.0984914,2.62432861328125,15Q2.62432861328125,14.9015086,2.64354361328125,14.80491Q2.66275861328125,14.708311,2.70044961328125,14.617317Q2.7381406132812502,14.526322,2.79285861328125,14.44443Q2.84757761328125,14.362537,2.91722161328125,14.292893Q2.98686561328125,14.223249,3.06875861328125,14.16853Q3.15065061328125,14.113812,3.24164561328125,14.076121Q3.33263961328125,14.03843,3.42923861328125,14.019214999999999Q3.52583721328125,14,3.62432861328125,14Z" fill-rule="evenodd" fill="#FFFFFF" fill-opacity="1"/></g><g><path d="M11.831357578125,8.207106Q11.972007578125,8.066454,12.048127578125,7.882683Q12.124247578125,7.698912,12.124247578125,7.5Q12.124247578125,7.4015086,12.105037578125,7.30491Q12.085817578125,7.208311,12.048127578125,7.117317Q12.010437578125,7.026322,11.955717578125,6.94443Q11.900997578125,6.862537,11.831357578125,6.792893Q11.761707578125,6.723249,11.679817578125,6.66853Q11.597927578124999,6.613812,11.506927578125,6.576121Q11.415937578125,6.53843,11.319337578125001,6.519215Q11.222737578124999,6.5,11.124247578125,6.5Q10.925337578125,6.5,10.741567578125,6.576121Q10.557797578125001,6.652241,10.417137578125,6.792894L10.416827578125,6.793208L2.917159578125,14.29289Q2.847516578125,14.36254,2.792797578125,14.44443Q2.738078578125,14.52632,2.700387578125,14.61732Q2.662696578125,14.70831,2.643482578125,14.80491Q2.624267578125,14.90151,2.624267578125,15Q2.624267578125,15.09849,2.643482578125,15.19509Q2.662696578125,15.29169,2.700387578125,15.38268Q2.738078578125,15.47368,2.792797578125,15.55557Q2.847516578125,15.63746,2.917159578125,15.70711L10.416627578125,23.2066L10.417137578125,23.2071Q10.557797578125001,23.3478,10.741567578125,23.4239Q10.925337578125,23.5,11.124247578125,23.5Q11.222737578124999,23.5,11.319337578125001,23.480800000000002Q11.415937578125,23.4616,11.506927578125,23.4239Q11.597927578124999,23.386200000000002,11.679817578125,23.3315Q11.761707578125,23.276699999999998,11.831357578125,23.2071Q11.900997578125,23.1375,11.955717578125,23.0556Q12.010437578125,22.9737,12.048127578125,22.8827Q12.085817578125,22.7917,12.105037578125,22.6951Q12.124247578125,22.5985,12.124247578125,22.5Q12.124247578125,22.301099999999998,12.048127578125,22.1173Q11.972007578125,21.933500000000002,11.831357578125,21.7929L11.830387578125,21.7919L5.038477578125,15L11.831037578125,8.20742L11.831357578125,8.207106L11.831357578125,8.207106Z" fill-rule="evenodd" fill="#FFFFFF" fill-opacity="1"/></g></g></svg>