<svg xmlns="http://www.w3.org/2000/svg" xmlns:xlink="http://www.w3.org/1999/xlink" fill="none" version="1.1" width="18" height="18" viewBox="0 0 18 18"><defs><clipPath id="master_svg0_2541_3173"><rect x="0" y="0" width="18" height="18" rx="0"/></clipPath></defs><g clip-path="url(#master_svg0_2541_3173)"><g></g><g><path d="M1.125,1.5Q1.0511314999999999,1.5,0.978682,1.514411Q0.9062330000000001,1.528822,0.837987,1.55709Q0.7697419999999999,1.585359,0.708322,1.626398Q0.646903,1.667437,0.59467,1.71967Q0.542437,1.771903,0.501398,1.833322Q0.46035899999999996,1.894742,0.43209,1.962987Q0.403822,2.031233,0.38941099999999995,2.103682Q0.375,2.1761315,0.375,2.25Q0.375,2.3238685,0.38941099999999995,2.396318Q0.403822,2.468767,0.43209,2.537013Q0.46035899999999996,2.605258,0.501398,2.666678Q0.542437,2.728097,0.59467,2.78033Q0.646903,2.832563,0.708322,2.873602Q0.7697419999999999,2.914641,0.837987,2.94291Q0.9062330000000001,2.971178,0.978682,2.985589Q1.0511314999999999,3,1.125,3L1.851918,3L2.2723899999999997,4.681900000000001L4.14739,12.1819Q4.1625,12.24233,4.18737,12.2994Q4.2122399999999995,12.3566,4.24619,12.4088Q4.280139999999999,12.461,4.32224,12.5069Q4.36434,12.5528,4.41344,12.5912Q4.462540000000001,12.6295,4.51729,12.6592Q4.572039999999999,12.6889,4.63094,12.7092Q4.68984,12.7294,4.75127,12.7397Q4.81271,12.75,4.875,12.75L14.625,12.75Q14.6873,12.75,14.7487,12.7397Q14.8102,12.7294,14.8691,12.7092Q14.928,12.6889,14.9827,12.6592Q15.0375,12.6295,15.0866,12.5912Q15.1357,12.5528,15.1778,12.5069Q15.2199,12.461,15.2538,12.4088Q15.2878,12.3566,15.3126,12.2994Q15.3375,12.24233,15.3526,12.1819L17.2276,4.681900000000001Q17.25,4.5923300000000005,17.25,4.5Q17.25,4.426130000000001,17.2356,4.353680000000001Q17.2212,4.28123,17.1929,4.21299Q17.1646,4.1447400000000005,17.1236,4.0833200000000005Q17.0826,4.0219000000000005,17.0303,3.96967Q16.978099999999998,3.91744,16.9167,3.8764000000000003Q16.8553,3.83536,16.787,3.80709Q16.7188,3.77882,16.6463,3.76441Q16.573900000000002,3.75,16.5,3.75L3.58558,3.75L3.16511,2.068098Q3.15,2.007668,3.12513,1.950558Q3.10026,1.893447,3.06631,1.8412220000000001Q3.0323599999999997,1.788997,2.99026,1.7430889999999999Q2.9481599999999997,1.69718,2.89906,1.658846Q2.8499600000000003,1.620512,2.79521,1.590802Q2.7404599999999997,1.561093,2.68156,1.540822Q2.6226599999999998,1.520552,2.56123,1.510276Q2.49979,1.5,2.4375,1.5L1.125,1.5ZM3.96058,5.25L5.46058,11.25L14.0394,11.25L15.5394,5.25L3.96058,5.25Z" fill-rule="evenodd" fill="#D6D6D6" fill-opacity="1"/></g><g><ellipse cx="4.875" cy="14.625" rx="1.125" ry="1.125" fill-opacity="0" stroke-opacity="1" stroke="#D6D6D6" fill="none" stroke-width="1.5" stroke-linecap="ROUND" stroke-linejoin="round"/></g><g><ellipse cx="14.625" cy="14.625" rx="1.125" ry="1.125" fill-opacity="0" stroke-opacity="1" stroke="#D6D6D6" fill="none" stroke-width="1.5" stroke-linecap="ROUND" stroke-linejoin="round"/></g><g><path d="M8.8388671875,7.5L15.2138671875,7.5Q15.2877371875,7.5,15.3601871875,7.514411Q15.4326371875,7.528822,15.5008771875,7.55709Q15.569127187500001,7.585359,15.6305471875,7.626398Q15.691967187500001,7.667437,15.7441971875,7.71967Q15.7964271875,7.771903,15.8374671875,7.833322Q15.8785071875,7.894742,15.906777187500001,7.962987Q15.9350471875,8.031233,15.9494571875,8.103682Q15.9638671875,8.1761315,15.9638671875,8.25Q15.9638671875,8.3238685,15.9494571875,8.396318Q15.9350471875,8.468767,15.906777187500001,8.537013Q15.8785071875,8.605258,15.8374671875,8.666678Q15.7964271875,8.728097,15.7441971875,8.78033Q15.691967187500001,8.832563,15.6305471875,8.873602Q15.569127187500001,8.914641,15.5008771875,8.94291Q15.4326371875,8.971178,15.3601871875,8.985589000000001Q15.2877371875,9,15.2138671875,9L8.8388671875,9Q8.7649986875,9,8.6925491875,8.985589000000001Q8.6201001875,8.971178,8.5518541875,8.94291Q8.4836091875,8.914641,8.4221891875,8.873602Q8.3607701875,8.832563,8.3085371875,8.78033Q8.2563041875,8.728097,8.2152651875,8.666678Q8.1742261875,8.605258,8.1459571875,8.537013Q8.1176891875,8.468767,8.103278187499999,8.396318Q8.0888671875,8.3238685,8.0888671875,8.25Q8.0888671875,8.1761315,8.103278187499999,8.103682Q8.1176891875,8.031233,8.1459571875,7.962987Q8.1742261875,7.894742,8.2152651875,7.833322Q8.2563041875,7.771903,8.3085371875,7.71967Q8.3607701875,7.667437,8.4221891875,7.626398Q8.4836091875,7.585359,8.5518541875,7.55709Q8.6201001875,7.528822,8.6925491875,7.514411Q8.7649986875,7.5,8.8388671875,7.5Z" fill-rule="evenodd" fill="#D6D6D6" fill-opacity="1"/></g></g></svg>