<svg xmlns="http://www.w3.org/2000/svg" xmlns:xlink="http://www.w3.org/1999/xlink" fill="none" version="1.1" width="30" height="30" viewBox="0 0 30 30"><defs><clipPath id="0_2537_3257"><rect x="0" y="0" width="30" height="30" rx="0"/></clipPath></defs><g style="opacity:0.800000011920929;" clip-path="url(#0_2537_3257)"><g transform="matrix(0.7071067690849304,-0.7071067690849304,0.7071067690849304,0.7071067690849304,-14.2059174361857,11.61501359342219)"><path d="M6.9176025390625,21.95556640625L29.4176025390625,21.95556640625Q29.5161025390625,21.95556640625,29.6127025390625,21.97478140625Q29.7093025390625,21.993996406249998,29.8003025390625,22.03168740625Q29.8913025390625,22.06937840625,29.9732025390625,22.12409640625Q30.0551025390625,22.17881540625,30.1247025390625,22.24845940625Q30.1943025390625,22.31810340625,30.2491025390625,22.39999640625Q30.3038025390625,22.48188840625,30.3415025390625,22.57288340625Q30.3792025390625,22.66387740625,30.3984025390625,22.76047640625Q30.4176025390625,22.85707500625,30.4176025390625,22.95556640625Q30.4176025390625,23.05405780625,30.3984025390625,23.15065640625Q30.3792025390625,23.24725540625,30.3415025390625,23.33824940625Q30.3038025390625,23.42924440625,30.2491025390625,23.51113640625Q30.1943025390625,23.59302940625,30.1247025390625,23.66267340625Q30.0551025390625,23.73231740625,29.9732025390625,23.78703640625Q29.8913025390625,23.84175440625,29.8003025390625,23.87944540625Q29.7093025390625,23.917136406250002,29.6127025390625,23.93635140625Q29.5161025390625,23.95556640625,29.4176025390625,23.95556640625L6.9176025390625,23.95556640625Q6.8191111390625,23.95556640625,6.7225125390625,23.93635140625Q6.6259135390625,23.917136406250002,6.5349195390625,23.87944540625Q6.4439245390625,23.84175440625,6.3620325390625,23.78703640625Q6.2801395390625,23.73231740625,6.2104955390625,23.66267340625Q6.1408515390625,23.59302940625,6.0861325390625,23.51113640625Q6.0314145390625,23.42924440625,5.9937235390625,23.33824940625Q5.9560325390625,23.24725540625,5.9368175390625,23.15065640625Q5.9176025390625,23.05405780625,5.9176025390625,22.95556640625Q5.9176025390625,22.85707500625,5.9368175390625,22.76047640625Q5.9560325390625,22.66387740625,5.9937235390625,22.57288340625Q6.0314145390625,22.48188840625,6.0861325390625,22.39999640625Q6.1408515390625,22.31810340625,6.2104955390625,22.24845940625Q6.2801395390625,22.17881540625,6.3620325390625,22.12409640625Q6.4439245390625,22.06937840625,6.5349195390625,22.03168740625Q6.6259135390625,21.993996406249998,6.7225125390625,21.97478140625Q6.8191111390625,21.95556640625,6.9176025390625,21.95556640625Z" fill-rule="evenodd" fill="#FFFFFF" fill-opacity="1"/></g><g transform="matrix(0.7071067690849304,0.7071067690849304,-0.7071067690849304,0.7071067690849304,7.000214521409362,-2.9000126676546643)"><path d="M7.000732421875,6L29.500732421875,6Q29.599232421875,6,29.695832421875,6.019215Q29.792432421875,6.03843,29.883432421875,6.076121Q29.974432421875,6.113812,30.056332421875,6.16853Q30.138232421875,6.223249,30.207832421875,6.292893Q30.277432421875,6.362537,30.332232421875,6.44443Q30.386932421875,6.526322,30.424632421875,6.617317Q30.462332421875,6.708311,30.481532421875,6.80491Q30.500732421875,6.9015086,30.500732421875,7Q30.500732421875,7.0984914,30.481532421875,7.19509Q30.462332421875,7.291689,30.424632421875,7.382683Q30.386932421875,7.473678,30.332232421875,7.55557Q30.277432421875,7.637463,30.207832421875,7.707107Q30.138232421875,7.776751,30.056332421875,7.83147Q29.974432421875,7.886188,29.883432421875,7.923879Q29.792432421875,7.96157,29.695832421875,7.980785Q29.599232421875,8,29.500732421875,8L7.000732421875,8Q6.902241021875,8,6.805642421875,7.980785Q6.709043421875,7.96157,6.618049421875,7.923879Q6.527054421875,7.886188,6.445162421875,7.83147Q6.363269421875,7.776751,6.293625421875,7.707107Q6.223981421875,7.637463,6.169262421875,7.55557Q6.114544421875,7.473678,6.076853421875,7.382683Q6.039162421875,7.291689,6.019947421875,7.19509Q6.000732421875,7.0984914,6.000732421875,7Q6.000732421875,6.9015086,6.019947421875,6.80491Q6.039162421875,6.708311,6.076853421875,6.617317Q6.114544421875,6.526322,6.169262421875,6.44443Q6.223981421875,6.362537,6.293625421875,6.292893Q6.363269421875,6.223249,6.445162421875,6.16853Q6.527054421875,6.113812,6.618049421875,6.076121Q6.709043421875,6.03843,6.805642421875,6.019215Q6.902241021875,6,7.000732421875,6Z" fill-rule="evenodd" fill="#FFFFFF" fill-opacity="1"/></g></g></svg>