<svg xmlns="http://www.w3.org/2000/svg" xmlns:xlink="http://www.w3.org/1999/xlink" fill="none" version="1.1" width="20" height="20" viewBox="0 0 20 20"><defs><clip-path  id="0_14_5727"><rect x="0" y="0" width="20" height="20" rx="0"/></clip-path ></defs><g style="opacity:0.6000000238418579;"  clip-path ="url(#0_14_5727)"><g><path d="M18.333448046875,10.00001701171875Q18.333448046875,10.20459701171875,18.323348046875,10.40891701171875Q18.313348046875,10.61324701171875,18.293248046875,10.81682701171875Q18.273248046875,11.02041701171875,18.243248046875,11.22277701171875Q18.213248046875,11.42512701171875,18.173248046875,11.62577701171875Q18.133348046875,11.82638701171875,18.083648046875,12.02488701171875Q18.033948046875,12.22328701171875,17.974548046875,12.41908701171875Q17.915248046875,12.61478701171875,17.846248046875,12.80738701171875Q17.777348046875,13.00008701171875,17.699048046875,13.18908701171875Q17.620748046875,13.37808701171875,17.533348046875,13.56298701171875Q17.445848046875,13.74788701171875,17.349448046875,13.92828701171875Q17.252948046874998,14.10878701171875,17.147848046874998,14.28418701171875Q17.042648046875,14.45968701171875,16.928948046875,14.62978701171875Q16.815348046875002,14.79988701171875,16.693448046874998,14.96418701171875Q16.571648046874998,15.12848701171875,16.441848046875002,15.28658701171875Q16.312048046875,15.44478701171875,16.174648046875,15.59638701171875Q16.037248046875,15.74788701171875,15.892648046875,15.89258701171875Q15.747948046875,16.03718701171875,15.596448046875,16.17458701171875Q15.444848046875,16.31198701171875,15.286648046875,16.441787011718752Q15.128548046875,16.571587011718748,14.964248046875,16.693387011718748Q14.799948046875,16.815287011718752,14.629848046875,16.92888701171875Q14.459748046875,17.04258701171875,14.284248046875,17.147787011718748Q14.108848046875,17.252887011718748,13.928348046875,17.34938701171875Q13.747948046875,17.44578701171875,13.563048046875,17.53328701171875Q13.378148046875,17.62068701171875,13.189148046875,17.69898701171875Q13.000148046875,17.77728701171875,12.807448046875,17.84618701171875Q12.614848046875,17.91518701171875,12.419148046875,17.97448701171875Q12.223348046875,18.03388701171875,12.024948046875,18.08358701171875Q11.826448046875,18.13328701171875,11.625838046875,18.17318701171875Q11.425188046875,18.21318701171875,11.222838046875,18.24318701171875Q11.020478046875,18.27318701171875,10.816888046875,18.29318701171875Q10.613308046875,18.31328701171875,10.408978046875,18.32328701171875Q10.204658046875,18.33338701171875,10.000078046875,18.33338701171875Q9.795508046875,18.33338701171875,9.591188046875,18.32328701171875Q9.386858046875,18.31328701171875,9.183268046875,18.29318701171875Q8.979688046875001,18.27318701171875,8.777328046874999,18.24318701171875Q8.574968046875,18.21318701171875,8.374328046875,18.17318701171875Q8.173688046875,18.13328701171875,7.975248046875,18.08358701171875Q7.776808046875,18.03388701171875,7.581038046875,17.97448701171875Q7.385278046875,17.91518701171875,7.192668046875,17.84618701171875Q7.000048046875,17.77728701171875,6.811048046875,17.69898701171875Q6.622048046875,17.62068701171875,6.437118046875,17.53328701171875Q6.252188046875,17.44578701171875,6.071778046875,17.34938701171875Q5.891358046875,17.252887011718748,5.715888046875,17.147787011718748Q5.540428046875,17.04258701171875,5.3703280468750005,16.92888701171875Q5.2002380468750005,16.815287011718752,5.035918046875,16.693387011718748Q4.871608046875,16.571587011718748,4.7134680468750005,16.441787011718752Q4.555338046875001,16.31198701171875,4.403758046875,16.17458701171875Q4.252178046875001,16.03718701171875,4.107528046875,15.89258701171875Q3.962868046875,15.74788701171875,3.825488046875,15.59638701171875Q3.688108046875,15.44478701171875,3.5583280468750003,15.28658701171875Q3.428548046875,15.12848701171875,3.306688046875,14.96418701171875Q3.184818046875,14.79988701171875,3.071168046875,14.62978701171875Q2.957518046875,14.45968701171875,2.852338046875,14.28418701171875Q2.747168046875,14.10878701171875,2.6507370468750002,13.92828701171875Q2.554303046875,13.74788701171875,2.466837046875,13.56298701171875Q2.379371046875,13.37808701171875,2.301085046875,13.18908701171875Q2.222799046875,13.00008701171875,2.153881046875,12.80738701171875Q2.084963046875,12.61478701171875,2.025579046875,12.41908701171875Q1.966194046875,12.22328701171875,1.916488046875,12.02488701171875Q1.866781046875,11.82638701171875,1.826871046875,11.62577701171875Q1.786961046875,11.42512701171875,1.756943746875,11.22277701171875Q1.726926846875,11.02041701171875,1.706875346875,10.81682701171875Q1.686823746875,10.61324701171875,1.676785946875,10.40891701171875Q1.666748046875,10.20459701171875,1.666748046875,10.00001701171875Q1.666748046875,9.79544701171875,1.676785946875,9.59112701171875Q1.686823746875,9.38679701171875,1.706875346875,9.18320701171875Q1.726926846875,8.979627011718751,1.756943746875,8.777267011718749Q1.786961046875,8.57490701171875,1.826871046875,8.37426701171875Q1.866781046875,8.17362701171875,1.916488046875,7.97518701171875Q1.966194046875,7.77674701171875,2.025579046875,7.58097701171875Q2.084963046875,7.38521701171875,2.153881046875,7.19260701171875Q2.222799046875,6.99998701171875,2.301085046875,6.81098701171875Q2.379371046875,6.62198701171875,2.466837046875,6.43705701171875Q2.554303046875,6.25212701171875,2.6507370468750002,6.07171701171875Q2.747168046875,5.89129701171875,2.852338046875,5.71582701171875Q2.957518046875,5.54036701171875,3.071168046875,5.3702670117187505Q3.184818046875,5.2001770117187505,3.306688046875,5.03585701171875Q3.428548046875,4.87154701171875,3.5583280468750003,4.7134070117187505Q3.688108046875,4.555277011718751,3.825488046875,4.40369701171875Q3.962868046875,4.252117011718751,4.107528046875,4.10746701171875Q4.252178046875001,3.96280701171875,4.403758046875,3.82542701171875Q4.555338046875001,3.68804701171875,4.7134680468750005,3.5582670117187503Q4.871608046875,3.42848701171875,5.035918046875,3.30662701171875Q5.2002380468750005,3.18475701171875,5.3703280468750005,3.07110701171875Q5.540428046875,2.95745701171875,5.715888046875,2.85227701171875Q5.891358046875,2.74710701171875,6.071778046875,2.6506760117187502Q6.252188046875,2.55424201171875,6.437118046875,2.46677601171875Q6.622048046875,2.37931001171875,6.811048046875,2.30102401171875Q7.000048046875,2.22273801171875,7.192668046875,2.15382001171875Q7.385278046875,2.08490201171875,7.581038046875,2.02551801171875Q7.776808046875,1.96613301171875,7.975248046875,1.91642701171875Q8.173688046875,1.86672001171875,8.374328046875,1.82681001171875Q8.574968046875,1.78690001171875,8.777328046874999,1.75688271171875Q8.979688046875001,1.72686581171875,9.183268046875,1.70681431171875Q9.386858046875,1.68676271171875,9.591188046875,1.67672491171875Q9.795508046875,1.66668701171875,10.000078046875,1.66668701171875Q10.204658046875,1.66668701171875,10.408978046875,1.67672491171875Q10.613308046875,1.68676271171875,10.816888046875,1.70681431171875Q11.020478046875,1.72686581171875,11.222838046875,1.75688271171875Q11.425188046875,1.78690001171875,11.625838046875,1.82681001171875Q11.826448046875,1.86672001171875,12.024948046875,1.91642701171875Q12.223348046875,1.96613301171875,12.419148046875,2.02551801171875Q12.614848046875,2.08490201171875,12.807448046875,2.15382001171875Q13.000148046875,2.22273801171875,13.189148046875,2.30102401171875Q13.378148046875,2.37931001171875,13.563048046875,2.46677601171875Q13.747948046875,2.55424201171875,13.928348046875,2.6506760117187502Q14.108848046875,2.74710701171875,14.284248046875,2.85227701171875Q14.459748046875,2.95745701171875,14.629848046875,3.07110701171875Q14.799948046875,3.18475701171875,14.964248046875,3.30662701171875Q15.128548046875,3.42848701171875,15.286648046875,3.5582670117187503Q15.444848046875,3.68804701171875,15.596448046875,3.82542701171875Q15.747948046875,3.96280701171875,15.892648046875,4.10746701171875Q16.037248046875,4.252117011718751,16.174648046875,4.40369701171875Q16.312048046875,4.555277011718751,16.441848046875002,4.7134070117187505Q16.571648046874998,4.87154701171875,16.693448046874998,5.03585701171875Q16.815348046875002,5.2001770117187505,16.928948046875,5.3702670117187505Q17.042648046875,5.54036701171875,17.147848046874998,5.71582701171875Q17.252948046874998,5.89129701171875,17.349448046875,6.07171701171875Q17.445848046875,6.25212701171875,17.533348046875,6.43705701171875Q17.620748046875,6.62198701171875,17.699048046875,6.81098701171875Q17.777348046875,6.99998701171875,17.846248046875,7.19260701171875Q17.915248046875,7.38521701171875,17.974548046875,7.58097701171875Q18.033948046875,7.77674701171875,18.083648046875,7.97518701171875Q18.133348046875,8.17362701171875,18.173248046875,8.37426701171875Q18.213248046875,8.57490701171875,18.243248046875,8.777267011718749Q18.273248046875,8.979627011718751,18.293248046875,9.18320701171875Q18.313348046875,9.38679701171875,18.323348046875,9.59112701171875Q18.333448046875,9.79544701171875,18.333448046875,10.00001701171875Z" fill="#FFFFFF" fill-opacity="0.009999999776482582"/><path d="M1.861120046875,6.56153701171875Q1.166748046875,8.203217011718749,1.166748046875,10.00001701171875Q1.166748046875,11.79678701171875,1.861120046875,13.43848701171875Q2.5316430468749997,15.02378701171875,3.753968046875,16.24608701171875Q4.976288046875,17.46848701171875,6.561598046875,18.13898701171875Q8.203268046875,18.83338701171875,10.000078046875,18.83338701171875Q11.796848046875,18.83338701171875,13.438548046875,18.13898701171875Q15.023848046875,17.46848701171875,16.246148046875,16.24608701171875Q17.468548046875,15.02378701171875,18.139048046875,13.43848701171875Q18.833448046875,11.79678701171875,18.833448046875,10.00001701171875Q18.833448046875,8.20320701171875,18.139048046875,6.56153701171875Q17.468548046875,4.97622701171875,16.246148046875,3.75390701171875Q15.023848046875,2.53158001171875,13.438548046875,1.86105901171875Q11.796848046875,1.16668701171875,10.000078046875,1.16668701171875Q8.203278046874999,1.16668701171875,6.561598046875,1.86105901171875Q4.976298046875,2.53158301171875,3.753968046875,3.75390701171875Q2.531644046875,4.97623701171875,1.861120046875,6.56153701171875ZM4.461078046875,15.53898701171875Q2.166748046875,13.24468701171875,2.166748046875,10.00001701171875Q2.166748046875,6.75534701171875,4.461078046875,4.46101701171875Q6.755408046875,2.16668701171875,10.000078046875,2.16668701171875Q13.244748046875,2.16668701171875,15.539048046875,4.46101701171875Q17.833448046875,6.75533701171875,17.833448046875,10.00001701171875Q17.833448046875,13.24468701171875,15.539048046875,15.53898701171875Q13.244748046875,17.83338701171875,10.000078046875,17.83338701171875Q6.755408046875,17.83338701171875,4.461078046875,15.53898701171875Z" fill-rule="evenodd" fill="#FFFFFF" fill-opacity="1"/></g><g><path d="M12.710476406249999,7.99674637109375L12.710666406249999,7.99655837109375Q12.780986406250001,7.92623237109375,12.81904640625,7.83434737109375Q12.85710640625,7.74246157109375,12.85710640625,7.64300537109375Q12.85710640625,7.54354917109375,12.81904640625,7.45166337109375Q12.780986406250001,7.35977837109375,12.710666406249999,7.28945237109375L12.710376406249999,7.28916637109375Q12.70837640625,7.28716537109375,12.706346406249999,7.28518737109375L12.70605640625,7.28490537109375Q12.63602640625,7.21666837109375,12.54545640625,7.17983737109375Q12.45488640625,7.14300537109375,12.35710640625,7.14300537109375Q12.25765640625,7.14300537109375,12.16576640625,7.18106537109375Q12.073876406250001,7.21912537109375,12.00355640625,7.28945237109375L12.003366406249999,7.28963937109375L7.28970040625,12.003305371093749L7.28951340625,12.00349537109375Q7.21918640625,12.073815371093751,7.18112640625,12.16570537109375Q7.14306640625,12.25759537109375,7.14306640625,12.35704537109375Q7.14306640625,12.456505371093751,7.18112640625,12.548385371093751Q7.21918640625,12.64027537109375,7.28951340625,12.710605371093749Q7.35983940625,12.780925371093751,7.45172440625,12.81898537109375Q7.54361020625,12.85704537109375,7.64306640625,12.85704537109375Q7.74252260625,12.85704537109375,7.83440840625,12.81898537109375Q7.92629340625,12.780925371093751,7.99661940625,12.710605371093749L7.99680740625,12.710415371093749L12.710476406249999,7.99674637109375Z" fill-rule="evenodd" fill="#FFFFFF" fill-opacity="1"/></g><g><path d="M12.00329640625,12.71034537109375L12.00355640625,12.710605371093749Q12.073876406250001,12.780925371093751,12.16576640625,12.81898537109375Q12.25765640625,12.85704537109375,12.35710640625,12.85704537109375Q12.456566406250001,12.85704537109375,12.548446406250001,12.81898537109375Q12.64033640625,12.780925371093751,12.710666406249999,12.710605371093749Q12.780986406250001,12.64027537109375,12.81904640625,12.548385371093751Q12.85710640625,12.456505371093751,12.85710640625,12.35704537109375Q12.85710640625,12.25759537109375,12.81904640625,12.16570537109375Q12.780986406250001,12.073815371093751,12.710666406249999,12.00349537109375L7.99661940625,7.28945237109375Q7.92629340625,7.21912537109375,7.83440840625,7.18106537109375Q7.74252260625,7.14300537109375,7.64306640625,7.14300537109375Q7.54361020625,7.14300537109375,7.45172440625,7.18106537109375Q7.35983940625,7.21912537109375,7.28951340625,7.28945237109375Q7.21918640625,7.35977837109375,7.18112640625,7.45166337109375Q7.14306640625,7.54354917109375,7.14306640625,7.64300537109375Q7.14306640625,7.74246157109375,7.18112640625,7.83434737109375Q7.21918640625,7.92623237109375,7.28951340625,7.99655837109375L12.00329640625,12.71034537109375Z" fill-rule="evenodd" fill="#FFFFFF" fill-opacity="1"/></g></g></svg>