<svg xmlns="http://www.w3.org/2000/svg" xmlns:xlink="http://www.w3.org/1999/xlink" fill="none" version="1.1" width="40" height="40" viewBox="0 0 40 40"><defs><clipPath id="master_svg0_2537_2068"><rect x="0" y="0" width="40" height="40" rx="0"/></clipPath><clipPath id="master_svg1_2560_2105"><rect x="0" y="0" width="40" height="40" rx="0"/></clipPath></defs><g style="opacity:0.800000011920929;" clip-path="url(#master_svg0_2537_2068)"><g clip-path="url(#master_svg1_2560_2105)"><g><path d="M20.736374969116213,11.763553253860474L20.736383769116213,11.763563253860474Q21.39482396911621,12.422033253860473,22.58075396911621,12.581473253860473Q23.21441396911621,12.666663253860474,25.00000396911621,12.666663253860474Q26.78559396911621,12.666663253860474,27.41924396911621,12.581473253860473Q28.60518396911621,12.422033253860473,29.26361396911621,11.763563253860474Q29.92204396911621,11.105113253860473,30.081483969116213,9.919223253860473Q30.16666396911621,9.285583253860473,30.16666396911621,7.5000032538604735Q30.16666396911621,5.714423253860474,30.081483969116213,5.080773253860474Q29.92204396911621,3.8948872538604737,29.26362396911621,3.2364459538604735Q28.60518396911621,2.5779692538604735,27.41924396911621,2.418525253860474Q26.78558396911621,2.3333332538604736,25.00000396911621,2.3333332538604736Q23.21441396911621,2.3333332538604736,22.58075396911621,2.418525253860474Q21.39481496911621,2.577968253860474,20.736384069116212,3.236436553860474Q20.07795296911621,3.8948862538604736,19.918520969116212,5.080773253860474Q19.83333396911621,5.714423253860474,19.83333396911621,7.5000032538604735Q19.83333396911621,9.285583253860473,19.918520969116212,9.919223253860473Q20.077950969116213,11.105103253860474,20.736374969116213,11.763553253860474ZM22.84724396911621,10.599313253860473Q22.33116396911621,10.529923253860474,22.15062396911621,10.349383253860474L22.15061396911621,10.349373253860474Q21.97007396911621,10.168813253860474,21.900683969116212,9.652743253860475Q21.83333396911621,9.151743253860474,21.83333396911621,7.5000032538604735Q21.83333396911621,5.848253253860474,21.900683969116212,5.347263253860474Q21.97007396911621,4.831183253860473,22.15061396911621,4.650633253860473Q22.33116396911621,4.470073253860473,22.84724396911621,4.4006932538604735Q23.34825396911621,4.333333253860474,25.00000396911621,4.333333253860474Q26.65174396911621,4.333333253860474,27.152753969116212,4.4006932538604735Q27.66884396911621,4.470073253860473,27.84937396911621,4.6506232538604735Q28.02993396911621,4.831183253860473,28.09931396911621,5.347263253860474Q28.16666396911621,5.848253253860474,28.16666396911621,7.5000032538604735Q28.16666396911621,9.151743253860474,28.09931396911621,9.652743253860475Q28.02993396911621,10.168813253860474,27.84938396911621,10.349373253860474Q27.66884396911621,10.529923253860474,27.152753969116212,10.599313253860473Q26.65174396911621,10.666663253860474,25.00000396911621,10.666663253860474Q23.34825396911621,10.666663253860474,22.84724396911621,10.599313253860473Z" fill-rule="evenodd" fill="#FFFFFF" fill-opacity="1" style="mix-blend-mode:passthrough"/></g><g><path d="M19.918520969116212,34.91924396911621Q20.077953969116212,36.10516396911621,20.736394669116212,36.76360396911621Q21.39483396911621,37.42204396911621,22.580763969116212,37.58148396911621Q23.21441396911621,37.666663969116215,25.00000396911621,37.666663969116215Q26.78558396911621,37.666663969116215,27.41924396911621,37.58148396911621Q28.605163969116212,37.42204396911621,29.26360396911621,36.76360396911621Q29.92204396911621,36.10516396911621,30.081483969116213,34.91924396911621Q30.16666396911621,34.28558396911621,30.16666396911621,32.50000396911621Q30.16666396911621,30.71441396911621,30.081483969116213,30.080763969116212Q29.92204396911621,28.89483196911621,29.26360396911621,28.23639356911621Q28.605163969116212,27.577953969116212,27.41923396911621,27.418520969116212Q26.78558396911621,27.33333396911621,25.00000396911621,27.33333396911621Q23.21441396911621,27.33333396911621,22.580763969116212,27.418520969116212Q21.39483396911621,27.577953969116212,20.73639386911621,28.23639416911621Q20.077953969116212,28.89483396911621,19.918520969116212,30.080763969116212Q19.83333396911621,30.71441396911621,19.83333396911621,32.50000396911621Q19.83333396911621,34.28558396911621,19.918520969116212,34.91924396911621ZM22.84724396911621,35.59931396911621Q22.331143969116212,35.529933969116215,22.15060396911621,35.349393969116214Q21.97007396911621,35.16885396911621,21.900683969116212,34.65276396911621Q21.83333396911621,34.151753969116214,21.83333396911621,32.50000396911621Q21.83333396911621,30.84825396911621,21.900683969116212,30.34724396911621Q21.97007396911621,29.831143969116212,22.15060396911621,29.65060396911621Q22.331143969116212,29.47007396911621,22.84724396911621,29.400683969116212Q23.34825396911621,29.33333396911621,25.00000396911621,29.33333396911621Q26.65175396911621,29.33333396911621,27.15276396911621,29.400683969116212Q27.66885396911621,29.47007396911621,27.84939396911621,29.65060396911621Q28.02993396911621,29.831143969116212,28.09931396911621,30.34724396911621Q28.16666396911621,30.84824396911621,28.16666396911621,32.50000396911621Q28.16666396911621,34.151753969116214,28.09931396911621,34.65276396911621Q28.02992396911621,35.16885396911621,27.84939396911621,35.349393969116214Q27.66885396911621,35.529933969116215,27.15276396911621,35.59931396911621Q26.65175396911621,35.666663969116215,25.00000396911621,35.666663969116215Q23.34825396911621,35.666663969116215,22.84724396911621,35.59931396911621Z" fill-rule="evenodd" fill="#FFFFFF" fill-opacity="1" style="mix-blend-mode:passthrough"/></g><g><path d="M2.4521952538604737,22.89812Q2.6695072538604734,24.28358,3.5367542538604737,25.027L3.5368482538604735,25.0271Q4.3564932538604735,25.729599999999998,5.851813253860474,25.901899999999998Q6.703113253860474,26,9.166673253860473,26Q11.630223253860473,26,12.481513253860474,25.901899999999998Q13.976833253860473,25.729599999999998,14.796533253860474,25.027Q15.663833253860474,24.28358,15.881133253860474,22.89812Q16.000033253860472,22.14033,16.000033253860472,20Q16.000033253860472,17.85967,15.881133253860474,17.101869999999998Q15.663833253860474,15.716377,14.796533253860474,14.9729718Q13.976833253860473,14.270428,12.481523253860473,14.098104Q11.630223253860473,14,9.166663253860474,14Q6.703103253860474,14,5.851803253860474,14.098104Q4.356463253860474,14.270428,3.5368062538604734,14.972978Q2.6695142538604735,15.716376,2.4521952538604737,17.101869999999998Q2.3333332538604736,17.85967,2.3333332538604736,20Q2.3333332538604736,22.14032,2.4521952538604737,22.89812ZM6.080763253860473,23.91505Q5.1934632538604735,23.81281,4.838443253860474,23.50862L4.838353253860474,23.50854Q4.531063253860474,23.24503,4.428033253860473,22.58821Q4.333333253860474,21.98443,4.333333253860474,20Q4.333333253860474,18.01557,4.428033253860473,17.41179Q4.531073253860473,16.75491,4.838393253860474,16.49149Q5.193383253860474,16.18722,6.080773253860474,16.08495Q6.817963253860474,16,9.166663253860474,16Q11.515363253860473,16,12.252563253860474,16.08495Q13.139953253860474,16.18722,13.494933253860474,16.49149Q13.802233253860473,16.75491,13.905333253860473,17.41179Q14.000033253860474,18.01556,14.000033253860474,20Q14.000033253860474,21.98444,13.905333253860473,22.58821Q13.802233253860473,23.24513,13.494933253860474,23.50862Q13.139983253860473,23.8128,12.252573253860474,23.91505Q11.515373253860474,24,9.166673253860473,24Q6.817963253860474,24,6.080763253860473,23.91505Z" fill-rule="evenodd" fill="#FFFFFF" fill-opacity="1" style="mix-blend-mode:passthrough"/></g><g><path d="M14.999996984558106,8.5L20.833366984558104,8.5Q20.931866984558106,8.5,21.028466984558108,8.480785000000001Q21.125066984558103,8.46157,21.215966984558108,8.423879Q21.306966984558105,8.386188,21.388866984558106,8.33147Q21.470766984558104,8.276751,21.540466984558105,8.207107Q21.610066984558106,8.137463,21.664766984558106,8.05557Q21.719566984558107,7.973678,21.757166984558104,7.882683Q21.794866984558105,7.791689,21.814166984558106,7.69509Q21.833366984558104,7.5984914,21.833366984558104,7.5Q21.833366984558104,7.4015086,21.814166984558106,7.30491Q21.794866984558105,7.208311,21.757166984558104,7.117317Q21.719566984558107,7.026322,21.664766984558106,6.94443Q21.610066984558106,6.862537,21.540466984558105,6.792893Q21.470766984558104,6.723249,21.388866984558106,6.66853Q21.306966984558105,6.613812,21.215966984558108,6.576121Q21.125066984558103,6.53843,21.028466984558108,6.519215Q20.931866984558106,6.5,20.833366984558104,6.5L14.999996984558106,6.5Q11.185506984558106,6.5,10.092531984558105,7.230295Q9.375845984558106,7.709181,8.896968984558105,8.425855Q8.166666984558105,9.51884,8.166666984558105,13.33333L8.166666984558105,15.0003Q8.166666984558105,15.098790000000001,8.185881984558105,15.19539Q8.205096984558105,15.29199,8.242787984558106,15.38298Q8.280478984558105,15.473980000000001,8.335196984558106,15.55587Q8.389915984558105,15.63776,8.459559984558105,15.70741Q8.529203984558105,15.77705,8.611096984558106,15.83177Q8.692988984558106,15.88649,8.783983984558105,15.92418Q8.874977984558106,15.96187,8.971576984558105,15.98108Q9.068175584558105,16.0003,9.166666984558105,16.0003Q9.265158384558106,16.0003,9.361756984558106,15.98108Q9.458355984558105,15.96187,9.549349984558106,15.92418Q9.640344984558105,15.88649,9.722236984558105,15.83177Q9.804129984558106,15.77705,9.873773984558106,15.70741Q9.943417984558106,15.63776,9.998136984558105,15.55587Q10.052854984558106,15.473980000000001,10.090545984558105,15.38298Q10.128236984558106,15.29199,10.147451984558106,15.19539Q10.166666984558105,15.098790000000001,10.166666984558105,15.0003L10.166666984558105,13.33333Q10.166666984558105,10.12553,10.559896984558105,9.53701Q10.817766984558105,9.1511,11.203666984558105,8.89324Q11.792196984558105,8.5,14.999996984558106,8.5ZM29.166666984558105,6.50015L36.6656669845581,6.50015Q36.7641669845581,6.50015,36.860766984558104,6.519365Q36.95736698455811,6.53858,37.0483669845581,6.576271Q37.13936698455811,6.613962,37.221266984558106,6.668681Q37.3031669845581,6.7234,37.372766984558105,6.793043Q37.442366984558106,6.862687,37.497166984558106,6.94458Q37.5518669845581,7.026473,37.589566984558104,7.1174669999999995Q37.627266984558105,7.208461,37.6464669845581,7.30506Q37.6656669845581,7.4016588,37.6656669845581,7.500150204Q37.6656669845581,7.5986416,37.6464669845581,7.695241Q37.627266984558105,7.791839,37.589566984558104,7.882834Q37.5518669845581,7.973828,37.497166984558106,8.05572Q37.442366984558106,8.137613,37.372766984558105,8.207257Q37.3031669845581,8.276901,37.221266984558106,8.331620000000001Q37.13936698455811,8.386339,37.0483669845581,8.42403Q36.95736698455811,8.461721,36.860766984558104,8.480935Q36.7641669845581,8.50015,36.6656669845581,8.50015L29.166666984558105,8.50015Q29.068166984558104,8.50015,28.971566984558105,8.480935Q28.874966984558107,8.461721,28.783966984558106,8.42403Q28.692966984558105,8.386339,28.611066984558107,8.331620000000001Q28.529166984558106,8.276901,28.459566984558105,8.207257Q28.389866984558104,8.137613,28.335166984558107,8.05572Q28.280466984558107,7.973828,28.242766984558106,7.882834Q28.205066984558105,7.791839,28.185866984558107,7.695241Q28.166666984558105,7.5986416,28.166666984558105,7.500150204Q28.166666984558105,7.4016588,28.185866984558107,7.30506Q28.205066984558105,7.208461,28.242766984558106,7.1174669999999995Q28.280466984558107,7.026473,28.335166984558107,6.94458Q28.389866984558104,6.862687,28.459566984558105,6.793043Q28.529166984558106,6.7234,28.611066984558107,6.668681Q28.692966984558105,6.613962,28.783966984558106,6.576271Q28.874966984558107,6.53858,28.971566984558105,6.519365Q29.068166984558104,6.50015,29.166666984558105,6.50015ZM8.166666984558105,25.0005Q8.166666984558105,24.902,8.185881984558105,24.8054Q8.205096984558105,24.7088,8.242787984558106,24.6178Q8.280478984558105,24.5268,8.335196984558106,24.4449Q8.389915984558105,24.363,8.459559984558105,24.2934Q8.529203984558105,24.2237,8.611096984558106,24.169Q8.692988984558106,24.1143,8.783983984558105,24.0766Q8.874977984558106,24.0389,8.971576984558105,24.0197Q9.068175584558105,24.0005,9.166666984558105,24.0005Q9.265158384558106,24.0005,9.361756984558106,24.0197Q9.458355984558105,24.0389,9.549349984558106,24.0766Q9.640344984558105,24.1143,9.722236984558105,24.169Q9.804129984558106,24.2237,9.873773984558106,24.2934Q9.943417984558106,24.363,9.998136984558105,24.4449Q10.052854984558106,24.5268,10.090545984558105,24.6178Q10.128236984558106,24.7088,10.147451984558106,24.8054Q10.166666984558105,24.902,10.166666984558105,25.0005L10.166666984558105,26.6675Q10.166666984558105,29.8753,10.559926984558105,30.4638Q10.817766984558105,30.8497,11.203706984558107,31.1076Q11.792216984558106,31.5008,14.999996984558106,31.5008L20.833366984558104,31.5008Q20.931866984558106,31.5008,21.028466984558108,31.52Q21.125066984558103,31.5393,21.215966984558108,31.577Q21.306966984558105,31.6146,21.388866984558106,31.6694Q21.470766984558104,31.7241,21.540466984558105,31.7937Q21.610066984558106,31.8634,21.664766984558106,31.9453Q21.719566984558107,32.0272,21.757166984558104,32.1181Q21.794866984558105,32.2091,21.814166984558106,32.3057Q21.833366984558104,32.4023,21.833366984558104,32.5008Q21.833366984558104,32.5993,21.814166984558106,32.6959Q21.794866984558105,32.792500000000004,21.757166984558104,32.8835Q21.719566984558107,32.9745,21.664766984558106,33.0564Q21.610066984558106,33.1383,21.540466984558105,33.207899999999995Q21.470766984558104,33.2776,21.388866984558106,33.332300000000004Q21.306966984558105,33.387,21.215966984558108,33.4247Q21.125066984558103,33.4624,21.028466984558108,33.4816Q20.931866984558106,33.5008,20.833366984558104,33.5008L14.999996984558106,33.5008Q11.185476984558106,33.5008,10.092487984558105,32.770399999999995Q9.375841984558106,32.2916,8.896944984558106,31.5749Q8.166666984558105,30.482,8.166666984558105,26.6675L8.166666984558105,25.0005ZM29.166666984558105,31.5007L36.6656669845581,31.5007Q36.7641669845581,31.5007,36.860766984558104,31.5199Q36.95736698455811,31.5391,37.0483669845581,31.5768Q37.13936698455811,31.6145,37.221266984558106,31.6692Q37.3031669845581,31.7239,37.372766984558105,31.7936Q37.442366984558106,31.8632,37.497166984558106,31.9451Q37.5518669845581,32.027,37.589566984558104,32.117999999999995Q37.627266984558105,32.209,37.6464669845581,32.3056Q37.6656669845581,32.4022,37.6656669845581,32.500699999999995Q37.6656669845581,32.599199999999996,37.6464669845581,32.6958Q37.627266984558105,32.7924,37.589566984558104,32.8833Q37.5518669845581,32.9743,37.497166984558106,33.056200000000004Q37.442366984558106,33.1381,37.372766984558105,33.2078Q37.3031669845581,33.2774,37.221266984558106,33.3321Q37.13936698455811,33.3869,37.0483669845581,33.424499999999995Q36.95736698455811,33.462199999999996,36.860766984558104,33.4815Q36.7641669845581,33.500699999999995,36.6656669845581,33.500699999999995L29.166666984558105,33.500699999999995Q29.068166984558104,33.500699999999995,28.971566984558105,33.4815Q28.874966984558107,33.462199999999996,28.783966984558106,33.424499999999995Q28.692966984558105,33.3869,28.611066984558107,33.3321Q28.529166984558106,33.2774,28.459566984558105,33.2078Q28.389866984558104,33.1381,28.335166984558107,33.056200000000004Q28.280466984558107,32.9743,28.242766984558106,32.8834Q28.205066984558105,32.7924,28.185866984558107,32.6958Q28.166666984558105,32.599199999999996,28.166666984558105,32.500699999999995Q28.166666984558105,32.4022,28.185866984558107,32.3056Q28.205066984558105,32.209,28.242766984558106,32.117999999999995Q28.280466984558107,32.027,28.335166984558107,31.9451Q28.389866984558104,31.8632,28.459566984558105,31.7936Q28.529166984558106,31.7239,28.611066984558107,31.6692Q28.692966984558105,31.6145,28.783966984558106,31.5768Q28.874966984558107,31.5391,28.971566984558105,31.5199Q29.068166984558104,31.5007,29.166666984558105,31.5007Z" fill-rule="evenodd" fill="#FFFFFF" fill-opacity="1" style="mix-blend-mode:passthrough"/></g></g></g></svg>