<svg xmlns="http://www.w3.org/2000/svg" xmlns:xlink="http://www.w3.org/1999/xlink" fill="none" version="1.1" width="48" height="48" viewBox="0 0 48 48"><defs><clipPath id="master_svg0_1672_00432"><rect x="14" y="12" width="24" height="24" rx="0"/></clipPath></defs><g><g style="opacity:0.6000000238418579;"><rect x="0" y="0" width="48" height="48" rx="8" fill="#FFFFFF" fill-opacity="0.009999999776482582"/><rect x="0.5" y="0.5" width="47" height="47" rx="7.5" fill-opacity="0" stroke-opacity="0.6000000238418579" stroke="#FFFFFF" fill="none" stroke-width="1"/></g><g style="opacity:0.6000000238418579;" clip-path="url(#master_svg0_1672_00432)"><g><g></g><g><path d="M17.973819322998047,24.96552L19.469672322998047,23.46967Q19.521902322998045,23.417437,19.583322322998047,23.376398000000002Q19.64474232299805,23.335359,19.712982322998048,23.30709Q19.781232322998047,23.278822,19.853682322998047,23.264411Q19.926132322998047,23.25,20.000002322998046,23.25Q20.073872322998046,23.25,20.146312322998046,23.264411Q20.218762322998046,23.278822,20.287012322998045,23.30709Q20.355262322998048,23.335359,20.416682322998046,23.376398000000002Q20.478092322998048,23.417437,20.530332322998046,23.46967L25.53033232299805,28.46967Q25.582562322998047,28.5219,25.623602322998046,28.58332Q25.66464232299805,28.64474,25.692912322998048,28.712989999999998Q25.721172322998047,28.78123,25.735592322998045,28.85368Q25.750002322998046,28.92613,25.750002322998046,29Q25.750002322998046,29.07387,25.735592322998045,29.14632Q25.721172322998047,29.21877,25.692912322998048,29.287010000000002Q25.66464232299805,29.35526,25.623602322998046,29.41668Q25.582562322998047,29.4781,25.53033232299805,29.53033L24.030332322998046,31.03033Q22.789872322998047,32.31187,20.994202322998046,32.32645Q19.198532322998048,32.34103,17.928754322998046,31.07125Q16.658978322998045,29.801470000000002,16.673554322998047,28.0058Q16.688104322998047,26.21328,17.973819322998047,24.96552ZM18.173504322998046,28.01798Q18.182979322998047,26.85075,19.021652322998047,26.03887L19.030332322998046,26.03033L20.000002322998046,25.06066L23.939342322998048,29L22.969672322998047,29.96967Q22.149252322998045,30.81702,20.98202232299805,30.8265Q19.814792322998045,30.83597,18.989412322998046,30.01059Q18.164030322998048,29.185200000000002,18.173504322998046,28.01798Z" fill-rule="evenodd" fill="#FFFFFF" fill-opacity="1"/></g><g><path d="M32.02623,23.034432322998047L30.53033,24.53033232299805Q30.42484,24.635822322998045,30.287010000000002,24.692912322998048Q30.14918,24.750002322998046,30,24.750002322998046Q29.85081,24.750002322998046,29.712989999999998,24.692912322998048Q29.57516,24.635822322998045,29.46967,24.53033232299805L24.46967,19.530332322998046Q24.417437,19.478092322998048,24.376398000000002,19.416672322998046Q24.335359,19.355262322998048,24.30709,19.287012322998045Q24.278822,19.218762322998046,24.264411,19.146322322998046Q24.25,19.073872322998046,24.25,19.000002322998046Q24.25,18.926132322998047,24.264411,18.853682322998047Q24.278822,18.781232322998047,24.30709,18.712982322998048Q24.335359,18.64474232299805,24.376398000000002,18.583322322998047Q24.417437,18.521902322998045,24.46967,18.469672322998047L25.96967,16.96967032299805Q27.21013,15.688129322998046,29.0058,15.673554322998047Q30.801470000000002,15.658978322998047,32.07125,16.92875332299805Q33.34102,18.198532322998048,33.32645,19.994202322998046Q33.31189,21.786682322998047,32.02623,23.034432322998047ZM31.8265,19.98202232299805Q31.81702,21.149252322998045,30.97835,21.961132322998047L30.96967,21.969672322998047L30,22.939342322998048L26.06066,19.000002322998046L27.03033,18.030332322998046Q27.85075,17.182979322998047,29.01798,17.173504322998046Q30.185200000000002,17.164030322998048,31.01059,17.989412322998046Q31.83597,18.814792322998045,31.8265,19.98202232299805Z" fill-rule="evenodd" fill="#FFFFFF" fill-opacity="1"/></g><g><path d="M19.03033,31.03033Q19.13582,30.924841,19.19291,30.787013Q19.25,30.649184,19.25,30.5Q19.25,30.4261315,19.235590000000002,30.353682Q19.22118,30.281233,19.19291,30.212987Q19.16464,30.144742,19.1236,30.083322Q19.08256,30.021903000000002,19.03033,29.96967Q18.9781,29.917437,18.91668,29.876398000000002Q18.85526,29.835359,18.78701,29.80709Q18.71877,29.778822,18.64632,29.764411Q18.57387,29.75,18.5,29.75Q18.35082,29.75,18.21299,29.80709Q18.07516,29.864181,17.96967,29.96967L17.96952,29.969824L15.469824,32.46952L15.46967,32.46967Q15.364181,32.57516,15.30709,32.71299Q15.25,32.85082,15.25,33Q15.25,33.07387,15.264410999999999,33.14632Q15.278822,33.21877,15.30709,33.28701Q15.335359,33.35526,15.376398,33.41668Q15.417437,33.4781,15.46967,33.53033Q15.521903,33.58256,15.583322,33.6236Q15.644742,33.66464,15.712987,33.69291Q15.781233,33.72118,15.853682,33.73559Q15.9261315,33.75,16,33.75Q16.149184,33.75,16.287013,33.69291Q16.424841,33.63582,16.53033,33.53033L16.530625,33.53004L19.03033,31.03033L19.03033,31.03033Z" fill-rule="evenodd" fill="#FFFFFF" fill-opacity="1"/></g><g><path d="M34.53033,15.53033Q34.63582,15.424841,34.69291,15.287013Q34.75,15.149184,34.75,15Q34.75,14.9261315,34.73559,14.853682Q34.72118,14.781233,34.69291,14.712987Q34.66464,14.644742,34.6236,14.583322Q34.58256,14.521903,34.53033,14.46967Q34.4781,14.417437,34.41668,14.376398Q34.35526,14.335359,34.28701,14.30709Q34.21877,14.278822,34.14632,14.264410999999999Q34.07387,14.25,34,14.25Q33.85082,14.25,33.71299,14.30709Q33.57516,14.364181,33.46967,14.46967L33.46952,14.469824L30.969824,16.96952L30.96967,16.96967Q30.864181,17.07516,30.80709,17.21299Q30.75,17.35082,30.75,17.5Q30.75,17.57387,30.764411,17.64632Q30.778822,17.71877,30.80709,17.78701Q30.835359,17.85526,30.876398000000002,17.91668Q30.917437,17.9781,30.96967,18.03033Q31.021903000000002,18.08256,31.083322,18.1236Q31.144742,18.16464,31.212987,18.19291Q31.281233,18.22118,31.353682,18.235590000000002Q31.4261315,18.25,31.5,18.25Q31.649184,18.25,31.787013,18.19291Q31.924841,18.13582,32.03033,18.03033L32.030625,18.03004L34.53033,15.53033L34.53033,15.53033Z" fill-rule="evenodd" fill="#FFFFFF" fill-opacity="1"/></g><g><path d="M23.53033,23.53033Q23.63582,23.424841,23.69291,23.287013Q23.75,23.149184,23.75,23Q23.75,22.9261315,23.735590000000002,22.853682Q23.72118,22.781233,23.69291,22.712987Q23.66464,22.644742,23.6236,22.583322Q23.58256,22.521903000000002,23.53033,22.46967Q23.4781,22.417437,23.41668,22.376398000000002Q23.35526,22.335359,23.28701,22.30709Q23.21877,22.278822,23.14632,22.264411Q23.07387,22.25,23,22.25Q22.85082,22.25,22.71299,22.30709Q22.57516,22.364181,22.46967,22.46967L22.46952,22.469824L20.469824,24.46952L20.46967,24.46967Q20.364181,24.57516,20.30709,24.71299Q20.25,24.85082,20.25,25Q20.25,25.07387,20.264411,25.14632Q20.278822,25.21877,20.30709,25.28701Q20.335359,25.35526,20.376398000000002,25.41668Q20.417437,25.4781,20.46967,25.53033Q20.521903000000002,25.58256,20.583322,25.6236Q20.644742,25.66464,20.712987,25.69291Q20.781233,25.72118,20.853682,25.735590000000002Q20.9261315,25.75,21,25.75Q21.149184,25.75,21.287013,25.69291Q21.424841,25.63582,21.53033,25.53033L23.53033,23.53033Z" fill-rule="evenodd" fill="#FFFFFF" fill-opacity="1"/></g><g><path d="M26.53033,26.53033Q26.63582,26.424841,26.69291,26.287013Q26.75,26.149184,26.75,26Q26.75,25.9261315,26.735590000000002,25.853682Q26.72118,25.781233,26.69291,25.712987Q26.66464,25.644742,26.6236,25.583322Q26.58256,25.521903000000002,26.53033,25.46967Q26.4781,25.417437,26.41668,25.376398000000002Q26.35526,25.335359,26.28701,25.30709Q26.21877,25.278822,26.14632,25.264411Q26.07387,25.25,26,25.25Q25.85082,25.25,25.71299,25.30709Q25.57516,25.364181,25.46967,25.46967L25.46952,25.469824L23.469824,27.46952L23.46967,27.46967Q23.364181,27.57516,23.30709,27.71299Q23.25,27.85082,23.25,28Q23.25,28.07387,23.264411,28.14632Q23.278822,28.21877,23.30709,28.28701Q23.335359,28.35526,23.376398000000002,28.41668Q23.417437,28.4781,23.46967,28.53033Q23.521903000000002,28.58256,23.583322,28.6236Q23.644742,28.66464,23.712987,28.69291Q23.781233,28.72118,23.853682,28.735590000000002Q23.9261315,28.75,24,28.75Q24.149184,28.75,24.287013,28.69291Q24.424841,28.63582,24.53033,28.53033L26.53033,26.53033Z" fill-rule="evenodd" fill="#FFFFFF" fill-opacity="1"/></g></g></g></g></svg>