<svg xmlns="http://www.w3.org/2000/svg" xmlns:xlink="http://www.w3.org/1999/xlink" fill="none" version="1.1" width="11.5" height="11.5" viewBox="0 0 11.5 11.5"><g><g><path d="M0.5,10.5L11,10.5Q11.0492,10.5,11.0975,10.509607Q11.1458,10.519214999999999,11.1913,10.53806Q11.2368,10.556906,11.2778,10.584265Q11.3187,10.611625,11.3536,10.646447Q11.3884,10.681269,11.4157,10.722215Q11.4431,10.763161,11.4619,10.808658Q11.4808,10.854155,11.4904,10.9024549Q11.5,10.9507543,11.5,11Q11.5,11.0492457,11.4904,11.0975451Q11.4808,11.145845,11.4619,11.191342Q11.4431,11.236839,11.4157,11.277785Q11.3884,11.318731,11.3536,11.353553Q11.3187,11.388375,11.2778,11.415735Q11.2368,11.443094,11.1913,11.46194Q11.1458,11.480785000000001,11.0975,11.490393Q11.0492,11.5,11,11.5L0.5,11.5Q0.4507543,11.5,0.4024549,11.490393Q0.354155,11.480785000000001,0.308658,11.46194Q0.263161,11.443094,0.222215,11.415735Q0.181269,11.388375,0.146447,11.353553Q0.11162499999999997,11.318731,0.08426499999999998,11.277785Q0.05690600000000001,11.236839,0.03805999999999998,11.191342Q0.019214999999999982,11.145845,0.009606999999999977,11.0975451Q0,11.0492457,0,11Q0,10.9507543,0.009606999999999977,10.9024549Q0.019214999999999982,10.854155,0.03805999999999998,10.808658Q0.05690600000000001,10.763161,0.08426499999999998,10.722215Q0.11162499999999997,10.681269,0.146447,10.646447Q0.181269,10.611625,0.222215,10.584265Q0.263161,10.556906,0.308658,10.53806Q0.354155,10.519214999999999,0.4024549,10.509607Q0.4507543,10.5,0.5,10.5Z" fill-rule="evenodd" fill="#FFFFFF" fill-opacity="1"/></g><g><path d="M7.349338046875,0.14636900000000003L7.349048046875,0.146658L1.312983046875,6.18996Q1.242754046875,6.26028,1.204751046875,6.3521Q1.166748046875,6.44392,1.166748046875,6.5433L1.166748046875,8.66667Q1.166748046875,8.71591,1.176355046875,8.76421Q1.185963046875,8.81251,1.204808046875,8.85801Q1.2236540468750001,8.9035,1.251013046875,8.94445Q1.278373046875,8.9854,1.313195046875,9.02022Q1.348017046875,9.05504,1.388963046875,9.0824Q1.429909046875,9.10976,1.4754060468749999,9.12861Q1.520903046875,9.14745,1.569202946875,9.15706Q1.617502346875,9.16667,1.666748046875,9.16667L3.800928046875,9.16667Q3.900418046875,9.16667,3.992328046875,9.12858Q4.084228046874999,9.0905,4.154558046875,9.02014L10.187048046875,2.985Q10.221848046875,2.95018,10.249198046875,2.90925Q10.276538046875,2.86831,10.295378046875,2.82282Q10.314208046875,2.77733,10.323808046875,2.72905Q10.333418046875,2.68076,10.333418046875,2.63153Q10.333418046875,2.5823,10.323808046875,2.53401Q10.314208046875,2.4857199999999997,10.295378046875,2.44024Q10.276538046875,2.39475,10.249188046875,2.35381Q10.221848046875,2.31287,10.187048046875,2.27805L8.056448046875001,0.146524Q7.986138046875,0.076183,7.894258046875,0.038102000000000025Q7.802388046875,0.000022000000000022002,7.702928046875,0Q7.603468046875,-0.00002199999999996649,7.511578046875,0.038017999999999996Q7.419678046875,0.07605800000000001,7.349338046875,0.14636900000000003ZM7.702948046875,1.2073960000000001L2.166748046875,6.75023L2.166748046875,8.16667L3.593758046875,8.16667L9.126458046875001,2.63153L7.702948046875,1.2073960000000001Z" fill-rule="evenodd" fill="#FFFFFF" fill-opacity="1"/></g></g></svg>