<svg xmlns="http://www.w3.org/2000/svg" xmlns:xlink="http://www.w3.org/1999/xlink" fill="none" version="1.1" width="40" height="40" viewBox="0 0 40 40"><defs><clip-path  id="0_2560_2067"><rect x="0" y="0" width="40" height="40" rx="0"/></clip-path ></defs><g style="opacity:0.800000011920929;"  clip-path ="url(#0_2560_2067)"><g><path d="M13.3299540234375,15.66650490625Q11.6924540234375,15.66650490625,10.6964340234375,17.66453990625L10.6955040234375,17.66640390625L8.9321140234375,21.222383906250002Q8.7235540234375,21.65170390625,8.2565240234375,21.73175390625L5.0664240234375,22.26616390625Q2.9342560234375,22.62435390625,2.4414700234374997,24.18031390625Q1.9508740234375,25.72937390625,3.4722060234375,27.26320390625L5.9518640234374995,29.76330390625Q6.3233240234375,30.13790390625,6.207184023437501,30.66040390625L5.497304023437501,33.75530390625Q4.9303840234375,36.22540390625,6.3067940234375,37.238103906250004Q7.6900240234375,38.25580390625,9.8641740234375,36.95480390625L12.8473540234375,35.17420390625Q13.3355740234375,34.887703906249996,13.8085740234375,35.17030390625L16.7990740234375,36.95540390625Q18.9811740234375,38.25490390625,20.3589740234375,37.24210390625Q21.7314740234375,36.23330390625,21.1650740234375,33.75550390625L20.4566740234375,30.667003906250002Q20.3390740234375,30.13790390625,20.7105740234375,29.763403906249998L23.1877740234375,27.26560390625Q24.7193740234375,25.73200390625,24.2240740234375,24.17851390625Q23.7286740234375,22.62445390625,21.5955740234375,22.26609390625L18.4065740234375,21.73186390625Q17.9286740234375,21.65147390625,17.7167740234375,21.21505390625L15.9578740234375,17.66828390625Q14.9703740234375,15.66650490625,13.3299540234375,15.66650490625ZM12.4863540234375,18.55682390625L12.4872840234375,18.55495390625Q12.9305940234375,17.66650390625,13.3299540234375,17.66650390625Q13.7268740234375,17.66650390625,14.1641740234375,18.55308390625L15.9249740234375,22.10363390625Q16.579874023437497,23.45269390625,18.074874023437502,23.70416390625L21.2651740234375,24.23860390625Q22.1938740234375,24.39462390625,22.3185740234375,24.78597390625Q22.4441740234375,25.17991390625,21.7725740234375,25.852383906249997L19.2905740234375,28.355003906249998Q18.1496740234375,29.50530390625,18.5043740234375,31.10100390625L19.2156740234375,34.202603906250005Q19.4892740234375,35.39930390625,19.1744740234375,35.630703906250005Q18.8651740234375,35.858003906250005,17.8223740234375,35.237003906249996L14.8336740234375,33.453003906250004Q13.3449740234375,32.56340390625,11.8352540234375,33.44920390625L8.8391140234375,35.23750390625Q7.8041740234375,35.85680390625,7.4920340234375,35.62710390625Q7.1734840234375,35.39270390625,7.4466140234375,34.20270390625L8.1565640234375,31.10760390625Q8.5127240234375,29.505403906250002,7.3720140234375,28.35510390625L4.8922140234375,25.85481390625Q4.2228000234375,25.17990390625,4.3481340234375,24.78417390625Q4.4716640234375,24.39410390625,5.3977640234374995,24.238523906250002L8.586964023437499,23.704273906250002Q10.0737240234375,23.44944390625,10.7310740234375,22.09631390625L12.4863540234375,18.55682390625Z" fill-rule="evenodd" fill="#FFFFFF" fill-opacity="1" style="mix-blend-mode:passthrough"/></g><g><path d="M27.3738140234375,4.04060309375Q27.514464023437498,3.89995109375,27.5905840234375,3.71617909375Q27.6667040234375,3.53240809375,27.6667040234375,3.33349609375Q27.6667040234375,3.23500469375,27.647494023437503,3.13840609375Q27.6282740234375,3.04180709375,27.5905840234375,2.95081309375Q27.5528940234375,2.85981809375,27.4981740234375,2.77792609375Q27.4434540234375,2.69603309375,27.3738140234375,2.62638909375Q27.3041640234375,2.55674509375,27.2222740234375,2.50202609375Q27.1403840234375,2.4473080937500002,27.0493840234375,2.40961709375Q26.9583940234375,2.37192609375,26.8617940234375,2.35271109375Q26.765194023437502,2.33349609375,26.6667040234375,2.33349609375Q26.4677940234375,2.33349609375,26.2840240234375,2.40961609375Q26.1002540234375,2.48573709375,25.9596040234375,2.62638909375L25.9592240234375,2.62676409375L17.6266420234375,10.95934609375L17.6262670234375,10.95972609375Q17.4856150234375,11.10037609375,17.4094950234375,11.28414609375Q17.3333740234375,11.46791609375,17.3333740234375,11.66682609375Q17.3333740234375,11.76531609375,17.3525890234375,11.86191609375Q17.371804023437498,11.95851609375,17.4094950234375,12.04950609375Q17.4471860234375,12.14050609375,17.5019040234375,12.22239609375Q17.5566230234375,12.30428609375,17.6262670234375,12.37393609375Q17.6959110234375,12.44357609375,17.7778040234375,12.49829609375Q17.8596960234375,12.55301609375,17.9506910234375,12.59070609375Q18.0416850234375,12.62839609375,18.1382840234375,12.64761609375Q18.2348826234375,12.66682609375,18.3333740234375,12.66682609375Q18.5322860234375,12.66682609375,18.7160570234375,12.59070609375Q18.8998290234375,12.51458609375,19.0404810234375,12.37393609375L27.3734340234375,4.04097809375L27.3738140234375,4.04060309375L27.3738140234375,4.04060309375ZM37.373774023437505,4.04060209375Q37.5144740234375,3.8999500937500002,37.5905740234375,3.71617909375Q37.6666740234375,3.53240809375,37.6666740234375,3.33349609375Q37.6666740234375,3.23500469375,37.647474023437496,3.13840609375Q37.6282740234375,3.04180709375,37.5905740234375,2.95081309375Q37.5528740234375,2.85981809375,37.4981740234375,2.77792609375Q37.4434740234375,2.69603309375,37.373774023437505,2.62638909375Q37.3041740234375,2.55674509375,37.2222740234375,2.50202609375Q37.1403740234375,2.4473080937500002,37.0493740234375,2.40961709375Q36.9583740234375,2.37192609375,36.861774023437505,2.35271109375Q36.765174023437496,2.33349609375,36.6666740234375,2.33349609375Q36.4677740234375,2.33349609375,36.2839740234375,2.40961709375Q36.1002740234375,2.48573709375,35.9595740234375,2.62639009375L22.6262640234375,15.95969609375Q22.4856140234375,16.10039609375,22.4094940234375,16.28409609375Q22.3333740234375,16.46789609375,22.3333740234375,16.66679609375Q22.3333740234375,16.765296093750003,22.3525840234375,16.861896093749998Q22.371804023437498,16.95849609375,22.4094940234375,17.04949609375Q22.4471840234375,17.140496093750002,22.5019040234375,17.22239609375Q22.5566240234375,17.30429609375,22.6262640234375,17.373896093749998Q22.6959140234375,17.44359609375,22.7778040234375,17.49829609375Q22.8596940234375,17.55299609375,22.9506940234375,17.590696093749997Q23.0416840234375,17.62839609375,23.1382840234375,17.64759609375Q23.234884023437502,17.66679609375,23.3333740234375,17.66679609375Q23.532284023437498,17.66679609375,23.7160540234375,17.590696093749997Q23.8998240234375,17.51459609375,24.0404840234375,17.373896093749998L24.0409940234375,17.37339609375L37.373774023437505,4.04060309375L37.373774023437505,4.04060209375ZM34.0404740234375,17.373896093749998Q34.1811740234375,17.23329609375,34.2572740234375,17.04949609375Q34.3333740234375,16.86569609375,34.3333740234375,16.66679609375Q34.3333740234375,16.56829609375,34.3141740234375,16.471696093749998Q34.294974023437504,16.375096093750003,34.2572740234375,16.28409609375Q34.2195740234375,16.19319609375,34.1648740234375,16.11129609375Q34.1100740234375,16.02939609375,34.0404740234375,15.95969609375Q33.9708740234375,15.89009609375,33.8889740234375,15.83539609375Q33.8070740234375,15.78059609375,33.7160740234375,15.74299609375Q33.6250740234375,15.70529609375,33.5284740234375,15.68599609375Q33.4318740234375,15.66679609375,33.3333740234375,15.66679609375Q33.1344740234375,15.66679609375,32.9506740234375,15.74299609375Q32.7668740234375,15.81909609375,32.6262740234375,15.95969609375L27.6262640234375,20.95969609375Q27.4856140234375,21.10039609375,27.4094940234375,21.28409609375Q27.3333740234375,21.46789609375,27.3333740234375,21.66679609375Q27.3333740234375,21.76529609375,27.3525840234375,21.86189609375Q27.371804023437498,21.95849609375,27.4094940234375,22.04949609375Q27.4471840234375,22.14049609375,27.5019040234375,22.22239609375Q27.5566240234375,22.30429609375,27.6262640234375,22.37389609375Q27.6959140234375,22.44359609375,27.7778040234375,22.49829609375Q27.8596940234375,22.55299609375,27.9506940234375,22.59069609375Q28.0416840234375,22.62839609375,28.1382840234375,22.64759609375Q28.234884023437502,22.66679609375,28.3333740234375,22.66679609375Q28.532274023437502,22.66679609375,28.7160740234375,22.59069609375Q28.899874023437498,22.51459609375,29.0404740234375,22.37389609375L34.0399740234375,17.37449609375L34.0404740234375,17.373896093749998Z" fill-rule="evenodd" fill="#FFFFFF" fill-opacity="1" style="mix-blend-mode:passthrough"/></g></g></svg>