<svg xmlns="http://www.w3.org/2000/svg" xmlns:xlink="http://www.w3.org/1999/xlink" fill="none" version="1.1" width="40" height="40" viewBox="0 0 40 40"><defs><clipPath id="master_svg0_1462_0686"><rect x="0" y="0" width="40" height="40" rx="0"/></clipPath></defs><g style="opacity:0.800000011920929;" clip-path="url(#master_svg0_1462_0686)"><g><path d="M11.66667,8.33333C11.66667,10.17428,10.17428,11.66667,8.33333,11.66667C6.49238,11.66667,5,10.17428,5,8.33333C5,6.49238,6.49238,5,8.33333,5C10.17428,5,11.66667,6.49238,11.66667,8.33333ZM35,8.33333C35,10.17428,33.5077,11.66667,31.6667,11.66667C29.8257,11.66667,28.3333,10.17428,28.3333,8.33333C28.3333,6.49238,29.8257,5,31.6667,5C33.5077,5,35,6.49238,35,8.33333ZM11.66667,31.6667C11.66667,33.5077,10.17428,35,8.33333,35C6.49238,35,5,33.5077,5,31.6667C5,29.8257,6.49238,28.3333,8.33333,28.3333C10.17428,28.3333,11.66667,29.8257,11.66667,31.6667ZM13.33333,8.33333C13.33333,8.61727,13.30967,8.895669999999999,13.2642,9.16667L20.8333,9.16667C21.7538,9.16667,22.5,9.91287,22.5,10.83333L22.5,15L19.1667,15C16.8655,15,15,16.8655,15,19.1667L15,22.5L10.83333,22.5C9.91287,22.5,9.16667,21.7538,9.16667,20.8333L9.16667,13.2642C8.895669999999999,13.30967,8.61727,13.33333,8.33333,13.33333C7.74893,13.33333,7.18797,13.23308,6.66667,13.04882L6.66667,20.8333C6.66667,23.1345,8.53215,25,10.83333,25L15,25L15,29.1667C15,31.4668,16.863799999999998,33.3317,19.1637,33.3333C18.8128,32.4923,18.5652,31.5977,18.4362,30.6652C17.8818,30.3943,17.5,29.8252,17.5,29.1667L17.5,19.1667C17.5,18.2462,18.2462,17.5,19.1667,17.5L29.1667,17.5C29.8252,17.5,30.3943,17.8818,30.6652,18.4362C31.5977,18.5652,32.4923,18.8128,33.3333,19.1637C33.3317,16.863799999999998,31.4668,15,29.1667,15L25,15L25,10.83333C25,8.53215,23.1345,6.66667,20.8333,6.66667L13.04882,6.66667C13.23308,7.18797,13.33333,7.74893,13.33333,8.33333ZM38.3333,29.1667C38.3333,34.229299999999995,34.229299999999995,38.3333,29.1667,38.3333C24.104,38.3333,20,34.229299999999995,20,29.1667C20,24.104,24.104,20,29.1667,20C34.229299999999995,20,38.3333,24.104,38.3333,29.1667ZM26.1785,26.6667L27.256,25.5893C27.5813,25.2638,27.5813,24.7362,27.256,24.4107C26.9305,24.0853,26.4028,24.0853,26.0773,24.4107L23.5773,26.9107C23.252,27.2362,23.252,27.7638,23.5773,28.0893L26.0773,30.5893C26.4028,30.9147,26.9305,30.9147,27.256,30.5893C27.5813,30.2638,27.5813,29.7362,27.256,29.4107L26.1785,28.3333L29.5833,28.3333C31.6543,28.3333,33.3333,30.0123,33.3333,32.0833L33.3333,32.5C33.3333,32.9602,33.7065,33.3333,34.1667,33.3333C34.6268,33.3333,35,32.9602,35,32.5L35,32.0833C35,29.0918,32.574799999999996,26.6667,29.5833,26.6667L26.1785,26.6667Z" fill="#FFFFFF" fill-opacity="1"/></g></g></svg>