<svg xmlns="http://www.w3.org/2000/svg" xmlns:xlink="http://www.w3.org/1999/xlink" fill="none" version="1.1" width="40" height="40" viewBox="0 0 40 40"><defs><clip-path  id="0_2560_2095"><rect x="0" y="0" width="40" height="40" rx="0"/></clip-path ></defs><g style="opacity:0.800000011920929;"  clip-path ="url(#0_2560_2095)"><g><path d="M3.4654255077209473,28.81996650772095Q3.945214507720947,32.38866650772095,5.778276507720947,34.22176650772094L5.778306507720947,34.22176650772094Q7.611396507720947,36.05476650772095,11.180026507720946,36.534566507720946Q13.402176507720947,36.833366507720946,19.99996650772095,36.833366507720946Q26.597766507720948,36.833366507720946,28.81996650772095,36.534566507720946Q32.38856650772095,36.05476650772095,34.22176650772094,34.22176650772094Q36.05476650772095,32.38856650772095,36.534566507720946,28.81996650772095Q36.833366507720946,26.597766507720948,36.833366507720946,19.99996650772095Q36.833366507720946,13.402186507720947,36.534566507720946,11.180026507720946Q36.05476650772095,7.611396507720947,34.22176650772094,5.778276507720947Q32.38866650772095,3.945214507720947,28.81996650772095,3.4654255077209473Q26.597766507720948,3.1666665077209473,19.99996650772095,3.1666665077209473Q13.402166507720947,3.1666665077209473,11.180026507720946,3.4654255077209473Q7.6113865077209475,3.945215507720947,5.7782865077209475,5.778296507720947Q3.945215507720947,7.6113865077209475,3.4654255077209473,11.180016507720946Q3.1666665077209473,13.402156507720948,3.1666665077209473,19.99996650772095Q3.1666665077209473,26.597766507720948,3.4654255077209473,28.81996650772095ZM11.446516507720947,34.55236650772095Q8.547716507720947,34.16266650772094,7.192526507720947,32.80756650772095L7.192496507720947,32.80756650772095Q5.837326507720947,31.452266507720946,5.447586507720947,28.553466507720948Q5.166666507720947,26.463966507720947,5.166666507720947,19.99996650772095Q5.166666507720947,13.536006507720947,5.447586507720947,11.446516507720947Q5.837326507720947,8.547696507720946,7.192506507720948,7.192506507720948Q8.547696507720946,5.837326507720947,11.446516507720947,5.447586507720947Q13.536006507720947,5.166666507720947,19.99996650772095,5.166666507720947Q26.463966507720947,5.166666507720947,28.553466507720948,5.447586507720947Q31.452366507720946,5.837326507720947,32.80756650772095,7.192526507720947Q34.16266650772094,8.547686507720947,34.55236650772095,11.446516507720947Q34.833366507720946,13.536026507720948,34.833366507720946,19.99996650772095Q34.833366507720946,26.463966507720947,34.55236650772095,28.553466507720948Q34.16266650772094,31.452366507720946,32.80756650772095,32.80756650772095Q31.452366507720946,34.16266650772094,28.553466507720948,34.55236650772095Q26.463966507720947,34.833366507720946,19.99996650772095,34.833366507720946Q13.536016507720948,34.833366507720946,11.446516507720947,34.55236650772095Z" fill-rule="evenodd" fill="#FFFFFF" fill-opacity="1" style="mix-blend-mode:passthrough"/></g><g><path d="M18.33333396911621,10.666666984558105L28.33333396911621,10.666666984558105Q28.431833969116212,10.666666984558105,28.52843396911621,10.685881984558105Q28.62503396911621,10.705096984558105,28.71603396911621,10.742787984558106Q28.807033969116212,10.780478984558105,28.88893396911621,10.835196984558106Q28.97083396911621,10.889915984558105,29.04043396911621,10.959559984558105Q29.11003396911621,11.029203984558105,29.16483396911621,11.111096984558106Q29.219533969116213,11.192988984558106,29.25723396911621,11.283983984558105Q29.29493396911621,11.374977984558106,29.314133969116213,11.471576984558105Q29.33333396911621,11.568175584558105,29.33333396911621,11.666666984558105Q29.33333396911621,11.765158384558106,29.314133969116213,11.861756984558106Q29.29493396911621,11.958355984558105,29.25723396911621,12.049349984558106Q29.219533969116213,12.140344984558105,29.16483396911621,12.222236984558105Q29.11003396911621,12.304129984558106,29.04043396911621,12.373773984558106Q28.97083396911621,12.443417984558106,28.88893396911621,12.498136984558105Q28.807033969116212,12.552854984558106,28.71603396911621,12.590545984558105Q28.62503396911621,12.628236984558106,28.52843396911621,12.647451984558106Q28.431833969116212,12.666666984558105,28.33333396911621,12.666666984558105L18.33333396911621,12.666666984558105Q18.23484256911621,12.666666984558105,18.13824396911621,12.647451984558106Q18.04164496911621,12.628236984558106,17.95065096911621,12.590545984558105Q17.85965596911621,12.552854984558106,17.77776396911621,12.498136984558105Q17.69587096911621,12.443417984558106,17.62622696911621,12.373773984558106Q17.55658296911621,12.304129984558106,17.50186396911621,12.222236984558105Q17.44714596911621,12.140344984558105,17.40945496911621,12.049349984558106Q17.37176396911621,11.958355984558105,17.35254896911621,11.861756984558106Q17.33333396911621,11.765158384558106,17.33333396911621,11.666666984558105Q17.33333396911621,11.568175584558105,17.35254896911621,11.471576984558105Q17.37176396911621,11.374977984558106,17.40945496911621,11.283983984558105Q17.44714596911621,11.192988984558106,17.50186396911621,11.111096984558106Q17.55658296911621,11.029203984558105,17.62622696911621,10.959559984558105Q17.69587096911621,10.889915984558105,17.77776396911621,10.835196984558106Q17.85965596911621,10.780478984558105,17.95065096911621,10.742787984558106Q18.04164496911621,10.705096984558105,18.13824396911621,10.685881984558105Q18.23484256911621,10.666666984558105,18.33333396911621,10.666666984558105Z" fill-rule="evenodd" fill="#FFFFFF" fill-opacity="1" style="mix-blend-mode:passthrough"/></g><g><path d="M11.666666984558105,10.666666984558105Q11.568175584558105,10.666666984558105,11.471576984558105,10.685881984558105Q11.374977984558106,10.705096984558105,11.283983984558105,10.742787984558106Q11.192988984558106,10.780478984558105,11.111096984558106,10.835196984558106Q11.029203984558105,10.889915984558105,10.959559984558105,10.959559984558105Q10.889915984558105,11.029203984558105,10.835196984558106,11.111096984558106Q10.780478984558105,11.192988984558106,10.742787984558106,11.283983984558105Q10.705096984558105,11.374977984558106,10.685881984558105,11.471576984558105Q10.666666984558105,11.568175584558105,10.666666984558105,11.666666984558105Q10.666666984558105,11.765158384558106,10.685881984558105,11.861756984558106Q10.705096984558105,11.958355984558105,10.742787984558106,12.049349984558106Q10.780478984558105,12.140344984558105,10.835196984558106,12.222236984558105Q10.889915984558105,12.304129984558106,10.959559984558105,12.373773984558106Q11.029203984558105,12.443417984558106,11.111096984558106,12.498136984558105Q11.192988984558106,12.552854984558106,11.283983984558105,12.590545984558105Q11.374977984558106,12.628236984558106,11.471576984558105,12.647451984558106Q11.568175584558105,12.666666984558105,11.666666984558105,12.666666984558105L13.333336984558105,12.666666984558105Q13.431826984558105,12.666666984558105,13.528426984558106,12.647451984558106Q13.625026984558106,12.628236984558106,13.716016984558106,12.590545984558105Q13.807006984558106,12.552854984558106,13.888906984558105,12.498136984558105Q13.970796984558106,12.443417984558106,14.040436984558106,12.373773984558106Q14.110086984558105,12.304129984558106,14.164806984558105,12.222236984558105Q14.219516984558105,12.140344984558105,14.257216984558106,12.049349984558106Q14.294906984558105,11.958355984558105,14.314116984558105,11.861756984558106Q14.333336984558105,11.765158384558106,14.333336984558105,11.666666984558105Q14.333336984558105,11.568175584558105,14.314116984558105,11.471576984558105Q14.294906984558105,11.374977984558106,14.257216984558106,11.283983984558105Q14.219516984558105,11.192988984558106,14.164806984558105,11.111096984558106Q14.110086984558105,11.029203984558105,14.040436984558106,10.959559984558105Q13.970796984558106,10.889915984558105,13.888906984558105,10.835196984558106Q13.807006984558106,10.780478984558105,13.716016984558106,10.742787984558106Q13.625026984558106,10.705096984558105,13.528426984558106,10.685881984558105Q13.431826984558105,10.666666984558105,13.333336984558105,10.666666984558105L11.666666984558105,10.666666984558105Z" fill-rule="evenodd" fill="#FFFFFF" fill-opacity="1" style="mix-blend-mode:passthrough"/></g><g><path d="M11.666666984558105,19Q11.568175584558105,19,11.471576984558105,19.019215Q11.374977984558106,19.038429999999998,11.283983984558105,19.076121Q11.192988984558106,19.113812,11.111096984558106,19.16853Q11.029203984558105,19.223249,10.959559984558105,19.292893Q10.889915984558105,19.362537,10.835196984558106,19.44443Q10.780478984558105,19.526322,10.742787984558106,19.617317Q10.705096984558105,19.708311,10.685881984558105,19.80491Q10.666666984558105,19.9015086,10.666666984558105,20Q10.666666984558105,20.0984914,10.685881984558105,20.19509Q10.705096984558105,20.291689,10.742787984558106,20.382683Q10.780478984558105,20.473678,10.835196984558106,20.55557Q10.889915984558105,20.637463,10.959559984558105,20.707107Q11.029203984558105,20.776751,11.111096984558106,20.83147Q11.192988984558106,20.886188,11.283983984558105,20.923879Q11.374977984558106,20.961570000000002,11.471576984558105,20.980785Q11.568175584558105,21,11.666666984558105,21L13.333336984558105,21Q13.431826984558105,21,13.528426984558106,20.980785Q13.625026984558106,20.961570000000002,13.716016984558106,20.923879Q13.807006984558106,20.886188,13.888906984558105,20.83147Q13.970796984558106,20.776751,14.040436984558106,20.707107Q14.110086984558105,20.637463,14.164806984558105,20.55557Q14.219516984558105,20.473678,14.257216984558106,20.382683Q14.294906984558105,20.291689,14.314116984558105,20.19509Q14.333336984558105,20.0984914,14.333336984558105,20Q14.333336984558105,19.9015086,14.314116984558105,19.80491Q14.294906984558105,19.708311,14.257216984558106,19.617317Q14.219516984558105,19.526322,14.164806984558105,19.44443Q14.110086984558105,19.362537,14.040436984558106,19.292893Q13.970796984558106,19.223249,13.888906984558105,19.16853Q13.807006984558106,19.113812,13.716016984558106,19.076121Q13.625026984558106,19.038429999999998,13.528426984558106,19.019215Q13.431826984558105,19,13.333336984558105,19L11.666666984558105,19Z" fill-rule="evenodd" fill="#FFFFFF" fill-opacity="1" style="mix-blend-mode:passthrough"/></g><g><path d="M11.666666984558105,27.33333396911621Q11.568175584558105,27.33333396911621,11.471576984558105,27.35254896911621Q11.374977984558106,27.37176396911621,11.283983984558105,27.40945496911621Q11.192988984558106,27.44714596911621,11.111096984558106,27.50186396911621Q11.029203984558105,27.55658296911621,10.959559984558105,27.62622696911621Q10.889915984558105,27.69587096911621,10.835196984558106,27.77776396911621Q10.780478984558105,27.85965596911621,10.742787984558106,27.95065096911621Q10.705096984558105,28.04164496911621,10.685881984558105,28.13824396911621Q10.666666984558105,28.23484256911621,10.666666984558105,28.33333396911621Q10.666666984558105,28.43182536911621,10.685881984558105,28.52842396911621Q10.705096984558105,28.625022969116213,10.742787984558106,28.71601696911621Q10.780478984558105,28.80701196911621,10.835196984558106,28.88890396911621Q10.889915984558105,28.97079696911621,10.959559984558105,29.04044096911621Q11.029203984558105,29.110084969116212,11.111096984558106,29.16480396911621Q11.192988984558106,29.21952196911621,11.283983984558105,29.25721296911621Q11.374977984558106,29.294903969116213,11.471576984558105,29.314118969116212Q11.568175584558105,29.33333396911621,11.666666984558105,29.33333396911621L13.333336984558105,29.33333396911621Q13.431826984558105,29.33333396911621,13.528426984558106,29.314118969116212Q13.625026984558106,29.294903969116213,13.716016984558106,29.25721296911621Q13.807006984558106,29.21952196911621,13.888906984558105,29.16480396911621Q13.970796984558106,29.110084969116212,14.040436984558106,29.04044096911621Q14.110086984558105,28.97079696911621,14.164806984558105,28.88890396911621Q14.219516984558105,28.80701196911621,14.257216984558106,28.71601696911621Q14.294906984558105,28.625022969116213,14.314116984558105,28.52842396911621Q14.333336984558105,28.43182536911621,14.333336984558105,28.33333396911621Q14.333336984558105,28.23484256911621,14.314116984558105,28.13824396911621Q14.294906984558105,28.04164496911621,14.257216984558106,27.95065096911621Q14.219516984558105,27.85965596911621,14.164806984558105,27.77776396911621Q14.110086984558105,27.69587096911621,14.040436984558106,27.62622696911621Q13.970796984558106,27.55658296911621,13.888906984558105,27.50186396911621Q13.807006984558106,27.44714596911621,13.716016984558106,27.40945496911621Q13.625026984558106,27.37176396911621,13.528426984558106,27.35254896911621Q13.431826984558105,27.33333396911621,13.333336984558105,27.33333396911621L11.666666984558105,27.33333396911621Z" fill-rule="evenodd" fill="#FFFFFF" fill-opacity="1" style="mix-blend-mode:passthrough"/></g><g><path d="M18.33333396911621,19L28.33333396911621,19Q28.431833969116212,19,28.52843396911621,19.019215Q28.62503396911621,19.038429999999998,28.71603396911621,19.076121Q28.807033969116212,19.113812,28.88893396911621,19.16853Q28.97083396911621,19.223249,29.04043396911621,19.292893Q29.11003396911621,19.362537,29.16483396911621,19.44443Q29.219533969116213,19.526322,29.25723396911621,19.617317Q29.29493396911621,19.708311,29.314133969116213,19.80491Q29.33333396911621,19.9015086,29.33333396911621,20Q29.33333396911621,20.0984914,29.314133969116213,20.19509Q29.29493396911621,20.291689,29.25723396911621,20.382683Q29.219533969116213,20.473678,29.16483396911621,20.55557Q29.11003396911621,20.637463,29.04043396911621,20.707107Q28.97083396911621,20.776751,28.88893396911621,20.83147Q28.807033969116212,20.886188,28.71603396911621,20.923879Q28.62503396911621,20.961570000000002,28.52843396911621,20.980785Q28.431833969116212,21,28.33333396911621,21L18.33333396911621,21Q18.23484256911621,21,18.13824396911621,20.980785Q18.04164496911621,20.961570000000002,17.95065096911621,20.923879Q17.85965596911621,20.886188,17.77776396911621,20.83147Q17.69587096911621,20.776751,17.62622696911621,20.707107Q17.55658296911621,20.637463,17.50186396911621,20.55557Q17.44714596911621,20.473678,17.40945496911621,20.382683Q17.37176396911621,20.291689,17.35254896911621,20.19509Q17.33333396911621,20.0984914,17.33333396911621,20Q17.33333396911621,19.9015086,17.35254896911621,19.80491Q17.37176396911621,19.708311,17.40945496911621,19.617317Q17.44714596911621,19.526322,17.50186396911621,19.44443Q17.55658296911621,19.362537,17.62622696911621,19.292893Q17.69587096911621,19.223249,17.77776396911621,19.16853Q17.85965596911621,19.113812,17.95065096911621,19.076121Q18.04164496911621,19.038429999999998,18.13824396911621,19.019215Q18.23484256911621,19,18.33333396911621,19Z" fill-rule="evenodd" fill="#FFFFFF" fill-opacity="1" style="mix-blend-mode:passthrough"/></g><g><path d="M18.33333396911621,27.33333396911621L28.33333396911621,27.33333396911621Q28.431833969116212,27.33333396911621,28.52843396911621,27.35254896911621Q28.62503396911621,27.37176396911621,28.71603396911621,27.40945496911621Q28.807033969116212,27.44714596911621,28.88893396911621,27.50186396911621Q28.97083396911621,27.55658296911621,29.04043396911621,27.62622696911621Q29.11003396911621,27.69587096911621,29.16483396911621,27.77776396911621Q29.219533969116213,27.85965596911621,29.25723396911621,27.95065096911621Q29.29493396911621,28.04164496911621,29.314133969116213,28.13824396911621Q29.33333396911621,28.23484256911621,29.33333396911621,28.33333396911621Q29.33333396911621,28.43182536911621,29.314133969116213,28.52842396911621Q29.29493396911621,28.625022969116213,29.25723396911621,28.71601696911621Q29.219533969116213,28.80701196911621,29.16483396911621,28.88890396911621Q29.11003396911621,28.97079696911621,29.04043396911621,29.04044096911621Q28.97083396911621,29.110084969116212,28.88893396911621,29.16480396911621Q28.807033969116212,29.21952196911621,28.71603396911621,29.25721296911621Q28.62503396911621,29.294903969116213,28.52843396911621,29.314118969116212Q28.431833969116212,29.33333396911621,28.33333396911621,29.33333396911621L18.33333396911621,29.33333396911621Q18.23484256911621,29.33333396911621,18.13824396911621,29.314118969116212Q18.04164496911621,29.294903969116213,17.95065096911621,29.25721296911621Q17.85965596911621,29.21952196911621,17.77776396911621,29.16480396911621Q17.69587096911621,29.110084969116212,17.62622696911621,29.04044096911621Q17.55658296911621,28.97079696911621,17.50186396911621,28.88890396911621Q17.44714596911621,28.80701196911621,17.40945496911621,28.71601696911621Q17.37176396911621,28.625022969116213,17.35254896911621,28.52842396911621Q17.33333396911621,28.43182536911621,17.33333396911621,28.33333396911621Q17.33333396911621,28.23484256911621,17.35254896911621,28.13824396911621Q17.37176396911621,28.04164496911621,17.40945496911621,27.95065096911621Q17.44714596911621,27.85965596911621,17.50186396911621,27.77776396911621Q17.55658296911621,27.69587096911621,17.62622696911621,27.62622696911621Q17.69587096911621,27.55658296911621,17.77776396911621,27.50186396911621Q17.85965596911621,27.44714596911621,17.95065096911621,27.40945496911621Q18.04164496911621,27.37176396911621,18.13824396911621,27.35254896911621Q18.23484256911621,27.33333396911621,18.33333396911621,27.33333396911621Z" fill-rule="evenodd" fill="#FFFFFF" fill-opacity="1" style="mix-blend-mode:passthrough"/></g></g></svg>