<svg xmlns="http://www.w3.org/2000/svg" xmlns:xlink="http://www.w3.org/1999/xlink" fill="none" version="1.1" width="40" height="40" viewBox="0 0 40 40"><defs><clipPath id="master_svg0_1462_0689"><rect x="0" y="0" width="40" height="40" rx="0"/></clipPath></defs><g style="opacity:0.800000011920929;" clip-path="url(#master_svg0_1462_0689)"><g><path d="M4.58867609375,19.993448046875002L8.754226093749999,20.011748046875C9.44439609375,20.014748046875,10.00142609375,20.576948046875,9.99841609375,21.267248046875C9.995596093749999,21.900048046875,9.52316609375,22.420948046875,8.91284609375,22.501048046875L8.74321609375,22.511748046875L5.8328260937500005,22.496748046875L5.8328260937500005,31.665048046875L8.748726093750001,31.666748046875C9.38137609375,31.666748046875,9.90424609375,32.136948046875,9.986996093750001,32.747048046875L9.99841609375,32.916748046875C9.99841609375,33.549548046875,9.52826609375,34.072548046875,8.918296093750001,34.155248046875L8.748726093750001,34.166748046875L4.58316609375,34.166748046875C3.95051309375,34.166748046875,3.42764599375,33.696448046875,3.34489609375,33.086448046875L3.33349609375,32.916748046875L3.33349609375,21.243248046875C3.33349609375,20.608548046875,3.80644609375,20.084548046875,4.41854609375,20.004048046875L4.58867609375,19.993448046875002ZM35.40829609375,29.166748046875C36.09849609375,29.166748046875,36.65799609375,29.726448046875,36.65799609375,30.416748046875C36.65799609375,31.049548046875,36.18779609375,31.572548046875,35.57779609375,31.655248046875L35.40829609375,31.666748046875L12.91429609375,31.666748046875C12.22411609375,31.666748046875,11.66462609375,31.107048046875,11.66462609375,30.416748046875C11.66462609375,29.783948046875,12.13476609375,29.260948046875,12.74471609375,29.178048046875L12.91429609375,29.166748046875L35.40829609375,29.166748046875ZM35.40829609375,22.500048046875C36.09849609375,22.500048046875,36.65799609375,23.059748046875,36.65799609375,23.750048046875C36.65799609375,24.382948046875,36.18779609375,24.905948046875,35.57779609375,24.988548046875L35.40829609375,25.000048046875L12.91429609375,25.000048046875C12.22411609375,25.000048046875,11.66462609375,24.440448046875,11.66462609375,23.750048046875C11.66462609375,23.117248046875,12.13476609375,22.594248046875,12.74471609375,22.511448046875L12.91429609375,22.500048046875L35.40829609375,22.500048046875ZM4.58867609375,4.166748046875L8.754226093749999,4.185114646875C9.44439609375,4.188148146875,10.00142609375,4.750265046875,9.99841609375,5.4406180468750005C9.995596093749999,6.073428046875,9.52316609375,6.594348046875,8.91284609375,6.674428046875001L8.74321609375,6.685078046875001L5.8328260937500005,6.671728046875L5.8328260937500005,15.825048046875L8.748726093750001,15.825148046875C9.38137609375,15.825148046875,9.90424609375,16.295448046875002,9.986996093750001,16.905548046874998L9.99841609375,17.075248046875C9.99841609375,17.707948046875,9.52826609375,18.230948046875,8.918296093750001,18.313748046875L8.748726093750001,18.325248046875L4.58316609375,18.325248046875C3.95051309375,18.325248046875,3.42764599375,17.854948046875002,3.34489609375,17.244748046875L3.33349609375,17.075248046875L3.33349609375,5.416728046875C3.33349609375,4.781931046875,3.80644609375,4.258031346875,4.41854609375,4.177481246875L4.58867609375,4.166748046875ZM35.40829609375,13.340598046875C36.09849609375,13.340598046875,36.65799609375,13.900228046875,36.65799609375,14.590548046875C36.65799609375,15.223448046875,36.18779609375,15.746448046875,35.57779609375,15.829148046875L35.40829609375,15.840548046875L12.91429609375,15.840548046875C12.22411609375,15.840548046875,11.66462609375,15.280948046875,11.66462609375,14.590548046875C11.66462609375,13.957768046875,12.13476609375,13.434778046875,12.74471609375,13.351998046875L12.91429609375,13.340598046875L35.40829609375,13.340598046875ZM35.41719609375,6.673928046875C36.10729609375,6.673928046875,36.66679609375,7.233568046875,36.66679609375,7.923928046875C36.66679609375,8.556748046875,36.19669609375,9.079748046875,35.58669609375,9.162518046875L35.41719609375,9.173928046875L12.92311609375,9.173928046875C12.23294609375,9.173928046875,11.67344609375,8.614278046875,11.67344609375,7.923928046875C11.67344609375,7.291098046875,12.14357609375,6.768118046875,12.75354609375,6.685328046875L12.92311609375,6.673928046875L35.41719609375,6.673928046875Z" fill="#FFFFFF" fill-opacity="1"/></g></g></svg>