<svg xmlns="http://www.w3.org/2000/svg" xmlns:xlink="http://www.w3.org/1999/xlink" fill="none" version="1.1" width="24" height="24" viewBox="0 0 24 24"><defs><clip-path  id="0_1672_00464"><rect x="0" y="0" width="24" height="24" rx="0"/></clip-path ></defs><g  clip-path ="url(#0_1672_00464)"><g><g></g><g><path d="M3.9738193229980467,12.96552L5.469672322998047,11.46967Q5.521902322998047,11.417437,5.583322322998047,11.376398Q5.644742322998047,11.335359,5.712982322998046,11.30709Q5.781232322998047,11.278822,5.853682322998047,11.264410999999999Q5.926132322998047,11.25,6.000002322998046,11.25Q6.073872322998047,11.25,6.146312322998047,11.264410999999999Q6.218762322998047,11.278822,6.287012322998047,11.30709Q6.355262322998047,11.335359,6.416682322998047,11.376398Q6.478092322998046,11.417437,6.5303323229980474,11.46967L11.530332322998047,16.46967Q11.582562322998047,16.5219,11.623602322998046,16.58332Q11.664642322998047,16.64474,11.692912322998048,16.712989999999998Q11.721172322998047,16.78123,11.735592322998047,16.85368Q11.750002322998046,16.92613,11.750002322998046,17Q11.750002322998046,17.07387,11.735592322998047,17.14632Q11.721172322998047,17.21877,11.692912322998048,17.287010000000002Q11.664642322998047,17.35526,11.623602322998046,17.41668Q11.582562322998047,17.4781,11.530332322998047,17.53033L10.030332322998046,19.03033Q8.789872322998047,20.31187,6.9942023229980474,20.32645Q5.198532322998047,20.34103,3.9287543229980466,19.07125Q2.658978322998047,17.801470000000002,2.6735543229980467,16.0058Q2.688104322998047,14.213280000000001,3.9738193229980467,12.96552ZM4.173504322998047,16.01798Q4.1829793229980465,14.85075,5.021652322998047,14.03887L5.030332322998047,14.03033L6.000002322998046,13.06066L9.939342322998048,17L8.969672322998047,17.96967Q8.149252322998047,18.81702,6.982022322998047,18.8265Q5.814792322998047,18.83597,4.989412322998047,18.01059Q4.164030322998046,17.185200000000002,4.173504322998047,16.01798Z" fill-rule="evenodd" fill="#0D0D0D" fill-opacity="1"/></g><g><path d="M18.026229999999998,11.034432322998047L16.53033,12.530332322998047Q16.42484,12.635822322998047,16.287010000000002,12.692912322998048Q16.14918,12.750002322998046,16,12.750002322998046Q15.85081,12.750002322998046,15.71299,12.692912322998048Q15.57516,12.635822322998047,15.46967,12.530332322998047L10.46967,7.5303323229980474Q10.417437,7.478092322998046,10.376398,7.416672322998046Q10.335359,7.355262322998047,10.30709,7.287012322998047Q10.278822,7.218762322998047,10.264410999999999,7.1463223229980475Q10.25,7.073872322998047,10.25,7.000002322998046Q10.25,6.926132322998047,10.264410999999999,6.853682322998047Q10.278822,6.781232322998047,10.30709,6.712982322998046Q10.335359,6.644742322998047,10.376398,6.583322322998047Q10.417437,6.521902322998047,10.46967,6.469672322998047L11.96967,4.969670322998047Q13.21013,3.688129322998047,15.0058,3.6735543229980467Q16.801470000000002,3.658978322998047,18.07125,4.9287533229980465Q19.34102,6.198532322998047,19.32645,7.9942023229980474Q19.31189,9.786682322998047,18.026229999999998,11.034432322998047ZM17.8265,7.982022322998047Q17.81702,9.149252322998047,16.97835,9.961132322998047L16.96967,9.969672322998047L16,10.939342322998048L12.06066,7.000002322998046L13.03033,6.030332322998047Q13.85075,5.1829793229980465,15.01798,5.173504322998047Q16.185200000000002,5.164030322998046,17.01059,5.989412322998047Q17.83597,6.814792322998047,17.8265,7.982022322998047Z" fill-rule="evenodd" fill="#0D0D0D" fill-opacity="1"/></g><g><path d="M5.03033,19.03033Q5.13582,18.924841,5.1929099999999995,18.787013Q5.25,18.649184,5.25,18.5Q5.25,18.4261315,5.23559,18.353682Q5.22118,18.281233,5.1929099999999995,18.212987Q5.16464,18.144742,5.1236,18.083322Q5.08256,18.021903000000002,5.03033,17.96967Q4.9780999999999995,17.917437,4.9166799999999995,17.876398000000002Q4.8552599999999995,17.835359,4.78701,17.80709Q4.71877,17.778822,4.646319999999999,17.764411Q4.573869999999999,17.75,4.5,17.75Q4.350820000000001,17.75,4.21299,17.80709Q4.07516,17.864181,3.96967,17.96967L3.96952,17.969824L1.469824,20.46952L1.46967,20.46967Q1.3641809999999999,20.57516,1.30709,20.71299Q1.25,20.85082,1.25,21Q1.25,21.07387,1.264411,21.14632Q1.278822,21.21877,1.30709,21.28701Q1.335359,21.35526,1.376398,21.41668Q1.417437,21.4781,1.46967,21.53033Q1.521903,21.58256,1.583322,21.6236Q1.644742,21.66464,1.712987,21.69291Q1.781233,21.72118,1.853682,21.735590000000002Q1.9261314999999999,21.75,2,21.75Q2.149184,21.75,2.287013,21.69291Q2.424841,21.63582,2.53033,21.53033L2.530625,21.53004L5.03033,19.03033L5.03033,19.03033Z" fill-rule="evenodd" fill="#0D0D0D" fill-opacity="1"/></g><g><path d="M20.53033,3.53033Q20.63582,3.424841,20.69291,3.287013Q20.75,3.149184,20.75,3Q20.75,2.9261315,20.735590000000002,2.853682Q20.72118,2.781233,20.69291,2.712987Q20.66464,2.644742,20.6236,2.583322Q20.58256,2.521903,20.53033,2.46967Q20.4781,2.417437,20.41668,2.376398Q20.35526,2.335359,20.28701,2.30709Q20.21877,2.278822,20.14632,2.264411Q20.07387,2.25,20,2.25Q19.85082,2.25,19.71299,2.30709Q19.57516,2.364181,19.46967,2.46967L19.46952,2.469824L16.969824,4.96952L16.96967,4.96967Q16.864181,5.07516,16.80709,5.21299Q16.75,5.350820000000001,16.75,5.5Q16.75,5.573869999999999,16.764411,5.646319999999999Q16.778822,5.71877,16.80709,5.78701Q16.835359,5.8552599999999995,16.876398000000002,5.9166799999999995Q16.917437,5.9780999999999995,16.96967,6.03033Q17.021903000000002,6.08256,17.083322,6.1236Q17.144742,6.16464,17.212987,6.1929099999999995Q17.281233,6.22118,17.353682,6.23559Q17.4261315,6.25,17.5,6.25Q17.649184,6.25,17.787013,6.1929099999999995Q17.924841,6.13582,18.03033,6.03033L18.030625,6.03004L20.53033,3.53033L20.53033,3.53033Z" fill-rule="evenodd" fill="#0D0D0D" fill-opacity="1"/></g><g><path d="M9.53033,11.53033Q9.635819999999999,11.424841,9.69291,11.287013Q9.75,11.149184,9.75,11Q9.75,10.9261315,9.73559,10.853682Q9.72118,10.781233,9.69291,10.712987Q9.66464,10.644742,9.6236,10.583322Q9.58256,10.521903,9.53033,10.46967Q9.4781,10.417437,9.41668,10.376398Q9.35526,10.335359,9.28701,10.30709Q9.21877,10.278822,9.14632,10.264410999999999Q9.07387,10.25,9,10.25Q8.85082,10.25,8.71299,10.30709Q8.57516,10.364181,8.46967,10.46967L8.46952,10.469824L6.469824,12.46952L6.46967,12.46967Q6.364181,12.57516,6.30709,12.71299Q6.25,12.85082,6.25,13Q6.25,13.07387,6.264411,13.14632Q6.278822,13.21877,6.30709,13.28701Q6.335359,13.35526,6.376398,13.41668Q6.417437,13.4781,6.46967,13.53033Q6.521903,13.58256,6.583322,13.6236Q6.644742,13.66464,6.712987,13.69291Q6.781233,13.72118,6.853682,13.73559Q6.9261315,13.75,7,13.75Q7.149184,13.75,7.287013,13.69291Q7.424841,13.635819999999999,7.53033,13.53033L9.53033,11.53033Z" fill-rule="evenodd" fill="#0D0D0D" fill-opacity="1"/></g><g><path d="M12.53033,14.53033Q12.635819999999999,14.424841,12.69291,14.287013Q12.75,14.149184,12.75,14Q12.75,13.9261315,12.73559,13.853682Q12.72118,13.781233,12.69291,13.712987Q12.66464,13.644742,12.6236,13.583322Q12.58256,13.521903,12.53033,13.46967Q12.4781,13.417437,12.41668,13.376398Q12.35526,13.335359,12.28701,13.30709Q12.21877,13.278822,12.14632,13.264410999999999Q12.07387,13.25,12,13.25Q11.85082,13.25,11.71299,13.30709Q11.57516,13.364181,11.46967,13.46967L11.46952,13.469824L9.469824,15.46952L9.46967,15.46967Q9.364181,15.57516,9.30709,15.71299Q9.25,15.85082,9.25,16Q9.25,16.07387,9.264410999999999,16.14632Q9.278822,16.21877,9.30709,16.28701Q9.335359,16.35526,9.376398,16.41668Q9.417437,16.4781,9.46967,16.53033Q9.521903,16.58256,9.583322,16.6236Q9.644742,16.66464,9.712987,16.69291Q9.781233,16.72118,9.853682,16.735590000000002Q9.9261315,16.75,10,16.75Q10.149184,16.75,10.287013,16.69291Q10.424841,16.63582,10.53033,16.53033L12.53033,14.53033Z" fill-rule="evenodd" fill="#0D0D0D" fill-opacity="1"/></g></g></g></svg>