<svg xmlns="http://www.w3.org/2000/svg" xmlns:xlink="http://www.w3.org/1999/xlink" fill="none" version="1.1" width="20" height="20" viewBox="0 0 20 20"><defs><clip-path  id="0_2541_5482"><rect x="0" y="0" width="20" height="20" rx="0"/></clip-path ></defs><g style="opacity:0.6000000238418579;"  clip-path ="url(#0_2541_5482)"><g transform="matrix(0.7071067690849304,0.7071067690849304,-0.7071067690849304,0.7071067690849304,5.253047879632504,-9.769869488933182)"><path d="M13.6697998046875,6.9560546875L13.6697998046875,3.4560546875Q13.6697998046875,2.3169666875,14.4752561046875,1.5115109875Q15.2807128046875,0.7060546875,16.4197998046875,0.7060546875L18.2531298046875,0.7060546875Q19.3922198046875,0.7060546875,20.1976798046875,1.5115109875Q21.0031298046875,2.3169676875,21.0031298046875,3.4560546875L21.0031298046875,6.9560546875Q21.0031298046875,8.0951446875,20.1976798046875,8.9005946875Q19.3922198046875,9.7060546875,18.2531298046875,9.7060546875L16.4197998046875,9.7060546875Q15.2807118046875,9.7060546875,14.4752561046875,8.9005946875Q13.6697998046875,8.0951446875,13.6697998046875,6.9560546875ZM15.1697998046875,6.9560546875Q15.1697998046875,7.4738246875,15.5359198046875,7.8399346875Q15.9020298046875,8.2060546875,16.4197998046875,8.2060546875L18.2531298046875,8.2060546875Q18.7708998046875,8.2060546875,19.1370198046875,7.8399346875Q19.5031298046875,7.4738246875,19.5031298046875,6.9560546875L19.5031298046875,3.4560546875Q19.5031298046875,2.9382846875,19.1370198046875,2.5721746875Q18.7708998046875,2.2060546875,18.2531298046875,2.2060546875L16.4197998046875,2.2060546875Q15.9020298046875,2.2060546875,15.5359198046875,2.5721746875Q15.1697998046875,2.9382846875,15.1697998046875,3.4560546875L15.1697998046875,6.9560546875Z" fill="#FFFFFF" fill-opacity="1" style="mix-blend-mode:passthrough"/></g><g transform="matrix(0.7071067690849304,0.7071067690849304,-0.7071067690849304,0.7071067690849304,8.425916795742523,-2.1095406054446357)"><path d="M6.0093994140625,14.6162109375L6.0093994140625,11.1162109375Q6.0093994140625,9.9771229375,6.8148557140625,9.1716672375Q7.6203124140625,8.3662109375,8.7593994140625,8.3662109375L10.5927294140625,8.3662109375Q11.7318194140625,8.3662109375,12.5372794140625,9.1716672375Q13.3427294140625,9.9771239375,13.3427294140625,11.1162109375L13.3427294140625,14.6162109375Q13.3427294140625,15.7553009375,12.5372794140625,16.5607509375Q11.7318194140625,17.3662109375,10.5927294140625,17.3662109375L8.7593994140625,17.3662109375Q7.6203114140625,17.3662109375,6.8148557140625,16.5607509375Q6.0093994140625,15.7553009375,6.0093994140625,14.6162109375ZM7.5093994140625,14.6162109375Q7.5093994140625,15.133980937499999,7.8755194140625004,15.500090937500001Q8.2416294140625,15.8662109375,8.7593994140625,15.8662109375L10.5927294140625,15.8662109375Q11.110499414062499,15.8662109375,11.476619414062501,15.500090937500001Q11.8427294140625,15.133980937499999,11.8427294140625,14.6162109375L11.8427294140625,11.1162109375Q11.8427294140625,10.5984409375,11.476619414062501,10.2323309375Q11.110499414062499,9.8662109375,10.5927294140625,9.8662109375L8.7593994140625,9.8662109375Q8.2416294140625,9.8662109375,7.8755194140625004,10.2323309375Q7.5093994140625,10.5984409375,7.5093994140625,11.1162109375L7.5093994140625,14.6162109375Z" fill="#FFFFFF" fill-opacity="1" style="mix-blend-mode:passthrough"/></g><g><path d="M13.47710921875,7.5840429375Q13.582599218750001,7.4785539375,13.63968921875,7.3407249375Q13.696779218749999,7.2028959375,13.696779218749999,7.0537109375Q13.696779218749999,6.9798424375,13.68236921875,6.9073929375Q13.66795921875,6.8349439375,13.63968921875,6.7666979375Q13.611419218750001,6.6984529375,13.57037921875,6.6370329375Q13.52934921875,6.5756139375,13.47710921875,6.5233809375Q13.42487921875,6.4711479375,13.36345921875,6.4301089375Q13.30203921875,6.3890699375,13.23379921875,6.3608009375Q13.16554921875,6.3325329375,13.09309921875,6.3181219375Q13.02064921875,6.3037109375,12.946779218749999,6.3037109375Q12.797599218750001,6.3037109375,12.65976921875,6.3608009375Q12.52193921875,6.4178909375,12.41645921875,6.5233789375L6.52387121875,12.415920937500001Q6.41838121875,12.5214109375,6.36129021875,12.6592409375Q6.30419921875,12.7970709375,6.30419921875,12.9462509375Q6.30419921875,13.0201209375,6.31861021875,13.0925709375Q6.33302121875,13.1650209375,6.36128921875,13.233260937499999Q6.38955821875,13.3015109375,6.43059721875,13.3629309375Q6.47163621875,13.4243509375,6.52386921875,13.4765809375Q6.57610221875,13.528810937500001,6.63752121875,13.5698509375Q6.69894121875,13.610890937499999,6.76718621875,13.6391609375Q6.83543221875,13.6674309375,6.90788121875,13.681840937499999Q6.98033071875,13.6962509375,7.05419921875,13.6962509375Q7.20338321875,13.6962509375,7.34121021875,13.6391609375Q7.47903821875,13.5820709375,7.58452721875,13.4765809375L7.58495321875,13.476160937500001L13.47710921875,7.5840429375L13.47710921875,7.5840429375Z" fill-rule="evenodd" fill="#FFFFFF" fill-opacity="1" style="mix-blend-mode:passthrough"/></g></g></svg>