<svg xmlns="http://www.w3.org/2000/svg" xmlns:xlink="http://www.w3.org/1999/xlink" fill="none" version="1.1" width="24" height="24" viewBox="0 0 24 24"><defs><clipPath id="0_14_3737"><rect x="0" y="0" width="24" height="24" rx="0"/></clipPath></defs><g style="opacity:0.6000000238418579;" clip-path="url(#0_14_3737)"><g><g></g><g><path d="M3.973802322998047,12.965538L5.469672322998047,11.46967Q5.521902322998047,11.417437,5.583322322998047,11.376398Q5.644742322998047,11.335359,5.712982322998046,11.30709Q5.781232322998047,11.278822,5.853682322998047,11.264410999999999Q5.926132322998047,11.25,6.000002322998046,11.25Q6.073872322998047,11.25,6.146312322998047,11.264410999999999Q6.218762322998047,11.278822,6.287012322998047,11.30709Q6.355262322998047,11.335359,6.416682322998047,11.376398Q6.478092322998046,11.417437,6.5303323229980474,11.46967L11.530332322998047,16.46967Q11.635822322998047,16.57516,11.692912322998048,16.712989999999998Q11.750002322998046,16.85082,11.750002322998046,17Q11.750002322998046,17.14918,11.692912322998048,17.287010000000002Q11.635822322998047,17.42484,11.530332322998047,17.53033L10.030332322998046,19.03033Q8.789872322998047,20.31187,6.9942023229980474,20.32645Q5.198532322998047,20.34103,3.928753322998047,19.07125Q2.658978322998047,17.801470000000002,2.6735543229980467,16.0058Q2.688103322998047,14.21329,3.973802322998047,12.965538ZM4.173504322998047,16.01798Q4.1829793229980465,14.85075,5.021652322998047,14.03887L5.030332322998047,14.03033L6.000002322998046,13.06066L9.939342322998048,17L8.969672322998047,17.96967Q8.149252322998047,18.81702,6.982022322998047,18.8265Q5.814792322998047,18.83597,4.989412322998047,18.01059Q4.164030322998046,17.185200000000002,4.173504322998047,16.01798Z" fill-rule="evenodd" fill="#FFFFFF" fill-opacity="1"/></g><g><path d="M18.02621,11.034442322998046L16.53033,12.530332322998047Q16.42484,12.635822322998047,16.287010000000002,12.692912322998048Q16.14918,12.750002322998046,16,12.750002322998046Q15.850819999999999,12.750002322998046,15.71299,12.692912322998048Q15.57516,12.635822322998047,15.46967,12.530332322998047L10.46967,7.5303323229980474Q10.417437,7.478092322998046,10.376398,7.416682322998047Q10.335359,7.355262322998047,10.30709,7.287012322998047Q10.278822,7.218762322998047,10.264410999999999,7.1463223229980475Q10.25,7.073872322998047,10.25,7.000002322998046Q10.25,6.926132322998047,10.264410999999999,6.853682322998047Q10.278822,6.781232322998047,10.30709,6.712982322998046Q10.335359,6.644742322998047,10.376398,6.583322322998047Q10.417437,6.521902322998047,10.46967,6.469672322998047L11.96967,4.969670322998047Q13.21013,3.688129322998047,15.0058,3.6735543229980467Q16.801470000000002,3.658978322998047,18.07125,4.9287533229980465Q19.34102,6.198532322998047,19.32645,7.9942023229980474Q19.3119,9.786692322998046,18.02621,11.034442322998046ZM17.8265,7.982022322998047Q17.81702,9.149252322998047,16.97835,9.961132322998047L16.96967,9.969672322998047L16,10.939342322998048L12.06066,7.000002322998046L13.03033,6.030332322998047Q13.85075,5.1829793229980465,15.01797,5.173504322998047Q16.185200000000002,5.164030322998046,17.01059,5.989412322998047Q17.83597,6.814792322998047,17.8265,7.982022322998047Z" fill-rule="evenodd" fill="#FFFFFF" fill-opacity="1"/></g><g><path d="M5.03033,19.03033L5.03076,19.029901Q5.03376,19.026895,5.03673,19.023856L5.0371500000000005,19.023421Q5.13951,18.918381,5.19475,18.782522Q5.25,18.646663,5.25,18.5Q5.25,18.350816,5.1929099999999995,18.212987Q5.13582,18.075159,5.03033,17.96967Q4.92484,17.864181,4.78701,17.80709Q4.649179999999999,17.75,4.5,17.75Q4.350820000000001,17.75,4.21299,17.80709Q4.07516,17.864181,3.96967,17.96967L3.96952,17.969824L1.469824,20.46952L1.46967,20.46967Q1.3641809999999999,20.57516,1.30709,20.71299Q1.25,20.85082,1.25,21Q1.25,21.14918,1.30709,21.28701Q1.3641809999999999,21.42484,1.46967,21.53033Q1.575159,21.63582,1.712987,21.69291Q1.850816,21.75,2,21.75Q2.149184,21.75,2.287013,21.69291Q2.424841,21.63582,2.53033,21.53033L5.03033,19.03033Z" fill-rule="evenodd" fill="#FFFFFF" fill-opacity="1"/></g><g><path d="M20.53033,3.53033L20.53076,3.5299009999999997Q20.53376,3.526895,20.53673,3.523856L20.53715,3.523421Q20.63951,3.418381,20.69475,3.282522Q20.75,3.146663,20.75,3Q20.75,2.850816,20.69291,2.712987Q20.63582,2.575159,20.53033,2.46967Q20.42484,2.364181,20.28701,2.30709Q20.14918,2.25,20,2.25Q19.85082,2.25,19.71299,2.30709Q19.57516,2.364181,19.46967,2.46967L19.46952,2.469824L16.969824,4.96952L16.96967,4.96967Q16.864181,5.07516,16.80709,5.21299Q16.75,5.350820000000001,16.75,5.5Q16.75,5.649179999999999,16.80709,5.78701Q16.864181,5.92484,16.96967,6.03033Q17.075159,6.13582,17.212987,6.1929099999999995Q17.350816,6.25,17.5,6.25Q17.649184,6.25,17.787013,6.1929099999999995Q17.924841,6.13582,18.03033,6.03033L20.53033,3.53033Z" fill-rule="evenodd" fill="#FFFFFF" fill-opacity="1"/></g><g><path d="M9.53033,11.53033L9.53076,11.529901Q9.533760000000001,11.526895,9.53673,11.523856L9.53715,11.523421Q9.63951,11.418381,9.694749999999999,11.282522Q9.75,11.146663,9.75,11Q9.75,10.850816,9.69291,10.712987Q9.635819999999999,10.575159,9.53033,10.46967Q9.42484,10.364181,9.28701,10.30709Q9.14918,10.25,9,10.25Q8.85082,10.25,8.71299,10.30709Q8.57516,10.364181,8.46967,10.46967L8.46952,10.469824L6.469824,12.46952L6.46967,12.46967Q6.364181,12.57516,6.30709,12.71299Q6.25,12.85082,6.25,13Q6.25,13.14918,6.30709,13.28701Q6.364181,13.42484,6.46967,13.53033Q6.575159,13.635819999999999,6.712987,13.69291Q6.850816,13.75,7,13.75Q7.149184,13.75,7.287013,13.69291Q7.424841,13.635819999999999,7.53033,13.53033L9.53033,11.53033Z" fill-rule="evenodd" fill="#FFFFFF" fill-opacity="1"/></g><g><path d="M12.53033,14.53033L12.53076,14.529901Q12.533760000000001,14.526895,12.53673,14.523856L12.53715,14.523421Q12.63951,14.418381,12.694749999999999,14.282522Q12.75,14.146663,12.75,14Q12.75,13.850816,12.69291,13.712987Q12.635819999999999,13.575159,12.53033,13.46967Q12.42484,13.364181,12.28701,13.30709Q12.14918,13.25,12,13.25Q11.85082,13.25,11.71299,13.30709Q11.57516,13.364181,11.46967,13.46967L11.46952,13.469824L9.469824,15.46952L9.46967,15.46967Q9.364181,15.57516,9.30709,15.71299Q9.25,15.85082,9.25,16Q9.25,16.14918,9.30709,16.28701Q9.364181,16.42484,9.46967,16.53033Q9.575159,16.63582,9.712987,16.69291Q9.850816,16.75,10,16.75Q10.149184,16.75,10.287013,16.69291Q10.424841,16.63582,10.53033,16.53033L12.53033,14.53033Z" fill-rule="evenodd" fill="#FFFFFF" fill-opacity="1"/></g></g></g></svg>