<svg xmlns="http://www.w3.org/2000/svg" xmlns:xlink="http://www.w3.org/1999/xlink" fill="none" version="1.1" width="40" height="40" viewBox="0 0 40 40"><defs><clipPath id="0_2560_2072"><rect x="0" y="0" width="40" height="40" rx="0"/></clipPath></defs><g style="opacity:0.800000011920929;" clip-path="url(#0_2560_2072)"><g><path d="M35.9939740234375,10.110424Q36.0000740234375,10.0553814,36.0000740234375,10Q36.0000740234375,9.9015086,35.9808740234375,9.80491Q35.9615740234375,9.708311,35.9238740234375,9.617317Q35.8862740234375,9.526322,35.8314740234375,9.44443Q35.7767740234375,9.362537,35.7071740234375,9.292893Q35.6374740234375,9.223249,35.5555740234375,9.16853Q35.473674023437496,9.113812,35.3827740234375,9.076121Q35.2917740234375,9.03843,35.1951740234375,9.019214999999999Q35.0985740234375,9,35.0000740234375,9Q34.908574023437495,9,34.8185740234375,9.01661Q34.7285740234375,9.033221,34.6430740234375,9.065889Q34.557574023437496,9.098558,34.479474023437504,9.1462Q34.4012740234375,9.193842,34.333074023437504,9.254874000000001Q34.2649740234375,9.315907,34.2089740234375,9.388302Q34.1529740234375,9.460698,34.111074023437496,9.542051Q34.0691740234375,9.623405,34.0426740234375,9.711014Q34.016274023437504,9.798622,34.006174023437495,9.889576L32.9452740234375,19.437739999999998Q32.6068740234375,22.482799999999997,31.7220740234375,23.3437Q30.8370740234375,24.2046,27.783874023437498,24.459L13.2514840234375,25.67L13.2503256234375,25.670099999999998Q13.1574010234375,25.6779,13.0675090234375,25.7027Q12.9776180234375,25.7274,12.8938600234375,25.7684Q12.8101020234375,25.8094,12.7353660234375,25.8652Q12.6606290234375,25.9209,12.5974910234375,25.9896Q12.5343520234375,26.0582,12.4849890234375,26.1373Q12.4356260234375,26.2164,12.4017400234375,26.3033Q12.3678540234375,26.3901,12.3506140234375,26.4818Q12.3333740234375,26.5734,12.3333740234375,26.6667Q12.3333740234375,26.7652,12.352589023437499,26.8618Q12.3718040234375,26.9584,12.4094950234375,27.0493Q12.4471860234375,27.1403,12.5019040234375,27.2222Q12.5566230234375,27.3041,12.6262670234375,27.3738Q12.6959110234375,27.4434,12.7778040234375,27.4981Q12.8596960234375,27.5529,12.9506910234375,27.5905Q13.0416850234375,27.6282,13.1382840234375,27.6474Q13.2348826234375,27.6667,13.3333740234375,27.6667Q13.3749700234375,27.6667,13.4164224234375,27.6632L27.949874023437502,26.452Q31.7177740234375,26.1382,33.1166740234375,24.7772Q34.5154740234375,23.4164,34.9330740234375,19.65859L35.993774023437496,10.112104L35.9939740234375,10.110424L35.9939740234375,10.110424Z" fill-rule="evenodd" fill="#FFFFFF" fill-opacity="1" style="mix-blend-mode:passthrough"/></g><g><path d="M10,9L36.6667,9Q36.7652,9,36.8618,9.019214999999999Q36.9584,9.03843,37.0494,9.076121Q37.140299999999996,9.113812,37.2222,9.16853Q37.3041,9.223249,37.3738,9.292893Q37.4434,9.362537,37.4981,9.44443Q37.5529,9.526322,37.5905,9.617317Q37.6282,9.708311,37.6475,9.80491Q37.6667,9.9015086,37.6667,10Q37.6667,10.0984914,37.6475,10.19509Q37.6282,10.291689,37.5905,10.382683Q37.5529,10.473678,37.4981,10.55557Q37.4434,10.637463,37.3738,10.707107Q37.3041,10.776751,37.2222,10.83147Q37.140299999999996,10.886188,37.0494,10.923879Q36.9584,10.96157,36.8618,10.980785000000001Q36.7652,11,36.6667,11L10,11Q9.9015086,11,9.80491,10.980785000000001Q9.708311,10.96157,9.617317,10.923879Q9.526322,10.886188,9.44443,10.83147Q9.362537,10.776751,9.292893,10.707107Q9.223249,10.637463,9.16853,10.55557Q9.113812,10.473678,9.076121,10.382683Q9.03843,10.291689,9.019214999999999,10.19509Q9,10.0984914,9,10Q9,9.9015086,9.019214999999999,9.80491Q9.03843,9.708311,9.076121,9.617317Q9.113812,9.526322,9.16853,9.44443Q9.223249,9.362537,9.292893,9.292893Q9.362537,9.223249,9.44443,9.16853Q9.526322,9.113812,9.617317,9.076121Q9.708311,9.03843,9.80491,9.019214999999999Q9.9015086,9,10,9Z" fill-rule="evenodd" fill="#FFFFFF" fill-opacity="1" style="mix-blend-mode:passthrough"/></g><g><ellipse cx="9.999959468841553" cy="33.33333349227905" rx="3.3333334922790527" ry="3.3333334922790527" fill-opacity="0" stroke-opacity="1" stroke="#FFFFFF" fill="none" stroke-width="2" style="mix-blend-mode:passthrough"/></g><g><ellipse cx="28.333333492279053" cy="33.33333349227905" rx="3.3333334922790527" ry="3.3333334922790527" fill-opacity="0" stroke-opacity="1" stroke="#FFFFFF" fill="none" stroke-width="2" style="mix-blend-mode:passthrough"/></g><g><path d="M13.3333740234375,32.33349609375L25.0000740234375,32.33349609375Q25.0985740234375,32.33349609375,25.195174023437502,32.35271109375Q25.291774023437497,32.37192609375,25.3827740234375,32.40961709375Q25.4736740234375,32.44730809375,25.5555740234375,32.50202609375Q25.6374740234375,32.55674509375,25.7071740234375,32.62638909375Q25.7767740234375,32.69603309375,25.8314740234375,32.77792609375Q25.8862740234375,32.85981809375,25.9238740234375,32.95081309375Q25.9615740234375,33.04180709375,25.9808740234375,33.13840609375Q26.0000740234375,33.23500469375,26.0000740234375,33.33349609375Q26.0000740234375,33.43198749375,25.9808740234375,33.52858609375Q25.9615740234375,33.62518509375,25.9238740234375,33.71617909375Q25.8862740234375,33.80717409375,25.8314740234375,33.88906609375Q25.7767740234375,33.97095909375,25.7071740234375,34.04060309375Q25.6374740234375,34.11024709375,25.5555740234375,34.16496609375Q25.4736740234375,34.21968409375,25.382674023437502,34.25737509375Q25.291774023437497,34.29506609375,25.195174023437502,34.31428109375Q25.0985740234375,34.33349609375,25.0000740234375,34.33349609375L13.3333740234375,34.33349609375Q13.2348826234375,34.33349609375,13.1382840234375,34.31428109375Q13.0416850234375,34.29506609375,12.9506910234375,34.25737509375Q12.8596960234375,34.21968409375,12.7778040234375,34.16496609375Q12.6959110234375,34.11024709375,12.6262670234375,34.04060309375Q12.5566230234375,33.97095909375,12.5019040234375,33.88906609375Q12.4471860234375,33.80717409375,12.4094950234375,33.71617909375Q12.3718040234375,33.62518509375,12.352589023437499,33.52858609375Q12.3333740234375,33.43198749375,12.3333740234375,33.33349609375Q12.3333740234375,33.23500469375,12.352589023437499,33.13840609375Q12.3718040234375,33.04180709375,12.4094950234375,32.95081309375Q12.4471860234375,32.85981809375,12.5019040234375,32.77792609375Q12.5566230234375,32.69603309375,12.6262670234375,32.62638909375Q12.6959110234375,32.55674509375,12.7778040234375,32.50202609375Q12.8596960234375,32.44730809375,12.9506910234375,32.40961709375Q13.0416850234375,32.37192609375,13.1382840234375,32.35271109375Q13.2348826234375,32.33349609375,13.3333740234375,32.33349609375Z" fill-rule="evenodd" fill="#FFFFFF" fill-opacity="1" style="mix-blend-mode:passthrough"/></g><g><path d="M3.3333740234375,2.33349609375L4.9433740234375,2.33349609375Q6.4605740234375,2.33349609375,7.6593040234375,3.24273829375Q8.8674340234375,4.15909909375,9.2405840234375,5.60915609375L14.1993740234375,24.87849609375Q14.7171740234375,26.89089609375,13.4386740234375,28.54729609375L11.8457640234375,30.61049609375L11.8451340234375,30.61129609375Q11.7750640234375,30.70199609375,11.6862640234375,30.77459609375Q11.5974640234375,30.84709609375,11.4945540234375,30.89769609375Q11.3916340234375,30.94829609375,11.279944023437501,30.97419609375Q11.1682540234375,31.00019609375,11.053594023437501,31.00019609375Q10.9551040234375,31.00019609375,10.8585040234375,30.98099609375Q10.7619040234375,30.96169609375,10.670904023437501,30.92399609375Q10.5799140234375,30.88639609375,10.4980240234375,30.83159609375Q10.4161240234375,30.77689609375,10.346484023437501,30.70729609375Q10.2768440234375,30.63759609375,10.2221240234375,30.55569609375Q10.1674040234375,30.47379609375,10.1297140234375,30.38289609375Q10.0920240234375,30.29189609375,10.072804023437499,30.19529609375Q10.053594023437501,30.09869609375,10.053594023437501,30.00019609375Q10.053594023437501,29.83429609375,10.107144023437499,29.67729609375Q10.1606840234375,29.52029609375,10.2620440234375,29.38909609375L11.8555640234375,27.32509609375Q12.5366940234375,26.44259609375,12.2624540234375,25.37689609375L7.3036940234375,6.10759609375Q7.1040540234375005,5.33181609375,6.4506540234375,4.83621609375Q5.7878840234375,4.33349609375,4.9433740234375,4.33349609375L3.3333740234375,4.33349609375Q3.2348826234375,4.33349609375,3.1382840234375,4.31428109375Q3.0416850234375,4.29506609375,2.9506910234375,4.25737509375Q2.8596960234375,4.21968409375,2.7778040234375,4.16496609375Q2.6959110234375,4.11024709375,2.6262670234375,4.04060309375Q2.5566230234375,3.97095909375,2.5019040234375,3.88906609375Q2.4471860234375002,3.80717409375,2.4094950234375,3.71617909375Q2.3718040234375,3.62518509375,2.3525890234375,3.52858609375Q2.3333740234375,3.43198749375,2.3333740234375,3.33349609375Q2.3333740234375,3.23500469375,2.3525890234375,3.13840609375Q2.3718040234375,3.04180709375,2.4094950234375,2.95081309375Q2.4471860234375002,2.85981809375,2.5019040234375,2.77792609375Q2.5566230234375,2.69603309375,2.6262670234375,2.62638909375Q2.6959110234375,2.55674509375,2.7778040234375,2.50202609375Q2.8596960234375,2.4473080937500002,2.9506910234375,2.40961709375Q3.0416850234375,2.37192609375,3.1382840234375,2.35271109375Q3.2348826234375,2.33349609375,3.3333740234375,2.33349609375Z" fill-rule="evenodd" fill="#FFFFFF" fill-opacity="1" style="mix-blend-mode:passthrough"/></g></g></svg>