<svg xmlns="http://www.w3.org/2000/svg" xmlns:xlink="http://www.w3.org/1999/xlink" fill="none" version="1.1" width="62.5" height="57.5" viewBox="0 0 62.5 57.5"><g><path d="M60,18.75Q60,16.1612,58.1694,14.3306Q56.3388,12.5,53.75,12.5L8.75,12.5Q6.16117,12.5,4.330579999999999,14.3306Q2.5,16.1612,2.5,18.75L2.5,22.6262Q2.5312,22.5944,2.56281,22.5628Q5.12563,20,8.75,20L21.25,20Q21.3114,20,21.3725,20.006Q21.4336,20.012,21.4939,20.024Q21.5541,20.036,21.6129,20.0538Q21.6716,20.0716,21.7284,20.0951Q21.7851,20.1186,21.8392,20.1476Q21.8934,20.1765,21.9445,20.2107Q21.9955,20.2448,22.043,20.2837Q22.0905,20.3227,22.1339,20.3661Q22.1773,20.4095,22.2163,20.457Q22.2552,20.5045,22.2893,20.5555Q22.3235,20.6066,22.3524,20.6608Q22.3813,20.7149,22.4048,20.7716Q22.4284,20.8284,22.4462,20.8871Q22.464,20.9459,22.476,21.0061Q22.488,21.0664,22.494,21.1275Q22.5,21.1886,22.5,21.25Q22.5,24.8744,25.0628,27.4372Q27.6256,30,31.25,30Q34.8744,30,37.4372,27.4372Q40,24.8744,40,21.25Q40,21.1886,40.006,21.1275Q40.012,21.0664,40.024,21.0061Q40.036,20.9459,40.0538,20.8871Q40.0717,20.8284,40.0951,20.7716Q40.1186,20.7149,40.1476,20.6607Q40.1765,20.6066,40.2107,20.5555Q40.2448,20.5045,40.2837,20.457Q40.3227,20.4095,40.3661,20.3661Q40.4095,20.3227,40.457,20.2837Q40.5045,20.2448,40.5555,20.2107Q40.6066,20.1765,40.6608,20.1476Q40.7149,20.1186,40.7716,20.0951Q40.8284,20.0716,40.8871,20.0538Q40.9459,20.036,41.0061,20.024Q41.0664,20.012,41.1275,20.006Q41.1886,20,41.25,20L53.75,20Q57.3744,20,59.9372,22.5628Q59.9688,22.5944,60,22.6262L60,18.75ZM62.5,28.75L62.5,48.75Q62.5,52.3744,59.9372,54.9372Q57.3744,57.5,53.75,57.5L8.75,57.5Q5.12563,57.5,2.56281,54.9372Q0,52.3744,0,48.75L0,8.75Q0,5.12563,2.5628200000000003,2.5628200000000003Q5.12563,0,8.75,0L53.75,0Q57.3744,0,59.9372,2.5628200000000003Q62.5,5.12563,62.5,8.75L62.5,28.75ZM60,12.6262L60,8.75Q60,6.16116,58.1694,4.330579999999999Q56.3388,2.5,53.75,2.5L8.75,2.5Q6.16117,2.5,4.330579999999999,4.330579999999999Q2.5,6.16117,2.5,8.75L2.5,12.6262Q2.5312,12.5944,2.5628200000000003,12.5628Q5.12563,10,8.75,10L53.75,10Q57.3744,10,59.9372,12.5628Q59.9688,12.5944,60,12.6262ZM2.5,28.75L2.5,48.75Q2.5,51.3388,4.330579999999999,53.1694Q6.16116,55,8.75,55L53.75,55Q56.3388,55,58.1694,53.1694Q60,51.3388,60,48.75L60,28.75Q60,26.1612,58.1694,24.3306Q56.3388,22.5,53.75,22.5L42.4383,22.5Q42.049,26.3609,39.205,29.205Q35.9099,32.5,31.25,32.5Q26.5901,32.5,23.295,29.205Q20.451,26.3609,20.0617,22.5L8.75,22.5Q6.16117,22.5,4.330579999999999,24.3306Q2.5,26.1612,2.5,28.75Z" fill-rule="evenodd" fill="#CDCDCD" fill-opacity="1" style="mix-blend-mode:passthrough"/></g></svg>