<svg xmlns="http://www.w3.org/2000/svg" xmlns:xlink="http://www.w3.org/1999/xlink" fill="none" version="1.1" width="48" height="48" viewBox="0 0 48 48"><defs><clipPath id="master_svg0_1672_00475"><rect x="12" y="12" width="24" height="24" rx="0"/></clipPath></defs><g><g><rect x="0" y="0" width="48" height="48" rx="8" fill="#FFFFFF" fill-opacity="1"/><rect x="0.5" y="0.5" width="47" height="47" rx="7.5" fill-opacity="0" stroke-opacity="1" stroke="#FFFFFF" fill="none" stroke-width="1"/></g><g clip-path="url(#master_svg0_1672_00475)"><g><path d="M14.25,16.5L14.25,31.5Q14.25,32.432,14.9090137,33.091Q15.56802,33.75,16.5,33.75L31.5,33.75Q32.432,33.75,33.091,33.091Q33.75,32.432,33.75,31.5L33.75,18.60325Q33.75,18.44737,33.6879,18.3044Q33.6258,18.16143,33.5118,18.05505L29.6525,14.451796Q29.5484,14.354541,29.4158,14.302271Q29.2832,14.25,29.140700000000002,14.25L16.5,14.25Q15.568021,14.25,14.9090106,14.9090105Q14.25,15.568021,14.25,16.5ZM16.5,32.25Q15.75,32.25,15.75,31.5L15.75,16.5Q15.75,15.75,16.5,15.75L28.845,15.75L32.25,18.92909L32.25,31.5Q32.25,32.25,31.5,32.25L16.5,32.25Z" fill-rule="evenodd" fill="#0D0D0D" fill-opacity="1"/></g><g></g><g><path d="M24.00415,14.25L19,14.25Q18.9261315,14.25,18.853682,14.264410999999999Q18.781233,14.278822,18.712987,14.30709Q18.644742,14.335359,18.583322,14.376398Q18.521903000000002,14.417437,18.46967,14.46967Q18.417437,14.521903,18.376398000000002,14.583322Q18.335359,14.644742,18.30709,14.712987Q18.278822,14.781233,18.264411,14.853682Q18.25,14.9261315,18.25,15L18.25,18.6923Q18.25,19.23886,18.753369,19.54862Q19.0806025,19.75,19.5,19.75L23.5,19.75Q23.9194,19.75,24.24663,19.54862Q24.75,19.23886,24.75,18.69314L24.75415,15.000842952L24.75415,15Q24.75415,14.9261315,24.73974,14.853682Q24.72533,14.781233,24.69706,14.712987Q24.66879,14.644742,24.62775,14.583322Q24.58671,14.521903,24.534480000000002,14.46967Q24.48225,14.417437,24.42083,14.376398Q24.35941,14.335359,24.291159999999998,14.30709Q24.222920000000002,14.278822,24.15047,14.264410999999999Q24.078020000000002,14.25,24.00415,14.25ZM19.75,15.75L19.75,18.25L23.2505,18.25L23.25331,15.75L19.75,15.75Z" fill-rule="evenodd" fill="#0D0D0D" fill-opacity="1"/></g><g><path d="M16.5,14.25L29.140700000000002,14.25Q29.2146,14.25,29.287,14.264410999999999Q29.3595,14.278822,29.4277,14.30709Q29.496000000000002,14.335359,29.5574,14.376398Q29.6188,14.417437,29.671,14.46967Q29.723300000000002,14.521903,29.7643,14.583322Q29.805300000000003,14.644742,29.8336,14.712987Q29.8619,14.781233,29.8763,14.853682Q29.890700000000002,14.9261315,29.890700000000002,15Q29.890700000000002,15.0738685,29.8763,15.146318Q29.8619,15.218767,29.8336,15.287013Q29.805300000000003,15.355258,29.7643,15.416678Q29.723300000000002,15.478097,29.671,15.53033Q29.6188,15.582563,29.5574,15.623602Q29.496000000000002,15.664641,29.4277,15.69291Q29.3595,15.721178,29.287,15.735589000000001Q29.2146,15.75,29.140700000000002,15.75L16.5,15.75Q16.4261315,15.75,16.353682,15.735589000000001Q16.281233,15.721178,16.212987,15.69291Q16.144742,15.664641,16.083322,15.623602Q16.021903000000002,15.582563,15.96967,15.53033Q15.917437,15.478097,15.876398,15.416678Q15.835359,15.355258,15.80709,15.287013Q15.778822,15.218767,15.764410999999999,15.146318Q15.75,15.0738685,15.75,15Q15.75,14.9261315,15.764410999999999,14.853682Q15.778822,14.781233,15.80709,14.712987Q15.835359,14.644742,15.876398,14.583322Q15.917437,14.521903,15.96967,14.46967Q16.021903000000002,14.417437,16.083322,14.376398Q16.144742,14.335359,16.212987,14.30709Q16.281233,14.278822,16.353682,14.264410999999999Q16.4261315,14.25,16.5,14.25Z" fill-rule="evenodd" fill="#0D0D0D" fill-opacity="1"/></g><g><path d="M19,24.25L29,24.25Q29.073900000000002,24.25,29.1463,24.264411Q29.2188,24.278822,29.287,24.30709Q29.3553,24.335359,29.4167,24.376398000000002Q29.478099999999998,24.417437,29.5303,24.46967Q29.5826,24.521903000000002,29.6236,24.583322Q29.6646,24.644742,29.6929,24.712987Q29.7212,24.781233,29.735599999999998,24.853682Q29.75,24.9261315,29.75,25Q29.75,25.0738685,29.735599999999998,25.146318Q29.7212,25.218767,29.6929,25.287013Q29.6646,25.355258,29.6236,25.416678Q29.5826,25.478096999999998,29.5303,25.53033Q29.478099999999998,25.582563,29.4167,25.623601999999998Q29.3553,25.664641,29.287,25.69291Q29.2188,25.721178,29.1463,25.735589Q29.073900000000002,25.75,29,25.75L19,25.75Q18.9261315,25.75,18.853682,25.735589Q18.781233,25.721178,18.712987,25.69291Q18.644742,25.664641,18.583322,25.623601999999998Q18.521903000000002,25.582563,18.46967,25.53033Q18.417437,25.478096999999998,18.376398000000002,25.416678Q18.335359,25.355258,18.30709,25.287013Q18.278822,25.218767,18.264411,25.146318Q18.25,25.0738685,18.25,25Q18.25,24.9261315,18.264411,24.853682Q18.278822,24.781233,18.30709,24.712987Q18.335359,24.644742,18.376398000000002,24.583322Q18.417437,24.521903000000002,18.46967,24.46967Q18.521903000000002,24.417437,18.583322,24.376398000000002Q18.644742,24.335359,18.712987,24.30709Q18.781233,24.278822,18.853682,24.264411Q18.9261315,24.25,19,24.25Z" fill-rule="evenodd" fill="#0D0D0D" fill-opacity="1"/></g><g><path d="M19,28.25L24.00415,28.25Q24.078020000000002,28.25,24.15047,28.264411Q24.222920000000002,28.278822,24.291159999999998,28.30709Q24.35941,28.335359,24.42083,28.376398000000002Q24.48225,28.417437,24.534480000000002,28.46967Q24.58671,28.521903000000002,24.62775,28.583322Q24.66879,28.644742,24.69706,28.712987Q24.72533,28.781233,24.73974,28.853682Q24.75415,28.9261315,24.75415,29Q24.75415,29.0738685,24.73974,29.146318Q24.72533,29.218767,24.69706,29.287013Q24.66879,29.355258,24.62775,29.416678Q24.58671,29.478096999999998,24.534480000000002,29.53033Q24.48225,29.582563,24.42083,29.623601999999998Q24.35941,29.664641,24.291159999999998,29.69291Q24.222920000000002,29.721178,24.15047,29.735589Q24.078020000000002,29.75,24.00415,29.75L19,29.75Q18.9261315,29.75,18.853682,29.735589Q18.781233,29.721178,18.712987,29.69291Q18.644742,29.664641,18.583322,29.623601999999998Q18.521903000000002,29.582563,18.46967,29.53033Q18.417437,29.478096999999998,18.376398000000002,29.416678Q18.335359,29.355258,18.30709,29.287013Q18.278822,29.218767,18.264411,29.146318Q18.25,29.0738685,18.25,29Q18.25,28.9261315,18.264411,28.853682Q18.278822,28.781233,18.30709,28.712987Q18.335359,28.644742,18.376398000000002,28.583322Q18.417437,28.521903000000002,18.46967,28.46967Q18.521903000000002,28.417437,18.583322,28.376398000000002Q18.644742,28.335359,18.712987,28.30709Q18.781233,28.278822,18.853682,28.264411Q18.9261315,28.25,19,28.25Z" fill-rule="evenodd" fill="#0D0D0D" fill-opacity="1"/></g></g></g></svg>