<svg xmlns="http://www.w3.org/2000/svg" xmlns:xlink="http://www.w3.org/1999/xlink" fill="none" version="1.1" width="40" height="40" viewBox="0 0 40 40"><defs><clip-path  id="0_2560_2081"><rect x="0" y="0" width="40" height="40" rx="0"/></clip-path ></defs><g style="opacity:0.800000011920929;"  clip-path ="url(#0_2560_2081)"><g><path d="M31.98671603088379,25.513289Q30.47342603088379,24,28.33333603088379,24Q26.193246030883788,24,24.67995603088379,25.513288Q23.16666603088379,27.02658,23.16666603088379,29.16666Q23.16666603088379,31.30675,24.67995603088379,32.82004Q26.193246030883788,34.333330000000004,28.33333603088379,34.333330000000004Q30.47342603088379,34.333330000000004,31.986706030883788,32.82004Q33.49999603088379,31.30675,33.49999603088379,29.16667Q33.49999603088379,27.02658,31.98671603088379,25.513289ZM26.094166030883787,26.9275Q27.02167603088379,26,28.33333603088379,26Q29.64499603088379,26,30.57249603088379,26.9275Q31.49999603088379,27.85501,31.49999603088379,29.16667Q31.49999603088379,30.47833,30.57249603088379,31.40583Q29.64499603088379,32.333330000000004,28.33333603088379,32.333330000000004Q27.02167603088379,32.333330000000004,26.094166030883787,31.40583Q25.16666603088379,30.47833,25.16666603088379,29.16666Q25.16666603088379,27.85501,26.094166030883787,26.9275Z" fill-rule="evenodd" fill="#FFFFFF" fill-opacity="1" style="mix-blend-mode:passthrough"/></g><g><path d="M15.32005,25.513289Q13.80676,24,11.66667,24Q9.52658,24,8.01329,25.513288Q6.5,27.02658,6.5,29.16666Q6.5,31.30675,8.01329,32.82004Q9.52658,34.333330000000004,11.66667,34.333330000000004Q13.80676,34.333330000000004,15.320039999999999,32.82004Q16.83333,31.30675,16.83333,29.16667Q16.83333,27.02658,15.32005,25.513289ZM9.4275,26.9275Q10.35501,26,11.66667,26Q12.97833,26,13.90583,26.9275Q14.83333,27.85501,14.83333,29.16667Q14.83333,30.47833,13.90583,31.40583Q12.97833,32.333330000000004,11.66667,32.333330000000004Q10.35501,32.333330000000004,9.4275,31.40583Q8.5,30.47833,8.5,29.16666Q8.5,27.85501,9.4275,26.9275Z" fill-rule="evenodd" fill="#FFFFFF" fill-opacity="1" style="mix-blend-mode:passthrough"/></g><g><path d="M4.083267253860473,29.697666507720946Q4.895473253860474,30.166666507720947,7.5000032538604735,30.166666507720947Q7.5984932538604735,30.166666507720947,7.695093253860474,30.147466507720946Q7.7916932538604735,30.128266507720948,7.882683253860473,30.090566507720947Q7.973673253860474,30.052866507720946,8.055573253860473,29.998166507720946Q8.137463253860474,29.94336650772095,8.207103253860474,29.873766507720948Q8.276753253860473,29.804166507720947,8.331473253860473,29.722266507720946Q8.386193253860473,29.640366507720948,8.423883253860474,29.549366507720947Q8.461573253860474,29.458366507720946,8.480783253860473,29.361766507720947Q8.500003253860474,29.26516650772095,8.500003253860474,29.166666507720947Q8.500003253860474,29.068166507720946,8.480783253860473,28.971566507720947Q8.461573253860474,28.87496650772095,8.423883253860474,28.783966507720947Q8.386193253860473,28.692966507720946,8.331473253860473,28.61106650772095Q8.276753253860473,28.529166507720948,8.207103253860474,28.459566507720947Q8.137463253860474,28.389866507720946,8.055573253860473,28.33516650772095Q7.973673253860474,28.28046650772095,7.882683253860473,28.242766507720948Q7.7916932538604735,28.205066507720947,7.695093253860474,28.18586650772095Q7.5984932538604735,28.166666507720947,7.5000032538604735,28.166666507720947Q5.431453253860473,28.166666507720947,5.083403253860474,27.965666507720947Q4.735303253860474,27.764766507720946,4.534273253860474,27.416666507720947Q4.333333253860474,27.06856650772095,4.333333253860474,24.99996650772095L4.333333253860474,11.666666507720947Q4.333333253860474,8.545346507720947,4.772673253860473,8.106006507720947Q5.212013253860474,7.666666507720947,8.333333253860474,7.666666507720947L20.000033253860472,7.666666507720947Q23.121333253860474,7.666666507720947,23.560733253860473,8.106056507720947Q24.000033253860472,8.545316507720948,24.000033253860472,11.666666507720947L24.000033253860472,25.833366507720946Q24.000033253860472,25.931866507720947,24.019233253860474,26.028466507720946Q24.038433253860475,26.12506650772095,24.076133253860473,26.215966507720946Q24.113833253860474,26.306966507720947,24.168533253860474,26.388866507720948Q24.223233253860474,26.470766507720946,24.292933253860472,26.540466507720947Q24.362533253860473,26.610066507720948,24.444433253860474,26.664766507720948Q24.526333253860475,26.71956650772095,24.617333253860473,26.757166507720946Q24.708333253860474,26.794866507720947,24.804933253860472,26.814166507720948Q24.901533253860475,26.833366507720946,25.000033253860472,26.833366507720946Q25.098533253860474,26.833366507720946,25.195133253860472,26.814166507720948Q25.291733253860475,26.794866507720947,25.382633253860472,26.757166507720946Q25.473633253860474,26.71956650772095,25.555533253860474,26.664766507720948Q25.637433253860472,26.610066507720948,25.707133253860473,26.540466507720947Q25.776733253860474,26.470766507720946,25.831433253860475,26.388866507720948Q25.886233253860475,26.306966507720947,25.923833253860472,26.215966507720946Q25.961533253860473,26.12506650772095,25.980733253860475,26.028466507720946Q26.000033253860472,25.931866507720947,26.000033253860472,25.833366507720946L26.000033253860472,11.834546507720948Q29.965633253860474,11.892436507720948,32.78653325386047,14.713446507720947Q35.666633253860475,17.593566507720947,35.666633253860475,21.666666507720947L35.666633253860475,26.271966507720947Q35.666633253860475,26.759866507720947,35.65513325386048,26.852366507720948Q35.510833253860476,28.010866507720948,34.352233253860476,28.155166507720946Q34.25983325386048,28.166666507720947,33.77203325386047,28.166666507720947L32.50003325386047,28.166666507720947Q32.40153325386048,28.166666507720947,32.30493325386047,28.18586650772095Q32.208333253860474,28.205066507720947,32.11733325386047,28.242766507720948Q32.02633325386047,28.28046650772095,31.944433253860474,28.33516650772095Q31.862533253860473,28.389866507720946,31.792933253860472,28.459566507720947Q31.723233253860474,28.529166507720948,31.668533253860474,28.61106650772095Q31.613833253860474,28.692966507720946,31.576133253860473,28.783966507720947Q31.538433253860475,28.87496650772095,31.519233253860474,28.971566507720947Q31.500033253860472,29.068166507720946,31.500033253860472,29.166666507720947Q31.500033253860472,29.26516650772095,31.519233253860474,29.361766507720947Q31.538433253860475,29.458366507720946,31.576133253860473,29.549366507720947Q31.613833253860474,29.640366507720948,31.668533253860474,29.722266507720946Q31.723233253860474,29.804166507720947,31.792933253860472,29.873766507720948Q31.862533253860473,29.94336650772095,31.944433253860474,29.998166507720946Q32.02633325386047,30.052866507720946,32.11733325386047,30.090566507720947Q32.208333253860474,30.128266507720948,32.30493325386047,30.147466507720946Q32.40153325386048,30.166666507720947,32.50003325386047,30.166666507720947L33.77203325386047,30.166666507720947Q34.38383325386047,30.166666507720947,34.599433253860475,30.139866507720946Q37.30303325386048,29.802966507720946,37.63983325386047,27.099366507720948Q37.666633253860475,26.883866507720946,37.666633253860475,26.271966507720947L37.666633253860475,21.666666507720947Q37.666633253860475,16.76516650772095,34.20083325386047,13.299236507720948Q30.770033253860472,9.868486507720947,25.932633253860473,9.833686507720948Q25.737233253860474,7.4541135077209475,24.974933253860474,6.6917453077209474Q23.949633253860473,5.666666507720947,20.000033253860472,5.666666507720947L8.333333253860474,5.666666507720947Q4.383583253860474,5.666666507720947,3.3584596538604736,6.691792907720948Q2.3333332538604736,7.716916507720947,2.3333332538604736,11.666666507720947L2.3333332538604736,24.99996650772095Q2.3333332538604736,27.604466507720947,2.8022642538604736,28.416666507720947Q3.2713377538604735,29.229066507720947,4.083267253860473,29.697666507720946ZM15.833333253860474,28.166666507720947L24.166633253860475,28.166666507720947Q24.265133253860473,28.166666507720947,24.361733253860475,28.18586650772095Q24.458333253860474,28.205066507720947,24.549333253860475,28.242766507720948Q24.640333253860472,28.28046650772095,24.722233253860473,28.33516650772095Q24.804133253860474,28.389866507720946,24.873733253860475,28.459566507720947Q24.943433253860473,28.529166507720948,24.998133253860473,28.61106650772095Q25.052833253860474,28.692966507720946,25.090533253860475,28.783966507720947Q25.128233253860472,28.87496650772095,25.147433253860473,28.971566507720947Q25.166633253860475,29.068166507720946,25.166633253860475,29.166666507720947Q25.166633253860475,29.26516650772095,25.147433253860473,29.361766507720947Q25.128233253860472,29.458366507720946,25.090533253860475,29.549366507720947Q25.052833253860474,29.640366507720948,24.998133253860473,29.722266507720946Q24.943433253860473,29.804166507720947,24.873733253860475,29.873766507720948Q24.804133253860474,29.94336650772095,24.722233253860473,29.998166507720946Q24.640333253860472,30.052866507720946,24.549333253860475,30.090566507720947Q24.458333253860474,30.128266507720948,24.361733253860475,30.147466507720946Q24.265133253860473,30.166666507720947,24.166633253860475,30.166666507720947L15.833333253860474,30.166666507720947Q15.734833253860474,30.166666507720947,15.638233253860474,30.147466507720946Q15.541633253860473,30.128266507720948,15.450633253860474,30.090566507720947Q15.359633253860475,30.052866507720946,15.277733253860474,29.998166507720946Q15.195833253860474,29.94336650772095,15.126233253860473,29.873766507720948Q15.056533253860474,29.804166507720947,15.001833253860474,29.722266507720946Q14.947133253860473,29.640366507720948,14.909433253860474,29.549366507720947Q14.871733253860473,29.458366507720946,14.852533253860473,29.361766507720947Q14.833333253860474,29.26516650772095,14.833333253860474,29.166666507720947Q14.833333253860474,29.068166507720946,14.852533253860473,28.971566507720947Q14.871733253860473,28.87496650772095,14.909433253860474,28.783966507720947Q14.947133253860473,28.692966507720946,15.001833253860474,28.61106650772095Q15.056533253860474,28.529166507720948,15.126233253860473,28.459566507720947Q15.195833253860474,28.389866507720946,15.277733253860474,28.33516650772095Q15.359633253860475,28.28046650772095,15.450633253860474,28.242766507720948Q15.541633253860473,28.205066507720947,15.638233253860474,28.18586650772095Q15.734833253860474,28.166666507720947,15.833333253860474,28.166666507720947Z" fill-rule="evenodd" fill="#FFFFFF" fill-opacity="1" style="mix-blend-mode:passthrough"/></g><g><path d="M9.833333015441895,11.666666984558105Q9.833333015441895,11.568175584558105,9.852548015441894,11.471576984558105Q9.871763015441894,11.374977984558106,9.909454015441895,11.283983984558105Q9.947145015441894,11.192988984558106,10.001863015441895,11.111096984558106Q10.056582015441894,11.029203984558105,10.126226015441894,10.959559984558105Q10.195870015441894,10.889915984558105,10.277763015441895,10.835196984558106Q10.359655015441895,10.780478984558105,10.450650015441894,10.742787984558106Q10.541644015441895,10.705096984558105,10.638243015441894,10.685881984558105Q10.734841615441894,10.666666984558105,10.833333015441895,10.666666984558105Q10.931824415441895,10.666666984558105,11.028423015441895,10.685881984558105Q11.125022015441894,10.705096984558105,11.216016015441895,10.742787984558106Q11.307011015441894,10.780478984558105,11.388903015441894,10.835196984558106Q11.470796015441895,10.889915984558105,11.540440015441895,10.959559984558105Q11.610084015441895,11.029203984558105,11.664803015441894,11.111096984558106Q11.719521015441895,11.192988984558106,11.757212015441894,11.283983984558105Q11.794903015441895,11.374977984558106,11.814118015441895,11.471576984558105Q11.833333015441895,11.568175584558105,11.833333015441895,11.666666984558105L11.833333015441895,18.332996984558108Q11.833333015441895,18.431486984558106,11.814118015441895,18.528086984558104Q11.794903015441895,18.624686984558107,11.757212015441894,18.715686984558104Q11.719521015441895,18.806676984558106,11.664803015441894,18.888566984558103Q11.610084015441895,18.970466984558104,11.540440015441895,19.040106984558108Q11.470796015441895,19.109746984558107,11.388903015441894,19.164466984558103Q11.307011015441894,19.219186984558107,11.216016015441895,19.256876984558104Q11.125022015441894,19.294566984558106,11.028423015441895,19.313786984558106Q10.931824415441895,19.332996984558108,10.833333015441895,19.332996984558108Q10.734841615441894,19.332996984558108,10.638243015441894,19.313786984558106Q10.541644015441895,19.294566984558106,10.450650015441894,19.256876984558104Q10.359655015441895,19.219186984558107,10.277763015441895,19.164466984558103Q10.195870015441894,19.109746984558107,10.126226015441894,19.040106984558108Q10.056582015441894,18.970466984558104,10.001863015441895,18.888566984558103Q9.947145015441894,18.806676984558106,9.909454015441895,18.715686984558104Q9.871763015441894,18.624686984558107,9.852548015441894,18.528086984558104Q9.833333015441895,18.431486984558106,9.833333015441895,18.332996984558108L9.833333015441895,11.666666984558105ZM16.500003015441894,11.666666984558105Q16.500003015441894,11.568175584558105,16.519213015441895,11.471576984558105Q16.538423015441893,11.374977984558106,16.576123015441894,11.283983984558105Q16.613813015441895,11.192988984558106,16.668533015441895,11.111096984558106Q16.723243015441895,11.029203984558105,16.792893015441894,10.959559984558105Q16.862533015441894,10.889915984558105,16.944433015441895,10.835196984558106Q17.026323015441896,10.780478984558105,17.117313015441894,10.742787984558106Q17.208313015441895,10.705096984558105,17.304913015441894,10.685881984558105Q17.401513015441893,10.666666984558105,17.500003015441894,10.666666984558105Q17.598493015441896,10.666666984558105,17.695093015441895,10.685881984558105Q17.791693015441894,10.705096984558105,17.882683015441895,10.742787984558106Q17.973673015441896,10.780478984558105,18.055573015441894,10.835196984558106Q18.137463015441895,10.889915984558105,18.207103015441895,10.959559984558105Q18.276753015441894,11.029203984558105,18.331473015441894,11.111096984558106Q18.386183015441894,11.192988984558106,18.423883015441895,11.283983984558105Q18.461573015441893,11.374977984558106,18.480783015441894,11.471576984558105Q18.500003015441894,11.568175584558105,18.500003015441894,11.666666984558105L18.500003015441894,18.332996984558108Q18.500003015441894,18.431486984558106,18.480783015441894,18.528086984558104Q18.461573015441893,18.624686984558107,18.423883015441895,18.715686984558104Q18.386193015441894,18.806676984558106,18.331473015441894,18.888566984558103Q18.276753015441894,18.970466984558104,18.207103015441895,19.040106984558108Q18.137463015441895,19.109746984558107,18.055573015441894,19.164466984558103Q17.973673015441896,19.219186984558107,17.882683015441895,19.256876984558104Q17.791693015441894,19.294566984558106,17.695093015441895,19.313786984558106Q17.598493015441896,19.332996984558108,17.500003015441894,19.332996984558108Q17.401513015441893,19.332996984558108,17.304913015441894,19.313786984558106Q17.208313015441895,19.294566984558106,17.117313015441894,19.256876984558104Q17.026323015441896,19.219186984558107,16.944433015441895,19.164466984558103Q16.862533015441894,19.109746984558107,16.792893015441894,19.040106984558108Q16.723243015441895,18.970466984558104,16.668533015441895,18.888566984558103Q16.613813015441895,18.806676984558106,16.576123015441894,18.715686984558104Q16.538423015441893,18.624686984558107,16.519213015441895,18.528086984558104Q16.500003015441894,18.431486984558106,16.500003015441894,18.332996984558108L16.500003015441894,11.666666984558105Z" fill-rule="evenodd" fill="#FFFFFF" fill-opacity="1" style="mix-blend-mode:passthrough"/></g></g></svg>