<svg xmlns="http://www.w3.org/2000/svg" xmlns:xlink="http://www.w3.org/1999/xlink" fill="none" version="1.1" width="40" height="40" viewBox="0 0 40 40"><defs><clipPath id="master_svg0_1672_2595"><rect x="0" y="0" width="40" height="40" rx="0"/></clipPath></defs><g style="opacity:0.800000011920929;" clip-path="url(#master_svg0_1672_2595)"><g><path d="M11.66682609375,33.166748046875L3.33349609375,33.166748046875Q3.23500469375,33.166748046875,3.13840609375,33.185958046875Q3.04180709375,33.205178046875,2.95081309375,33.242868046875Q2.85981809375,33.280558046875,2.77792609375,33.335278046875Q2.69603309375,33.389998046875,2.62638909375,33.459638046875Q2.55674509375,33.529288046875,2.50202609375,33.611178046875Q2.4473080937500002,33.693068046875,2.40961709375,33.784068046875Q2.37192609375,33.875058046875,2.35271109375,33.971658046875Q2.33349609375,34.068258046875,2.33349609375,34.166748046875Q2.33349609375,34.265238046875,2.35271109375,34.361838046875Q2.37192609375,34.458438046875,2.40961709375,34.549428046875Q2.4473080937500002,34.640428046875,2.50202609375,34.722318046875Q2.55674509375,34.804208046875004,2.62638909375,34.873858046875Q2.69603309375,34.943498046875,2.77792609375,34.998218046874996Q2.85981809375,35.052938046875,2.95081309375,35.090628046875Q3.04180709375,35.128318046875,3.13840609375,35.147528046874996Q3.23500469375,35.166748046875,3.33349609375,35.166748046875L11.66682609375,35.166748046875Q13.00110609375,35.166748046875,15.99359609375,36.175578046875Q18.114596093750002,36.890648046875,19.31809609375,37.175848046875004Q21.38959609375,37.666748046875,23.33349609375,37.666748046875Q26.86879609375,37.666748046875,31.37039609375,34.802078046874996Q34.32759609375,32.920218046875,36.54059609375,30.707188046875Q38.08349609375,29.164298046875,38.08349609375,27.708418046875Q38.08349609375,26.772873046875,37.42949609375,26.200629046875Q36.81939609375,25.666748046875,35.83349609375,25.666748046875Q34.086196093750004,25.666748046875,21.73119609375,28.134108046875L16.98309609375,26.551397046875Q16.82909609375,26.500081046875,16.66679609375,26.500081046875Q16.56829609375,26.500081046875,16.471696093749998,26.519295046875Q16.375096093750003,26.538510046875,16.28409609375,26.576201046875Q16.19319609375,26.613892146875,16.11129609375,26.668610976875Q16.02939609375,26.723329846875,15.95969609375,26.792974046875Q15.89009609375,26.862618046875,15.83539609375,26.944510046875Q15.78059609375,27.026403046875,15.74299609375,27.117397046875Q15.70529609375,27.208391046875,15.68599609375,27.304990046874998Q15.66679609375,27.401589046875,15.66679609375,27.500081046875Q15.66679609375,27.578305046875,15.67899609375,27.655578046875Q15.69119609375,27.732848046875,15.71519609375,27.807288046875Q15.73919609375,27.881738046875,15.77449609375,27.951528046875Q15.80979609375,28.021328046875,15.85559609375,28.084788046875Q15.90129609375,28.148248046875,15.95639609375,28.203828046875Q16.01139609375,28.259398046875,16.07449609375,28.305738046875Q16.137496093750002,28.352078046875,16.20689609375,28.388048046875Q16.27639609375,28.424028046875,16.35059609375,28.448768046875L16.35129609375,28.449008046875L21.35059609375,30.115428046875Q21.60249609375,30.199408046875,21.86299609375,30.147328046875Q34.26589609375,27.666748046875,35.83349609375,27.666748046875Q36.06789609375,27.666748046875,36.11249609375,27.705788046875L36.08349609375,27.708418046875Q36.08349609375,28.335868046875,35.12639609375,29.292978046875Q33.06859609375,31.350758046875,30.29659609375,33.114748046875Q26.28629609375,35.666748046875,23.33349609375,35.666748046875Q21.62329609375,35.666748046875,19.77929609375,35.229738046875Q18.66589609375,34.965848046874996,16.63249609375,34.280378046875Q13.32915609375,33.166748046875,11.66682609375,33.166748046875Z" fill-rule="evenodd" fill="#FFFFFF" fill-opacity="1"/></g><g><path d="M23.30929609375,26.360509999999998Q22.79999609375,27.20935,21.11209609375,28.33462Q21.00939609375,28.403109999999998,20.92639609375,28.494529999999997Q20.84339609375,28.58595,20.78519609375,28.69481Q20.72689609375,28.80367,20.69689609375,28.92343Q20.66679609375,29.0432,20.66679609375,29.16667Q20.66679609375,29.26516,20.68599609375,29.36176Q20.70529609375,29.45836,20.74299609375,29.54935Q20.78059609375,29.640340000000002,20.83539609375,29.72224Q20.89009609375,29.80413,20.95969609375,29.87377Q21.02939609375,29.94342,21.11129609375,29.99814Q21.19319609375,30.0529,21.28409609375,30.0905Q21.37509609375,30.1282,21.47169609375,30.1475Q21.56829609375,30.1667,21.66679609375,30.1667Q21.96959609375,30.1667,22.22149609375,29.99872Q24.28359609375,28.62398,25.02429609375,27.389499999999998Q25.99529609375,25.771250000000002,24.96679609375,24.4Q23.83579609375,22.89193,19.07599609375,20.949152Q14.30059609375,19,11.66682609375,19Q9.16168609375,19,6.379026093749999,20.59009Q4.31887009375,21.76732,2.62731809375,23.45863L2.62639009375,23.45956Q2.48573709375,23.60021,2.40961709375,23.78398Q2.33349609375,23.96776,2.33349609375,24.16667Q2.33349609375,24.26516,2.35271109375,24.36176Q2.37192609375,24.45836,2.40961709375,24.54935Q2.4473080937500002,24.640349999999998,2.50202609375,24.72224Q2.55674509375,24.80413,2.62638909375,24.87377Q2.69603309375,24.94342,2.77792609375,24.99814Q2.85981809375,25.05286,2.95081309375,25.09055Q3.04180709375,25.128239999999998,3.13840609375,25.14745Q3.23500469375,25.16667,3.33349609375,25.16667Q3.53240909375,25.16667,3.7161800937500002,25.09055Q3.89995109375,25.01443,4.04060409375,24.87377Q5.543126093750001,23.37125,7.37130609375,22.32658Q9.69280609375,21,11.66682609375,21Q13.90809609375,21,18.32019609375,22.80085Q20.24329609375,23.5858,21.66399609375,24.38673Q23.03769609375,25.16116,23.36679609375,25.6Q23.58839609375,25.89541,23.30929609375,26.360509999999998Z" fill-rule="evenodd" fill="#FFFFFF" fill-opacity="1"/></g><g><path d="M35.00019609375,7.666748046875Q35.66679609375,7.666748046875,35.66679609375,8.333418046875L35.66679609375,21.666748046875Q35.66679609375,21.765248046875,35.68599609375,21.861848046875Q35.70529609375,21.958448046875,35.74299609375,22.049448046875Q35.78059609375,22.140448046875,35.83539609375,22.222348046875Q35.89009609375,22.304248046875,35.95969609375,22.373848046875Q36.02939609375,22.443448046874998,36.11129609375,22.498248046875Q36.193196093750004,22.552948046875002,36.28409609375,22.590648046875Q36.37509609375,22.628348046875,36.47169609375,22.647548046875002Q36.56829609375,22.666748046875,36.66679609375,22.666748046875Q36.765296093749996,22.666748046875,36.861896093750005,22.647548046875002Q36.95849609375,22.628348046875,37.04949609375,22.590648046875Q37.14049609375,22.552948046875002,37.22239609375,22.498248046875Q37.30429609375,22.443448046874998,37.373896093750005,22.373848046875Q37.44359609375,22.304248046875,37.49829609375,22.222348046875Q37.55299609375,22.140448046875,37.59069609375,22.049448046875Q37.62839609375,21.958448046875,37.647596093749996,21.861848046875Q37.66679609375,21.765248046875,37.66679609375,21.666748046875L37.66679609375,8.333418046875Q37.66679609375,7.228842046875,36.88579609375,6.447799046875Q36.10469609375,5.666748046875,35.00019609375,5.666748046875L15.00016609375,5.666748046875Q13.89557509375,5.666748046875,13.11453109375,6.447800046875Q12.33349609375,7.228843046875,12.33349609375,8.333418046875L12.33349609375,15.000078046875Q12.33349609375,15.098568046875,12.352711093749999,15.195168046875Q12.37192609375,15.291768046875,12.40961709375,15.382768046875Q12.44730809375,15.473758046875,12.50202609375,15.555648046875Q12.55674509375,15.637538046875,12.62638909375,15.707188046875Q12.69603309375,15.776828046875,12.77792609375,15.831548046875Q12.85981809375,15.886268046875,12.95081309375,15.923958046875Q13.04180709375,15.961648046875,13.13840609375,15.980868046875Q13.23500469375,16.000078046875,13.33349609375,16.000078046875Q13.43198749375,16.000078046875,13.52858609375,15.980868046875Q13.62518509375,15.961648046875,13.71617909375,15.923958046875Q13.80717409375,15.886268046875,13.88906609375,15.831548046875Q13.97095909375,15.776828046875,14.04060309375,15.707188046875Q14.11024709375,15.637538046875,14.16496609375,15.555648046875Q14.21968409375,15.473758046875,14.25737509375,15.382758046875Q14.29506609375,15.291768046875,14.314281093750001,15.195168046875Q14.33349609375,15.098568046875,14.33349609375,15.000078046875L14.33349609375,8.333418046875Q14.33349609375,7.666748046875,15.00016609375,7.666748046875L35.00019609375,7.666748046875Z" fill-rule="evenodd" fill="#FFFFFF" fill-opacity="1"/></g><g><path d="M19.83349609375,14.166748046875L19.83349609375,6.666748046875Q19.83349609375,6.568256646875,19.85271109375,6.471658046875Q19.871926093749998,6.375059046875,19.90961709375,6.284065046875Q19.94730809375,6.193070046875,20.00202609375,6.111178046875Q20.05674509375,6.029285046875,20.12638909375,5.959641046875Q20.19603309375,5.889997046875,20.27792609375,5.835278046875Q20.35981809375,5.780560046875,20.45081309375,5.742869046875Q20.54180709375,5.705178046875,20.63840609375,5.685963046875Q20.73500469375,5.666748046875,20.83349609375,5.666748046875L29.16682609375,5.666748046875Q29.265316093750002,5.666748046875,29.36191609375,5.685963046875Q29.45851609375,5.705178046875,29.54951609375,5.742869046875Q29.64050609375,5.780560046875,29.72239609375,5.835278046875Q29.80428609375,5.889997046875,29.87393609375,5.959641046875Q29.94357609375,6.029285046875,29.99829609375,6.111178046875Q30.05301609375,6.193070046875,30.09070609375,6.284065046875Q30.12839609375,6.375059046875,30.147616093750003,6.471658046875Q30.16682609375,6.568256646875,30.16682609375,6.666748046875L30.16682609375,14.166748046875Q30.16682609375,14.265238046875,30.147616093750003,14.361838046875Q30.12839609375,14.458438046875,30.09070609375,14.549428046875Q30.05301609375,14.640428046875,29.99829609375,14.722318046875Q29.94357609375,14.804208046875,29.87393609375,14.873858046875Q29.80428609375,14.943498046875,29.72239609375,14.998218046875Q29.64050609375,15.052938046875,29.54950609375,15.090628046875Q29.45851609375,15.128318046875,29.36191609375,15.147528046875Q29.265316093750002,15.166748046875,29.16682609375,15.166748046875L20.83349609375,15.166748046875Q20.73500469375,15.166748046875,20.63840609375,15.147528046875Q20.54180709375,15.128318046875,20.45081309375,15.090628046875Q20.35981809375,15.052938046875,20.27792609375,14.998218046875Q20.19603309375,14.943498046875,20.12638909375,14.873858046875Q20.05674509375,14.804208046875,20.00202609375,14.722318046875Q19.94730809375,14.640428046875,19.90961709375,14.549428046875Q19.871926093749998,14.458438046875,19.85271109375,14.361838046875Q19.83349609375,14.265238046875,19.83349609375,14.166748046875ZM21.83349609375,7.666748046875L21.83349609375,13.166748046875L28.16682609375,13.166748046875L28.16682609375,7.666748046875L21.83349609375,7.666748046875Z" fill="#FFFFFF" fill-opacity="1"/></g></g></svg>