<svg xmlns="http://www.w3.org/2000/svg" xmlns:xlink="http://www.w3.org/1999/xlink" fill="none" version="1.1" width="20" height="20" viewBox="0 0 20 20"><defs><clip-path  id="0_14_6664"><rect x="0" y="0" width="20" height="20" rx="0"/></clip-path ></defs><g  clip-path ="url(#0_14_6664)"><g><path d="M10.000078046875,18.33320390625C12.301248046875,18.33320390625,14.384548046875,17.40040390625,15.892648046875,15.89240390625C17.400648046875,14.38430390625,18.333448046875,12.30100390625,18.333448046875,9.99983390625C18.333448046875,7.69867390625,17.400648046875,5.61533390625,15.892648046875,4.1072739062500006C14.384548046875,2.59924590625,12.301248046875,1.66650390625,10.000078046875,1.66650390625C7.698918046875,1.66650390625,5.615578046875,2.59924590625,4.1075180468750006,4.1072739062500006C2.599490046875,5.61533390625,1.666748046875,7.69867390625,1.666748046875,9.99983390625C1.666748046875,12.30100390625,2.599490046875,14.38430390625,4.1075180468750006,15.89240390625C5.615578046875,17.40040390625,7.698918046875,18.33320390625,10.000078046875,18.33320390625Z" fill="#FFFFFF" fill-opacity="0.009999999776482582"/><path d="M1.861121046875,13.43830390625Q2.531645046875,15.02360390625,3.753968046875,16.24590390625Q4.976318046875,17.46830390625,6.561608046875,18.13880390625Q8.203298046875,18.83320390625,10.000078046875,18.83320390625Q11.796848046875,18.83320390625,13.438548046875,18.13880390625Q15.023848046875,17.46830390625,16.246148046875,16.24590390625Q17.468548046875,15.02360390625,18.139048046875,13.43830390625Q18.833448046875,11.79660390625,18.833448046875,9.99983390625Q18.833448046875,8.20305390625,18.139048046875,6.56136390625Q17.468548046875,4.97607390625,16.246148046875,3.75372390625Q15.023848046875,2.53140090625,13.438548046875,1.86087690625Q11.796848046875,1.16650390625,10.000078046875,1.16650390625Q8.203288046874999,1.16650390625,6.561608046875,1.86087690625Q4.976318046875,2.53139990625,3.753968046875,3.75372390625Q2.531644046875,4.97607390625,1.861121046875,6.56136390625Q1.166748046875,8.203043906249999,1.166748046875,9.99983390625Q1.166748046875,11.79660390625,1.861121046875,13.43830390625ZM10.000078046875,17.83320390625Q6.755448046875,17.83320390625,4.461078046875,15.53880390625Q2.166748046875,13.24450390625,2.166748046875,9.99983390625Q2.166748046875,6.75519390625,4.461078046875,4.46083390625Q6.755448046875,2.16650390625,10.000078046875,2.16650390625Q13.244748046875,2.16650390625,15.539048046875,4.46083390625Q17.833448046875,6.75520390625,17.833448046875,9.99983390625Q17.833448046875,13.24450390625,15.539048046875,15.53880390625Q13.244748046875,17.83320390625,10.000078046875,17.83320390625Z" fill-rule="evenodd" fill="#1FEFA3" fill-opacity="1"/></g><g><path d="M14.520118046875,7.853741L14.520298046875,7.853553Q14.590628046875,7.783227,14.628688046875,7.691342Q14.666748046875,7.5994562,14.666748046875,7.5Q14.666748046875,7.4005438,14.628688046875,7.308658Q14.590628046875,7.216773,14.520298046875,7.146447Q14.449978046875,7.07612,14.358088046875,7.03806Q14.266198046875001,7,14.166748046875,7Q14.067288046875,7,13.975408046875,7.03806Q13.883518046875,7.07612,13.813198046875,7.146447L13.813008046875,7.146634L9.166748046875,11.79289L7.020489046875,9.64663L7.020301046875,9.64645Q6.949975046875,9.57612,6.858090046875,9.53806Q6.766204246875,9.5,6.666748046875,9.5Q6.567291846875,9.5,6.475406046875,9.53806Q6.383521046875,9.57612,6.313195046875,9.64645Q6.242868046875,9.71677,6.204808046875,9.80866Q6.166748046875,9.90054,6.166748046875,10Q6.166748046875,10.09946,6.204808046875,10.19134Q6.242868046875,10.28323,6.313195046875,10.35355L6.313382046875,10.35374L8.813198046875,12.85355Q8.848018046875,12.88837,8.888958046875,12.91573Q8.929908046875,12.94309,8.975408046875,12.96194Q9.020908046875,12.98078,9.069198046875,12.99039Q9.117498046875,13,9.166748046875,13Q9.215998046875,13,9.264288046875,12.99039Q9.312588046875,12.98078,9.358088046875,12.96194Q9.403588046875,12.94309,9.444528046875,12.91573Q9.485478046875,12.88837,9.520298046875,12.85355L14.520118046875,7.853741Z" fill-rule="evenodd" fill="#1FEFA3" fill-opacity="1"/></g></g></svg>