<svg xmlns="http://www.w3.org/2000/svg" xmlns:xlink="http://www.w3.org/1999/xlink" fill="none" version="1.1" width="40" height="40" viewBox="0 0 40 40"><defs><clipPath id="master_svg0_2695_08838"><rect x="0" y="0" width="40" height="40" rx="0"/></clipPath></defs><g style="opacity:0.800000011920929;" clip-path="url(#master_svg0_2695_08838)"><g><ellipse cx="20" cy="8.33349609375" rx="5" ry="5" fill-opacity="0" stroke-opacity="1" stroke="#FFFFFF" fill="none" stroke-width="2" style="mix-blend-mode:passthrough"/></g><g><ellipse cx="19.999837160110474" cy="33.333333253860474" rx="3.3333332538604736" ry="3.3333332538604736" fill-opacity="0" stroke-opacity="1" stroke="#FFFFFF" fill="none" stroke-width="2" style="mix-blend-mode:passthrough"/></g><g><ellipse cx="33.333333253860474" cy="33.333333253860474" rx="3.3333332538604736" ry="3.3333332538604736" fill-opacity="0" stroke-opacity="1" stroke="#FFFFFF" fill="none" stroke-width="2" style="mix-blend-mode:passthrough"/></g><g><ellipse cx="6.666829347610474" cy="33.333333253860474" rx="3.3333332538604736" ry="3.3333332538604736" fill-opacity="0" stroke-opacity="1" stroke="#FFFFFF" fill="none" stroke-width="2" style="mix-blend-mode:passthrough"/></g><g><path d="M5.66650390625,24.99845390625L5.66650390625,24.99983390625Q5.66650390625,25.098323906250002,5.68571890625,25.19492390625Q5.70493390625,25.29152390625,5.74262490625,25.38252390625Q5.78031590625,25.47351390625,5.83503390625,25.55540390625Q5.88975290625,25.63730390625,5.95939690625,25.70694390625Q6.02904090625,25.77658390625,6.11093390625,25.83130390625Q6.19282590625,25.88602390625,6.28382090625,25.92371390625Q6.37481490625,25.96140390625,6.47141390625,25.98062390625Q6.56801250625,25.99983390625,6.66650390625,25.99983390625Q6.76499530625,25.99983390625,6.86159390625,25.98062390625Q6.95819290625,25.96140390625,7.04918690625,25.92371390625Q7.14018190625,25.88602390625,7.22207390625,25.83130390625Q7.30396690625,25.77658390625,7.37361090625,25.70694390625Q7.44325490625,25.63730390625,7.49797390625,25.55540390625Q7.55269190625,25.47351390625,7.59038290625,25.38252390625Q7.62807390625,25.29152390625,7.64728890625,25.19492390625Q7.66650390625,25.098323906250002,7.66650390625,24.99983390625Q7.66650390625,24.09972390625,8.51158390625,23.42366390625Q9.45805390625,22.66650390625,10.83317390625,22.66650390625L29.16650390625,22.66650390625Q30.54160390625,22.66650390625,31.48810390625,23.42366390625Q32.33320390625,24.09972390625,32.33320390625,24.99983390625Q32.33320390625,25.098323906250002,32.352403906250004,25.19492390625Q32.37160390625,25.29152390625,32.40930390625,25.38252390625Q32.44700390625,25.47351390625,32.50170390625,25.55540390625Q32.55640390625,25.63730390625,32.626103906249995,25.70694390625Q32.69570390625,25.77658390625,32.77760390625,25.83130390625Q32.85950390625,25.88602390625,32.95050390625,25.92371390625Q33.04150390625,25.96140390625,33.138103906249995,25.98062390625Q33.234703906250004,25.99983390625,33.33320390625,25.99983390625Q33.43170390625,25.99983390625,33.52830390625,25.98062390625Q33.62490390625,25.96140390625,33.71580390625,25.92371390625Q33.806803906249996,25.88602390625,33.88870390625,25.83130390625Q33.97060390625,25.77658390625,34.04030390625,25.70694390625Q34.10990390625,25.63730390625,34.16460390625,25.55540390625Q34.21940390625,25.47351390625,34.25700390625,25.38252390625Q34.29470390625,25.29152390625,34.313903906250005,25.19492390625Q34.33320390625,25.098323906250002,34.33320390625,24.99983390625Q34.33320390625,24.07357390625,33.889803906249995,23.23493390625Q33.47640390625,22.45306290625,32.73750390625,21.86192290625Q31.24320390625,20.66650390625,29.16650390625,20.66650390625L10.83317390625,20.66650390625Q8.75649390625,20.66650390625,7.26220290625,21.86192290625Q6.52327390625,22.45305990625,6.10989490625,23.23493390625Q5.66683490625,24.07294390625,5.66650390625,24.99845390625Z" fill-rule="evenodd" fill="#FFFFFF" fill-opacity="1" style="mix-blend-mode:passthrough"/></g><g><path d="M19,18.33349609375Q19,18.23500469375,19.019215,18.13840609375Q19.038429999999998,18.04180709375,19.076121,17.95081309375Q19.113812,17.85981809375,19.16853,17.77792609375Q19.223249,17.69603309375,19.292893,17.62638909375Q19.362537,17.55674509375,19.44443,17.50202609375Q19.526322,17.44730809375,19.617317,17.40961709375Q19.708311,17.371926093749998,19.80491,17.35271109375Q19.9015086,17.33349609375,20,17.33349609375Q20.0984914,17.33349609375,20.19509,17.35271109375Q20.291689,17.371926093749998,20.382683,17.40961709375Q20.473678,17.44730809375,20.55557,17.50202609375Q20.637463,17.55674509375,20.707107,17.62638909375Q20.776751,17.69603309375,20.83147,17.77792609375Q20.886188,17.85981809375,20.923879,17.95081309375Q20.961570000000002,18.04180709375,20.980785,18.13840609375Q21,18.23500469375,21,18.33349609375L21,25.00016609375Q21,25.09865609375,20.980785,25.19525609375Q20.961570000000002,25.29184609375,20.923879,25.38284609375Q20.886188,25.473836093750002,20.83147,25.55573609375Q20.776751,25.63762609375,20.707107,25.70726609375Q20.637463,25.77691609375,20.55557,25.83163609375Q20.473678,25.88634609375,20.382683,25.92404609375Q20.291689,25.961736093749998,20.19509,25.98094609375Q20.0984914,26.00016609375,20,26.00016609375Q19.9015086,26.00016609375,19.80491,25.98094609375Q19.708311,25.961736093749998,19.617317,25.92404609375Q19.526322,25.88634609375,19.44443,25.83163609375Q19.362537,25.77691609375,19.292893,25.70726609375Q19.223249,25.63762609375,19.16853,25.55573609375Q19.113812,25.473836093750002,19.076121,25.38284609375Q19.038429999999998,25.29184609375,19.019215,25.19525609375Q19,25.09865609375,19,25.00016609375L19,18.33349609375Z" fill-rule="evenodd" fill="#FFFFFF" fill-opacity="1" style="mix-blend-mode:passthrough"/></g></g></svg>