<svg xmlns="http://www.w3.org/2000/svg" xmlns:xlink="http://www.w3.org/1999/xlink" fill="none" version="1.1" width="200" height="200" viewBox="0 0 200 200"><defs><clipPath id="master_svg0_848_7406"><rect x="0" y="0" width="200" height="200" rx="0"/></clipPath></defs><g clip-path="url(#master_svg0_848_7406)"><g><ellipse cx="100" cy="100" rx="100" ry="100" fill="#6FBCF0" fill-opacity="1"/></g><g><path d="M52.03124625,152.03078125C62.03125625,169.37478125,79.99995625,179.76578125,99.99995625,179.76578125C119.99995625,179.76578125,137.96875625,169.37478125,147.96865624999998,152.03078125C157.96865624999998,134.68778125,157.96865624999998,113.98438125,147.96865624999998,96.64058125L105.78125625,23.51562125C103.20315625,19.06250125,96.79685624999999,19.06250125,94.21875625,23.51562125L52.03124625,96.64058125C41.95312625,113.98438125,41.95312625,134.68778125,52.03124625,152.03078125ZM88.12495625,58.28128125L97.10935624999999,42.65628125C98.35935624999999,40.46878125,101.64065625,40.46878125,102.89065625,42.65628125L137.49995625,102.65628125C143.82815625,113.67188125,145.07765625000002,126.40578125,141.09375625,138.12478125C140.70315625,136.24978125,140.07815625,134.29678124999998,139.29685625000002,132.34378125C134.53125625,120.23478125,123.67185625,110.93748125,107.10935624999999,104.68748125C95.70315625,100.39058125,88.43745625,93.98438125,85.54685624999999,85.78128125C81.79685624999999,75.15628125,85.78125625,63.59378125,88.12495625,58.28128125ZM72.73435625,84.84378125L62.49995625,102.65628125C54.68745625,116.24998125,54.68745625,132.42178124999998,62.49995625,146.01578125C70.31245625,159.60978125,84.37495625,167.65578125,99.99995625,167.65578125C110.39065625,167.65578125,120.07815625,164.06278125,127.73435625,157.73478125C128.74995625,155.23478125,131.79685625000002,146.09378125,127.96875625,136.64078125C124.45315625,127.89078125,116.01565625,120.93778125,102.81245625,115.93748125C87.96875625,110.31248125,78.28125625,101.48438125,74.06245625,89.76558125C73.51565625,88.12498125,73.12495625,86.48438125,72.73435625,84.84378125Z" fill-rule="evenodd" fill="#FFFFFF" fill-opacity="1"/><path d="" fill="#FFFFFF" fill-opacity="0"/></g></g></svg>