<svg xmlns="http://www.w3.org/2000/svg" xmlns:xlink="http://www.w3.org/1999/xlink" fill="none" version="1.1" width="40" height="40" viewBox="0 0 40 40"><defs><clipPath id="0_2560_2088"><rect x="0" y="0" width="40" height="40" rx="0"/></clipPath></defs><g style="opacity:0.800000011920929;" clip-path="url(#0_2560_2088)"><g><path d="M34.25318599853516,12.188831984558105L32.22188599853516,10.834614984558105L31.112485998535156,12.498718984558106L33.14378599853516,13.852936984558106Q35.118685998535156,15.169406984558105,35.39508599853516,15.687806984558105Q35.671285998535154,16.206016984558104,35.663385998535155,18.564316984558104Q35.650785998535156,22.225266984558104,35.58318599853516,24.931866984558106Q35.47318599853516,29.340566984558105,35.21868599853516,30.783566984558107Q34.87218599853516,32.7478669845581,33.79988599853516,33.8202669845581Q32.728285998535156,34.89196698455811,30.739085998535156,35.239466984558106Q29.278285998535157,35.49466698455811,24.808285998535155,35.60646698455811L24.807685998535156,35.60646698455811Q20.000785998535157,35.7264669845581,15.193385998535156,35.60646698455811L15.192785998535156,35.60646698455811Q10.722895998535156,35.49466698455811,9.262155998535157,35.239466984558106Q7.272945998535157,34.89196698455811,6.201325998535156,33.8202669845581Q5.128965998535156,32.7478669845581,4.782515998535156,30.783566984558107Q4.528045998535156,29.340766984558105,4.418005998535156,24.931866984558106Q4.350165998535156,22.214166984558105,4.337875998535156,18.564296984558105L4.337875998535156,18.564096984558105Q4.329970998535156,16.205886984558106,4.606165998535156,15.687726984558106Q4.882365998535156,15.169546984558107,6.8572259985351565,13.852966984558105L6.857265998535157,13.852926984558106L8.888615998535156,12.498720984558105L7.779225998535156,10.834612984558106L5.747865998535156,12.188835984558105L5.747815998535156,12.188868984558106Q3.3541863985351563,13.784636984558105,2.841235998535156,14.746966984558105Q2.3282959985351566,15.709286984558105,2.337887998535156,18.570796984558108L2.3378889985351563,18.571036984558106Q2.3502449985351563,22.242466984558106,2.4186269985351565,24.981766984558107Q2.532408998535156,29.540466984558105,2.8129119985351565,31.130866984558107Q3.2688889985351564,33.716266984558104,4.787045998535156,35.23436698455811Q6.305805998535156,36.75326698455811,8.917945998535156,37.209666984558105Q10.524705998535156,37.49036698455811,15.142785998535157,37.605866984558105L15.143485998535157,37.605866984558105Q20.000785998535157,37.72716698455811,24.857685998535157,37.605866984558105L24.858285998535155,37.605866984558105Q29.476485998535157,37.49036698455811,31.083285998535157,37.209666984558105Q33.69538599853516,36.75326698455811,35.214085998535154,35.234466984558104Q36.732285998535154,33.716266984558104,37.18828599853516,31.130866984558107Q37.468785998535154,29.540366984558105,37.582485998535155,24.981866984558106Q37.65068599853516,22.253566984558105,37.66328599853516,18.571016984558106Q37.67288599853516,15.709486984558104,37.15988599853516,14.746886984558106Q36.64678599853516,13.784406984558105,34.25318599853516,12.188831984558105Z" fill-rule="evenodd" fill="#FFFFFF" fill-opacity="1" style="mix-blend-mode:passthrough"/></g><g><path d="M25.659533253860474,24.437156030883788L37.18113325386047,17.52415903088379L36.15213325386048,15.80917303088379L24.630533253860474,22.722176030883787Q22.480533253860475,24.01218603088379,21.726433253860474,24.36668603088379Q20.728833253860472,24.83566603088379,20.000033253860472,24.83566603088379Q19.271133253860473,24.83566603088379,18.273533253860474,24.36668603088379Q17.519533253860473,24.01216603088379,15.369533253860473,22.722176030883787L3.847828253860474,15.80917203088379L2.8188382538604735,17.524160030883788L14.340533253860473,24.437156030883788Q16.577133253860474,25.77913603088379,17.422633253860475,26.176646030883788Q18.824433253860473,26.83566603088379,20.000033253860472,26.83566603088379Q21.175533253860472,26.83566603088379,22.577333253860473,26.176646030883788Q23.422833253860475,25.77915603088379,25.659533253860474,24.437156030883788Z" fill-rule="evenodd" fill="#FFFFFF" fill-opacity="1" style="mix-blend-mode:passthrough"/></g><g><path d="M30.66669963684082,10.000003253860474L30.66669963684082,20.000033253860472L32.66669963684082,20.000033253860472L32.66669963684082,10.000003253860474Q32.66669963684082,4.871723253860473,31.39739963684082,3.6025312538604735Q30.12819963684082,2.3333332538604736,24.99999963684082,2.3333332538604736L14.99996963684082,2.3333332538604736Q9.87171963684082,2.3333332538604736,8.60250963684082,3.602543253860474Q7.33329963684082,4.871733253860474,7.33329963684082,10.000003253860474L7.33329963684082,20.000033253860472L9.33329963684082,20.000033253860472L9.33329963684082,10.000003253860474Q9.33329963684082,5.7001732538604735,10.01671963684082,5.0167532538604735Q10.70014963684082,4.333333253860474,14.99996963684082,4.333333253860474L24.99999963684082,4.333333253860474Q29.29979963684082,4.333333253860474,29.98319963684082,5.016773253860474Q30.66669963684082,5.7001732538604735,30.66669963684082,10.000003253860474Z" fill-rule="evenodd" fill="#FFFFFF" fill-opacity="1" style="mix-blend-mode:passthrough"/></g><g><path d="M16.66666603088379,9L23.33333603088379,9Q23.43182603088379,9,23.52842603088379,9.019214999999999Q23.625026030883788,9.03843,23.71601603088379,9.076121Q23.80700603088379,9.113812,23.88890603088379,9.16853Q23.97079603088379,9.223249,24.04043603088379,9.292893Q24.11008603088379,9.362537,24.16480603088379,9.44443Q24.219526030883788,9.526322,24.25721603088379,9.617317Q24.294906030883787,9.708311,24.31411603088379,9.80491Q24.33333603088379,9.9015086,24.33333603088379,10Q24.33333603088379,10.0984914,24.31411603088379,10.19509Q24.294906030883787,10.291689,24.25721603088379,10.382683Q24.219526030883788,10.473678,24.16480603088379,10.55557Q24.11008603088379,10.637463,24.04043603088379,10.707107Q23.97079603088379,10.776751,23.88890603088379,10.83147Q23.80700603088379,10.886188,23.71601603088379,10.923879Q23.625026030883788,10.96157,23.52842603088379,10.980785000000001Q23.43182603088379,11,23.33333603088379,11L16.66666603088379,11Q16.56817463088379,11,16.47157603088379,10.980785000000001Q16.374977030883787,10.96157,16.28398303088379,10.923879Q16.19298803088379,10.886188,16.11109603088379,10.83147Q16.02920303088379,10.776751,15.959559030883788,10.707107Q15.889915030883788,10.637463,15.83519603088379,10.55557Q15.780478030883788,10.473678,15.74278703088379,10.382683Q15.705096030883789,10.291689,15.685881030883788,10.19509Q15.666666030883789,10.0984914,15.666666030883789,10Q15.666666030883789,9.9015086,15.685881030883788,9.80491Q15.705096030883789,9.708311,15.74278703088379,9.617317Q15.780478030883788,9.526322,15.83519603088379,9.44443Q15.889915030883788,9.362537,15.959559030883788,9.292893Q16.02920303088379,9.223249,16.11109603088379,9.16853Q16.19298803088379,9.113812,16.28398303088379,9.076121Q16.374977030883787,9.03843,16.47157603088379,9.019214999999999Q16.56817463088379,9,16.66666603088379,9ZM16.66804710088379,17.66667L23.33333603088379,17.66667Q23.43182603088379,17.66666,23.52842603088379,17.64745Q23.625026030883788,17.628230000000002,23.71601603088379,17.59054Q23.80700603088379,17.55285,23.88890603088379,17.49813Q23.97079603088379,17.44342,24.04043603088379,17.37377Q24.11008603088379,17.30413,24.16480603088379,17.22224Q24.219526030883788,17.140340000000002,24.25721603088379,17.04935Q24.294906030883787,16.95835,24.31411603088379,16.86176Q24.33333603088379,16.76516,24.33333603088379,16.66667Q24.33333603088379,16.568170000000002,24.31411603088379,16.47158Q24.294906030883787,16.37498,24.25721603088379,16.28398Q24.219526030883788,16.19299,24.16480603088379,16.11109Q24.11008603088379,16.0292,24.04043603088379,15.95956Q23.97079603088379,15.88991,23.88890603088379,15.8352Q23.80700603088379,15.78048,23.71601603088379,15.74279Q23.625026030883788,15.7051,23.52842603088379,15.685880000000001Q23.43182603088379,15.66667,23.33333603088379,15.66667L16.66666603088379,15.66667Q16.56817463088379,15.66667,16.47157603088379,15.685880000000001Q16.374977030883787,15.70509,16.28398303088379,15.74279Q16.19298803088379,15.78048,16.11109603088379,15.8352Q16.02920303088379,15.88991,15.959559030883788,15.95956Q15.889915030883788,16.0292,15.83519603088379,16.11109Q15.780478030883788,16.19299,15.74278703088379,16.28398Q15.705096030883789,16.37498,15.685881030883788,16.47158Q15.666666030883789,16.568170000000002,15.666666030883789,16.66667Q15.666666030883789,16.76516,15.685881030883788,16.86176Q15.705096030883789,16.95835,15.74278703088379,17.04935Q15.780478030883788,17.140340000000002,15.83519603088379,17.22224Q15.889915030883788,17.30413,15.959559030883788,17.37377Q16.02920303088379,17.44342,16.11109603088379,17.49814Q16.19298803088379,17.55285,16.28398303088379,17.59055Q16.374977030883787,17.628239999999998,16.47157603088379,17.64745Q16.56817463088379,17.66667,16.66666603088379,17.66667L16.66804710088379,17.66667Z" fill-rule="evenodd" fill="#FFFFFF" fill-opacity="1" style="mix-blend-mode:passthrough"/></g></g></svg>