<svg xmlns="http://www.w3.org/2000/svg" xmlns:xlink="http://www.w3.org/1999/xlink" fill="none" version="1.1" width="24" height="24" viewBox="0 0 24 24"><defs><clipPath id="master_svg0_2641_4474"><rect x="0" y="0" width="24" height="24" rx="0"/></clipPath></defs><g style="opacity:0.6000000238418579;" clip-path="url(#master_svg0_2641_4474)"><g><path d="M18.1872,3.81281Q15.6244,1.25,12,1.25Q8.37562,1.2499989999999999,5.81281,3.81281Q3.25,6.37561,3.25,10Q3.25,12.7551,4.822647,15.006Q6.35895,17.205,8.85238,18.1666Q8.98264,18.2168,9.122250000000001,18.2168L14.8778,18.2168Q15.0174,18.2168,15.1476,18.1666Q17.6411,17.205,19.1774,15.006Q20.75,12.7551,20.75,10Q20.75,6.37562,18.1872,3.81281ZM6.87347,4.87347Q8.99694,2.749999,12,2.749999Q15.0031,2.75,17.1265,4.87347Q19.25,6.99694,19.25,10Q19.25,12.283,17.947699999999998,14.1469Q16.7132,15.9139,14.7348,16.7168L9.26516,16.7168Q7.28679,15.9139,6.05227,14.1469Q4.75,12.283,4.75,10Q4.75,6.99693,6.87347,4.87347Z" fill-rule="evenodd" fill="#FFFFFF" fill-opacity="1" style="mix-blend-mode:passthrough"/></g><g><path d="M8.374905453125,17.529087775Q8.372314453125,17.497996175,8.372314453125,17.466796875Q8.372314453125,17.392928375,8.386725453124999,17.320478875Q8.401136453125,17.248029875,8.429404453125,17.179783875Q8.457673453125,17.111538875,8.498712453125,17.050118875Q8.539751453125,16.988699875000002,8.591984453125,16.936466875Q8.644217453125,16.884233875,8.705636453125,16.843194875000002Q8.767056453125,16.802155875,8.835301453125,16.773886875Q8.903547453125,16.745618875,8.975996453125,16.731207875Q9.048445953125,16.716796875,9.122314453125,16.716796875Q9.192249553125,16.716796875,9.260978453125,16.729726875Q9.329708453125,16.742656875,9.394862453125,16.768070875Q9.460016453125,16.793484875,9.519348453125,16.830506875Q9.578679453125,16.867529875,9.630144453125,16.914882875Q9.681608453125,16.962235875,9.723430453125,17.018287875Q9.765252453125001,17.074340875,9.795989453125,17.137158875Q9.826727453125,17.199976875,9.845321453124999,17.267394875Q9.863914453125,17.334812875,9.869723453125,17.404505975L10.190214453125,21.249996875L13.810014453125,21.249996875L14.130454453125001,17.404515075Q14.136264453125001,17.334820875,14.154854453125001,17.267401875Q14.173444453125,17.199983875,14.204184453125,17.137164875Q14.234924453125,17.074345875,14.276744453125,17.018292875Q14.318564453125,16.962239875,14.370034453125001,16.914885875Q14.421494453125,16.867531875,14.480824453124999,16.830508875Q14.540164453125,16.793486875,14.605314453125,16.768071875Q14.670464453125,16.742656875,14.739194453125,16.729726875Q14.807924453125,16.716796875,14.877864453125,16.716796875Q14.951734453124999,16.716796875,15.024184453124999,16.731207875Q15.096634453124999,16.745618875,15.164874453125,16.773886875Q15.233124453125,16.802155875,15.294544453124999,16.843194875000002Q15.355964453125,16.884233875,15.408194453124999,16.936466875Q15.460424453125,16.988699875000002,15.501464453125,17.050118875Q15.542504453125,17.111538875,15.570774453125,17.179783875Q15.599044453125,17.248029875,15.613454453125,17.320478875Q15.627864453125,17.392928375,15.627864453125,17.466796875Q15.627864453125,17.497991675,15.625274453125,17.529078675L15.285724453124999,21.603846875000002Q15.245224453125001,22.089766875,14.886374453125,22.419896875Q14.527574453125,22.749996875,14.040014453125,22.749996875L9.960164453125,22.749996875Q9.472585453125,22.749996875,9.113791403125,22.419886875Q8.754907453125,22.089686874999998,8.714505453125,21.603836875L8.374905453125,17.529087775L8.374905453125,17.529087775Z" fill-rule="evenodd" fill="#FFFFFF" fill-opacity="1" style="mix-blend-mode:passthrough"/></g><g><path d="M8.25,8.5Q8.25,8.4261315,8.264410999999999,8.353682Q8.278822,8.281233,8.30709,8.212987Q8.335359,8.144742,8.376398,8.083322Q8.417437,8.021903,8.46967,7.96967Q8.521903,7.917437,8.583322,7.876398Q8.644742,7.835359,8.712987,7.80709Q8.781233,7.778822,8.853682,7.764411Q8.9261315,7.75,9,7.75Q9.0738685,7.75,9.146318,7.764411Q9.218767,7.778822,9.287013,7.80709Q9.355258,7.835359,9.416678,7.876398Q9.478097,7.917437,9.53033,7.96967Q9.582563,8.021903,9.623602,8.083322Q9.664641,8.144742,9.69291,8.212987Q9.721178,8.281233,9.735589000000001,8.353682Q9.75,8.4261315,9.75,8.5L9.75,10.28647L11.66459,9.329180000000001Q11.7427,9.290127,11.82769,9.270063Q11.91267,9.25,12,9.25Q12.08733,9.25,12.17231,9.270063Q12.2573,9.290127,12.33541,9.329180000000001L14.25,10.28647L14.25,8.5Q14.25,8.4261315,14.26441,8.353682Q14.27882,8.281233,14.307089999999999,8.212987Q14.33536,8.144742,14.3764,8.083322Q14.41744,8.021903,14.46967,7.96967Q14.521899999999999,7.917437,14.58332,7.876398Q14.644739999999999,7.835359,14.71299,7.80709Q14.78123,7.778822,14.85368,7.764411Q14.92613,7.75,15,7.75Q15.07387,7.75,15.14632,7.764411Q15.21877,7.778822,15.28701,7.80709Q15.355260000000001,7.835359,15.41668,7.876398Q15.478100000000001,7.917437,15.53033,7.96967Q15.58256,8.021903,15.6236,8.083322Q15.66464,8.144742,15.692910000000001,8.212987Q15.72118,8.281233,15.73559,8.353682Q15.75,8.4261315,15.75,8.5L15.75,11.5Q15.75,11.57387,15.73559,11.64632Q15.72118,11.71877,15.692910000000001,11.78701Q15.66464,11.85526,15.6236,11.91668Q15.58256,11.9781,15.53033,12.03033Q15.478100000000001,12.08256,15.41668,12.1236Q15.355260000000001,12.16464,15.28701,12.19291Q15.21877,12.22118,15.14632,12.23559Q15.07387,12.25,15,12.25Q14.822949999999999,12.25,14.66459,12.170819999999999L12,10.83853L9.33541,12.170819999999999Q9.26934,12.20386,9.198095,12.22337Q9.126849,12.24288,9.0531668,12.24811Q8.9794841,12.253350000000001,8.9061956,12.24411Q8.832907,12.23487,8.762829,12.21151Q8.692751,12.18815,8.628577,12.15157Q8.564403,12.11499,8.508599,12.06659Q8.452794,12.01819,8.407505,11.95984Q8.362214999999999,11.90148,8.329180000000001,11.83541Q8.25,11.67705,8.25,11.5L8.25,8.5Z" fill-rule="evenodd" fill="#FFFFFF" fill-opacity="1" style="mix-blend-mode:passthrough"/></g></g></svg>