<svg xmlns="http://www.w3.org/2000/svg" xmlns:xlink="http://www.w3.org/1999/xlink" fill="none" version="1.1" width="48" height="48" viewBox="0 0 48 48"><g><g><rect x="0" y="0" width="48" height="48" rx="8" fill="#FF5A5A" fill-opacity="1"/><rect x="0.5" y="0.5" width="47" height="47" rx="7.5" fill-opacity="0" stroke-opacity="1" stroke="#FF5A5A" fill="none" stroke-width="1"/></g><g><g></g><g><path d="M32.53033,28.53033Q32.63582,28.424841,32.69291,28.287013Q32.75,28.149184,32.75,28Q32.75,27.9261315,32.73559,27.853682Q32.721180000000004,27.781233,32.69291,27.712987Q32.66464,27.644742,32.623599999999996,27.583322Q32.58256,27.521903000000002,32.53033,27.46967Q32.4781,27.417437,32.41668,27.376398000000002Q32.35526,27.335359,32.28701,27.30709Q32.21877,27.278822,32.14632,27.264411Q32.07387,27.25,32,27.25Q31.85082,27.25,31.71299,27.30709Q31.57516,27.364181,31.46967,27.46967L27.46967,31.46967Q27.364181,31.57516,27.30709,31.71299Q27.25,31.85082,27.25,32Q27.25,32.07387,27.264411,32.14632Q27.278822,32.21877,27.30709,32.28701Q27.335359,32.35526,27.376398000000002,32.41668Q27.417437,32.4781,27.46967,32.53033Q27.521903000000002,32.58256,27.583322,32.623599999999996Q27.644742,32.66464,27.712987,32.69291Q27.781233,32.721180000000004,27.853682,32.73559Q27.9261315,32.75,28,32.75Q28.149184,32.75,28.287013,32.69291Q28.424841,32.63582,28.53033,32.53033L32.53033,28.53033L32.53033,28.53033Z" fill-rule="evenodd" fill="#FFFFFF" fill-opacity="1"/></g><g><path d="M16.973819322998047,24.96552L18.469672322998047,23.46967Q18.521902322998045,23.417437,18.583322322998047,23.376398000000002Q18.64474232299805,23.335359,18.712982322998048,23.30709Q18.781232322998047,23.278822,18.853682322998047,23.264411Q18.926132322998047,23.25,19.000002322998046,23.25Q19.073872322998046,23.25,19.146312322998046,23.264411Q19.218762322998046,23.278822,19.287012322998045,23.30709Q19.355262322998048,23.335359,19.416682322998046,23.376398000000002Q19.478092322998048,23.417437,19.530332322998046,23.46967L24.53033232299805,28.46967Q24.582562322998047,28.5219,24.623602322998046,28.58332Q24.66464232299805,28.64474,24.692912322998048,28.712989999999998Q24.721172322998047,28.78123,24.735592322998045,28.85368Q24.750002322998046,28.92613,24.750002322998046,29Q24.750002322998046,29.07387,24.735592322998045,29.14632Q24.721172322998047,29.21877,24.692912322998048,29.287010000000002Q24.66464232299805,29.35526,24.623602322998046,29.41668Q24.582562322998047,29.4781,24.53033232299805,29.53033L23.030332322998046,31.03033Q21.789872322998047,32.31187,19.994202322998046,32.32645Q18.198532322998048,32.34103,16.928754322998046,31.07125Q15.658978322998047,29.801470000000002,15.673554322998047,28.0058Q15.688104322998047,26.21328,16.973819322998047,24.96552ZM17.173504322998046,28.01798Q17.182979322998047,26.85075,18.021652322998047,26.03887L18.030332322998046,26.03033L19.000002322998046,25.06066L22.939342322998048,29L21.969672322998047,29.96967Q21.149252322998045,30.81702,19.98202232299805,30.8265Q18.814792322998045,30.83597,17.989412322998046,30.01059Q17.164030322998048,29.185200000000002,17.173504322998046,28.01798Z" fill-rule="evenodd" fill="#FFFFFF" fill-opacity="1"/></g><g><path d="M31.026229999999998,23.034432322998047L29.53033,24.53033232299805Q29.42484,24.635822322998045,29.287010000000002,24.692912322998048Q29.14918,24.750002322998046,29,24.750002322998046Q28.85081,24.750002322998046,28.712989999999998,24.692912322998048Q28.57516,24.635822322998045,28.46967,24.53033232299805L23.46967,19.530332322998046Q23.417437,19.478092322998048,23.376398000000002,19.416672322998046Q23.335359,19.355262322998048,23.30709,19.287012322998045Q23.278822,19.218762322998046,23.264411,19.146322322998046Q23.25,19.073872322998046,23.25,19.000002322998046Q23.25,18.926132322998047,23.264411,18.853682322998047Q23.278822,18.781232322998047,23.30709,18.712982322998048Q23.335359,18.64474232299805,23.376398000000002,18.583322322998047Q23.417437,18.521902322998045,23.46967,18.469672322998047L24.96967,16.96967032299805Q26.21013,15.688129322998046,28.0058,15.673554322998047Q29.801470000000002,15.658978322998047,31.07125,16.92875332299805Q32.34102,18.198532322998048,32.32645,19.994202322998046Q32.31189,21.786682322998047,31.026229999999998,23.034432322998047ZM30.8265,19.98202232299805Q30.81702,21.149252322998045,29.97835,21.961132322998047L29.96967,21.969672322998047L29,22.939342322998048L25.06066,19.000002322998046L26.03033,18.030332322998046Q26.85075,17.182979322998047,28.01798,17.173504322998046Q29.185200000000002,17.164030322998048,30.01059,17.989412322998046Q30.83597,18.814792322998045,30.8265,19.98202232299805Z" fill-rule="evenodd" fill="#FFFFFF" fill-opacity="1"/></g><g><path d="M18.03033,31.03033Q18.13582,30.924841,18.19291,30.787013Q18.25,30.649184,18.25,30.5Q18.25,30.4261315,18.235590000000002,30.353682Q18.22118,30.281233,18.19291,30.212987Q18.16464,30.144742,18.1236,30.083322Q18.08256,30.021903000000002,18.03033,29.96967Q17.9781,29.917437,17.91668,29.876398000000002Q17.85526,29.835359,17.78701,29.80709Q17.71877,29.778822,17.64632,29.764411Q17.57387,29.75,17.5,29.75Q17.35082,29.75,17.21299,29.80709Q17.07516,29.864181,16.96967,29.96967L16.96952,29.969824L14.469824,32.46952L14.46967,32.46967Q14.364181,32.57516,14.30709,32.71299Q14.25,32.85082,14.25,33Q14.25,33.07387,14.264410999999999,33.14632Q14.278822,33.21877,14.30709,33.28701Q14.335359,33.35526,14.376398,33.41668Q14.417437,33.4781,14.46967,33.53033Q14.521903,33.58256,14.583322,33.6236Q14.644742,33.66464,14.712987,33.69291Q14.781233,33.72118,14.853682,33.73559Q14.9261315,33.75,15,33.75Q15.149184,33.75,15.287013,33.69291Q15.424841,33.63582,15.53033,33.53033L15.530625,33.53004L18.03033,31.03033L18.03033,31.03033Z" fill-rule="evenodd" fill="#FFFFFF" fill-opacity="1"/></g><g><path d="M33.53033,15.53033Q33.63582,15.424841,33.69291,15.287013Q33.75,15.149184,33.75,15Q33.75,14.9261315,33.73559,14.853682Q33.72118,14.781233,33.69291,14.712987Q33.66464,14.644742,33.6236,14.583322Q33.58256,14.521903,33.53033,14.46967Q33.4781,14.417437,33.41668,14.376398Q33.35526,14.335359,33.28701,14.30709Q33.21877,14.278822,33.14632,14.264410999999999Q33.07387,14.25,33,14.25Q32.85082,14.25,32.71299,14.30709Q32.57516,14.364181,32.46967,14.46967L32.46952,14.469824L29.969824,16.96952L29.96967,16.96967Q29.864181,17.07516,29.80709,17.21299Q29.75,17.35082,29.75,17.5Q29.75,17.57387,29.764411,17.64632Q29.778822,17.71877,29.80709,17.78701Q29.835359,17.85526,29.876398000000002,17.91668Q29.917437,17.9781,29.96967,18.03033Q30.021903000000002,18.08256,30.083322,18.1236Q30.144742,18.16464,30.212987,18.19291Q30.281233,18.22118,30.353682,18.235590000000002Q30.4261315,18.25,30.5,18.25Q30.649184,18.25,30.787013,18.19291Q30.924841,18.13582,31.03033,18.03033L31.030625,18.03004L33.53033,15.53033L33.53033,15.53033Z" fill-rule="evenodd" fill="#FFFFFF" fill-opacity="1"/></g><g><path d="M22.53033,23.53033Q22.63582,23.424841,22.69291,23.287013Q22.75,23.149184,22.75,23Q22.75,22.9261315,22.735590000000002,22.853682Q22.72118,22.781233,22.69291,22.712987Q22.66464,22.644742,22.6236,22.583322Q22.58256,22.521903000000002,22.53033,22.46967Q22.4781,22.417437,22.41668,22.376398000000002Q22.35526,22.335359,22.28701,22.30709Q22.21877,22.278822,22.14632,22.264411Q22.07387,22.25,22,22.25Q21.85082,22.25,21.71299,22.30709Q21.57516,22.364181,21.46967,22.46967L21.46952,22.469824L19.469824,24.46952L19.46967,24.46967Q19.364181,24.57516,19.30709,24.71299Q19.25,24.85082,19.25,25Q19.25,25.07387,19.264411,25.14632Q19.278822,25.21877,19.30709,25.28701Q19.335359,25.35526,19.376398000000002,25.41668Q19.417437,25.4781,19.46967,25.53033Q19.521903000000002,25.58256,19.583322,25.6236Q19.644742,25.66464,19.712987,25.69291Q19.781233,25.72118,19.853682,25.735590000000002Q19.9261315,25.75,20,25.75Q20.149184,25.75,20.287013,25.69291Q20.424841,25.63582,20.53033,25.53033L22.53033,23.53033Z" fill-rule="evenodd" fill="#FFFFFF" fill-opacity="1"/></g><g><path d="M25.53033,26.53033Q25.63582,26.424841,25.69291,26.287013Q25.75,26.149184,25.75,26Q25.75,25.9261315,25.735590000000002,25.853682Q25.72118,25.781233,25.69291,25.712987Q25.66464,25.644742,25.6236,25.583322Q25.58256,25.521903000000002,25.53033,25.46967Q25.4781,25.417437,25.41668,25.376398000000002Q25.35526,25.335359,25.28701,25.30709Q25.21877,25.278822,25.14632,25.264411Q25.07387,25.25,25,25.25Q24.85082,25.25,24.71299,25.30709Q24.57516,25.364181,24.46967,25.46967L24.46952,25.469824L22.469824,27.46952L22.46967,27.46967Q22.364181,27.57516,22.30709,27.71299Q22.25,27.85082,22.25,28Q22.25,28.07387,22.264411,28.14632Q22.278822,28.21877,22.30709,28.28701Q22.335359,28.35526,22.376398000000002,28.41668Q22.417437,28.4781,22.46967,28.53033Q22.521903000000002,28.58256,22.583322,28.6236Q22.644742,28.66464,22.712987,28.69291Q22.781233,28.72118,22.853682,28.735590000000002Q22.9261315,28.75,23,28.75Q23.149184,28.75,23.287013,28.69291Q23.424841,28.63582,23.53033,28.53033L25.53033,26.53033Z" fill-rule="evenodd" fill="#FFFFFF" fill-opacity="1"/></g><g><path d="M28.530484,27.469824L32.53033,31.46967Q32.63582,31.57516,32.69291,31.71299Q32.75,31.85082,32.75,32Q32.75,32.07387,32.73559,32.14632Q32.721180000000004,32.21877,32.69291,32.28701Q32.66464,32.35526,32.623599999999996,32.41668Q32.58256,32.4781,32.53033,32.53033Q32.4781,32.58256,32.41668,32.623599999999996Q32.35526,32.66464,32.28701,32.69291Q32.21877,32.721180000000004,32.14632,32.73559Q32.07387,32.75,32,32.75Q31.85082,32.75,31.71299,32.69291Q31.57516,32.63582,31.46967,32.53033L27.469824,28.530484L27.46967,28.53033Q27.364181,28.424841,27.30709,28.287013Q27.25,28.149184,27.25,28Q27.25,27.9261315,27.264411,27.853682Q27.278822,27.781233,27.30709,27.712987Q27.335359,27.644742,27.376398000000002,27.583322Q27.417437,27.521903000000002,27.46967,27.46967Q27.521903000000002,27.417437,27.583322,27.376398000000002Q27.644742,27.335359,27.712987,27.30709Q27.781233,27.278822,27.853682,27.264411Q27.9261315,27.25,28,27.25Q28.149184,27.25,28.287013,27.30709Q28.424841,27.364181,28.53033,27.46967L28.530484,27.469824Z" fill-rule="evenodd" fill="#FFFFFF" fill-opacity="1"/></g></g></g></svg>