<svg xmlns="http://www.w3.org/2000/svg" xmlns:xlink="http://www.w3.org/1999/xlink" fill="none" version="1.1" width="24" height="24" viewBox="0 0 24 24"><g style="opacity:0.6000000238418579;"><g></g><g><path d="M20.53033,16.53033L20.53076,16.529901Q20.53376,16.526895,20.53673,16.523856L20.53715,16.523421Q20.639499999999998,16.418381,20.69475,16.282522Q20.75,16.146663,20.75,16Q20.75,15.850816,20.69291,15.712987Q20.63582,15.575159,20.53033,15.46967Q20.42484,15.364181,20.287010000000002,15.30709Q20.14918,15.25,20,15.25Q19.85082,15.25,19.71299,15.30709Q19.57516,15.364181,19.46967,15.46967L15.46967,19.46967Q15.364181,19.57516,15.30709,19.71299Q15.25,19.85082,15.25,20Q15.25,20.14918,15.30709,20.287010000000002Q15.364181,20.42484,15.46967,20.53033Q15.575159,20.63582,15.712987,20.69291Q15.850816,20.75,16,20.75Q16.149184,20.75,16.287013,20.69291Q16.424841,20.63582,16.53033,20.53033L20.53033,16.53033Z" fill-rule="evenodd" fill="#FFFFFF" fill-opacity="1"/></g><g><path d="M4.973802322998047,12.965538L6.469672322998047,11.46967Q6.521902322998047,11.417437,6.583322322998047,11.376398Q6.644742322998047,11.335359,6.712982322998046,11.30709Q6.781232322998047,11.278822,6.853682322998047,11.264410999999999Q6.926132322998047,11.25,7.000002322998046,11.25Q7.073872322998047,11.25,7.146312322998047,11.264410999999999Q7.218762322998047,11.278822,7.287012322998047,11.30709Q7.355262322998047,11.335359,7.416682322998047,11.376398Q7.478092322998046,11.417437,7.5303323229980474,11.46967L12.530332322998047,16.46967Q12.635822322998047,16.57516,12.692912322998048,16.712989999999998Q12.750002322998046,16.85082,12.750002322998046,17Q12.750002322998046,17.14918,12.692912322998048,17.287010000000002Q12.635822322998047,17.42484,12.530332322998047,17.53033L11.030332322998046,19.03033Q9.789872322998047,20.31187,7.9942023229980474,20.32645Q6.198532322998047,20.34103,4.9287533229980465,19.07125Q3.658978322998047,17.801470000000002,3.6735543229980467,16.0058Q3.688103322998047,14.21329,4.973802322998047,12.965538ZM5.173504322998047,16.01798Q5.1829793229980465,14.85075,6.021652322998047,14.03887L6.030332322998047,14.03033L7.000002322998046,13.06066L10.939342322998048,17L9.969672322998047,17.96967Q9.149252322998047,18.81702,7.982022322998047,18.8265Q6.814792322998047,18.83597,5.989412322998047,18.01059Q5.164030322998046,17.185200000000002,5.173504322998047,16.01798Z" fill-rule="evenodd" fill="#FFFFFF" fill-opacity="1"/></g><g><path d="M19.02621,11.034442322998046L17.53033,12.530332322998047Q17.42484,12.635822322998047,17.287010000000002,12.692912322998048Q17.14918,12.750002322998046,17,12.750002322998046Q16.85082,12.750002322998046,16.712989999999998,12.692912322998048Q16.57516,12.635822322998047,16.46967,12.530332322998047L11.46967,7.5303323229980474Q11.417437,7.478092322998046,11.376398,7.416682322998047Q11.335359,7.355262322998047,11.30709,7.287012322998047Q11.278822,7.218762322998047,11.264410999999999,7.1463223229980475Q11.25,7.073872322998047,11.25,7.000002322998046Q11.25,6.926132322998047,11.264410999999999,6.853682322998047Q11.278822,6.781232322998047,11.30709,6.712982322998046Q11.335359,6.644742322998047,11.376398,6.583322322998047Q11.417437,6.521902322998047,11.46967,6.469672322998047L12.96967,4.969670322998047Q14.21013,3.688129322998047,16.0058,3.6735543229980467Q17.801470000000002,3.658978322998047,19.07125,4.9287533229980465Q20.34102,6.198532322998047,20.32645,7.9942023229980474Q20.3119,9.786692322998046,19.02621,11.034442322998046ZM18.8265,7.982022322998047Q18.81702,9.149252322998047,17.97835,9.961132322998047L17.96967,9.969672322998047L17,10.939342322998048L13.06066,7.000002322998046L14.03033,6.030332322998047Q14.85075,5.1829793229980465,16.01797,5.173504322998047Q17.185200000000002,5.164030322998046,18.01059,5.989412322998047Q18.83597,6.814792322998047,18.8265,7.982022322998047Z" fill-rule="evenodd" fill="#FFFFFF" fill-opacity="1"/></g><g><path d="M6.03033,19.03033L6.03076,19.029901Q6.03376,19.026895,6.03673,19.023856L6.0371500000000005,19.023421Q6.13951,18.918381,6.19475,18.782522Q6.25,18.646663,6.25,18.5Q6.25,18.350816,6.1929099999999995,18.212987Q6.13582,18.075159,6.03033,17.96967Q5.92484,17.864181,5.78701,17.80709Q5.649179999999999,17.75,5.5,17.75Q5.350820000000001,17.75,5.21299,17.80709Q5.07516,17.864181,4.96967,17.96967L4.96952,17.969824L2.469824,20.46952L2.46967,20.46967Q2.364181,20.57516,2.30709,20.71299Q2.25,20.85082,2.25,21Q2.25,21.14918,2.30709,21.28701Q2.364181,21.42484,2.46967,21.53033Q2.575159,21.63582,2.712987,21.69291Q2.850816,21.75,3,21.75Q3.149184,21.75,3.287013,21.69291Q3.424841,21.63582,3.53033,21.53033L6.03033,19.03033Z" fill-rule="evenodd" fill="#FFFFFF" fill-opacity="1"/></g><g><path d="M21.53033,3.53033L21.53076,3.5299009999999997Q21.53376,3.526895,21.53673,3.523856L21.53715,3.523421Q21.63951,3.418381,21.69475,3.282522Q21.75,3.146663,21.75,3Q21.75,2.850816,21.69291,2.712987Q21.63582,2.575159,21.53033,2.46967Q21.42484,2.364181,21.28701,2.30709Q21.14918,2.25,21,2.25Q20.85082,2.25,20.71299,2.30709Q20.57516,2.364181,20.46967,2.46967L20.46952,2.469824L17.969824,4.96952L17.96967,4.96967Q17.864181,5.07516,17.80709,5.21299Q17.75,5.350820000000001,17.75,5.5Q17.75,5.649179999999999,17.80709,5.78701Q17.864181,5.92484,17.96967,6.03033Q18.075159,6.13582,18.212987,6.1929099999999995Q18.350816,6.25,18.5,6.25Q18.649184,6.25,18.787013,6.1929099999999995Q18.924841,6.13582,19.03033,6.03033L21.53033,3.53033Z" fill-rule="evenodd" fill="#FFFFFF" fill-opacity="1"/></g><g><path d="M10.53033,11.53033L10.53076,11.529901Q10.533760000000001,11.526895,10.53673,11.523856L10.53715,11.523421Q10.63951,11.418381,10.694749999999999,11.282522Q10.75,11.146663,10.75,11Q10.75,10.850816,10.69291,10.712987Q10.635819999999999,10.575159,10.53033,10.46967Q10.42484,10.364181,10.28701,10.30709Q10.14918,10.25,10,10.25Q9.85082,10.25,9.71299,10.30709Q9.57516,10.364181,9.46967,10.46967L9.46952,10.469824L7.469824,12.46952L7.46967,12.46967Q7.364181,12.57516,7.30709,12.71299Q7.25,12.85082,7.25,13Q7.25,13.14918,7.30709,13.28701Q7.364181,13.42484,7.46967,13.53033Q7.575159,13.635819999999999,7.712987,13.69291Q7.850816,13.75,8,13.75Q8.149184,13.75,8.287013,13.69291Q8.424841,13.635819999999999,8.53033,13.53033L10.53033,11.53033Z" fill-rule="evenodd" fill="#FFFFFF" fill-opacity="1"/></g><g><path d="M13.53033,14.53033L13.53076,14.529901Q13.533760000000001,14.526895,13.53673,14.523856L13.53715,14.523421Q13.63951,14.418381,13.694749999999999,14.282522Q13.75,14.146663,13.75,14Q13.75,13.850816,13.69291,13.712987Q13.635819999999999,13.575159,13.53033,13.46967Q13.42484,13.364181,13.28701,13.30709Q13.14918,13.25,13,13.25Q12.85082,13.25,12.71299,13.30709Q12.57516,13.364181,12.46967,13.46967L12.46952,13.469824L10.469824,15.46952L10.46967,15.46967Q10.364181,15.57516,10.30709,15.71299Q10.25,15.85082,10.25,16Q10.25,16.14918,10.30709,16.28701Q10.364181,16.42484,10.46967,16.53033Q10.575159,16.63582,10.712987,16.69291Q10.850816,16.75,11,16.75Q11.149184,16.75,11.287013,16.69291Q11.424841,16.63582,11.53033,16.53033L13.53033,14.53033Z" fill-rule="evenodd" fill="#FFFFFF" fill-opacity="1"/></g><g><path d="M16.530484,15.469824L16.53033,15.46967Q16.424841,15.364181,16.287013,15.30709Q16.149184,15.25,16,15.25Q15.850816,15.25,15.712987,15.30709Q15.575159,15.364181,15.46967,15.46967Q15.364181,15.575159,15.30709,15.712987Q15.25,15.850816,15.25,16Q15.25,16.149184,15.30709,16.287013Q15.364181,16.424841,15.46967,16.53033L15.469824,16.530484L19.46967,20.53033Q19.57516,20.63582,19.71299,20.69291Q19.85082,20.75,20,20.75Q20.14918,20.75,20.287010000000002,20.69291Q20.42484,20.63582,20.53033,20.53033Q20.63582,20.42484,20.69291,20.287010000000002Q20.75,20.14918,20.75,20Q20.75,19.85082,20.69291,19.71299Q20.63582,19.57516,20.53033,19.46967L16.530484,15.469824Z" fill-rule="evenodd" fill="#FFFFFF" fill-opacity="1"/></g></g></svg>