<svg xmlns="http://www.w3.org/2000/svg" xmlns:xlink="http://www.w3.org/1999/xlink" fill="none" version="1.1" width="20" height="20" viewBox="0 0 20 20"><defs><clipPath id="master_svg0_2541_1459"><rect x="0" y="0" width="20" height="20" rx="0"/></clipPath></defs><g style="opacity:0.6000000238418579;" clip-path="url(#master_svg0_2541_1459)"><g><path d="M1.33331298828125,14.24983390625L1.33331298828125,7.41650390625Q1.33331298828125,6.27741690625,2.13876928828125,5.47196020625Q2.94422598828125,4.66650390625,4.08331298828125,4.66650390625L15.91661298828125,4.66650390625Q17.05571298828125,4.66650390625,17.861212988281252,5.47196020625Q18.66661298828125,6.27741790625,18.66661298828125,7.41650390625L18.66661298828125,14.24983390625Q18.66661298828125,15.38892390625,17.861212988281252,16.194403906250002Q17.05571298828125,16.99980390625,15.91661298828125,16.99980390625L4.08331298828125,16.99980390625Q2.94422698828125,16.99980390625,2.13876928828125,16.194403906250002Q1.33331298828125,15.38892390625,1.33331298828125,14.24983390625ZM2.83331298828125,14.24983390625Q2.83331298828125,14.76760390625,3.19943298828125,15.13372390625Q3.56554298828125,15.49980390625,4.08331298828125,15.49980390625L15.91661298828125,15.49980390625Q16.434412988281252,15.49980390625,16.80051298828125,15.13372390625Q17.16661298828125,14.76760390625,17.16661298828125,14.24983390625L17.16661298828125,7.41650390625Q17.16661298828125,6.8987339062499995,16.80051298828125,6.5326239062500004Q16.434412988281252,6.16650390625,15.91661298828125,6.16650390625L4.08331298828125,6.16650390625Q3.56554298828125,6.16650390625,3.19943298828125,6.5326239062500004Q2.83331298828125,6.8987339062499995,2.83331298828125,7.41650390625L2.83331298828125,14.24983390625Z" fill="#FFFFFF" fill-opacity="1" style="mix-blend-mode:passthrough"/></g><g><path d="M9.66668701171875,12.91682609375L9.66668701171875,8.33349609375Q9.66668701171875,8.25962759375,9.681098011718749,8.18717809375Q9.69550901171875,8.11472909375,9.72377701171875,8.04648309375Q9.75204601171875,7.97823809375,9.79308501171875,7.91681809375Q9.83412401171875,7.85539909375,9.88635701171875,7.80316609375Q9.93859001171875,7.75093309375,10.00000901171875,7.70989409375Q10.06142901171875,7.66885509375,10.12967401171875,7.64058609375Q10.19792001171875,7.61231809375,10.27036901171875,7.59790709375Q10.34281851171875,7.58349609375,10.41668701171875,7.58349609375L17.91668701171875,7.58349609375Q17.99055701171875,7.58349609375,18.06300701171875,7.59790709375Q18.13545701171875,7.61231809375,18.203697011718752,7.64058609375Q18.27194701171875,7.66885509375,18.33336701171875,7.70989409375Q18.39478701171875,7.75093309375,18.44701701171875,7.80316609375Q18.49924701171875,7.85539909375,18.54028701171875,7.91681809375Q18.58132701171875,7.97823809375,18.609597011718748,8.04648309375Q18.63786701171875,8.11472909375,18.652277011718752,8.18717809375Q18.66668701171875,8.25962759375,18.66668701171875,8.33349609375L18.66668701171875,12.91682609375Q18.66668701171875,12.99069609375,18.652277011718752,13.06314609375Q18.63786701171875,13.13559609375,18.609597011718748,13.203836093749999Q18.58132701171875,13.27208609375,18.54028701171875,13.33350609375Q18.49924701171875,13.39492609375,18.44701701171875,13.44715609375Q18.39478701171875,13.49939609375,18.33336701171875,13.54042609375Q18.27194701171875,13.581466093749999,18.203697011718752,13.60973609375Q18.13545701171875,13.63800609375,18.06300701171875,13.65241609375Q17.99055701171875,13.66682609375,17.91668701171875,13.66682609375L10.41668701171875,13.66682609375Q10.34281851171875,13.66682609375,10.27036901171875,13.65241609375Q10.19792001171875,13.63800609375,10.12967401171875,13.60973609375Q10.06142901171875,13.581466093749999,10.00000901171875,13.54042609375Q9.93859001171875,13.49939609375,9.88635701171875,13.44715609375Q9.83412401171875,13.39492609375,9.79308501171875,13.33350609375Q9.75204601171875,13.27208609375,9.72377701171875,13.203836093749999Q9.69550901171875,13.13559609375,9.681098011718749,13.06314609375Q9.66668701171875,12.99069609375,9.66668701171875,12.91682609375ZM11.16668701171875,9.08349609375L11.16668701171875,12.16682609375L17.16668701171875,12.16682609375L17.16668701171875,9.08349609375L11.16668701171875,9.08349609375Z" fill="#FFFFFF" fill-opacity="1" style="mix-blend-mode:passthrough"/></g><g><path d="M17.16668701171875,7.5Q17.16668701171875,7.4261315,17.18109801171875,7.353682Q17.19550901171875,7.281233,17.22377701171875,7.212987Q17.25204601171875,7.144742,17.293085011718752,7.083322Q17.33412401171875,7.021903,17.38635701171875,6.96967Q17.438590011718752,6.917437,17.50000901171875,6.876398Q17.56142901171875,6.835359,17.62967401171875,6.80709Q17.69792001171875,6.778822,17.77036901171875,6.764411Q17.84281851171875,6.75,17.91668701171875,6.75Q17.99055551171875,6.75,18.06300501171875,6.764411Q18.13545401171875,6.778822,18.20370001171875,6.80709Q18.27194501171875,6.835359,18.33336501171875,6.876398Q18.394784011718748,6.917437,18.44701701171875,6.96967Q18.49925001171875,7.021903,18.540289011718748,7.083322Q18.58132801171875,7.144742,18.60959701171875,7.212987Q18.63786501171875,7.281233,18.65227601171875,7.353682Q18.66668701171875,7.4261315,18.66668701171875,7.5L18.66668701171875,13.75Q18.66668701171875,13.82387,18.65227601171875,13.89632Q18.63786501171875,13.96877,18.60959701171875,14.03701Q18.58132801171875,14.105260000000001,18.540289011718748,14.16668Q18.49925001171875,14.228100000000001,18.44701701171875,14.28033Q18.394784011718748,14.33256,18.33336501171875,14.3736Q18.27194501171875,14.41464,18.20370001171875,14.442910000000001Q18.13545401171875,14.47118,18.06300501171875,14.48559Q17.99055551171875,14.5,17.91668701171875,14.5Q17.84281851171875,14.5,17.77036901171875,14.48559Q17.69792001171875,14.47118,17.62967401171875,14.442910000000001Q17.56142901171875,14.41464,17.50000901171875,14.3736Q17.438590011718752,14.33256,17.38635701171875,14.28033Q17.33412401171875,14.228100000000001,17.293085011718752,14.16668Q17.25204601171875,14.105260000000001,17.22377701171875,14.03701Q17.19550901171875,13.96877,17.18109801171875,13.89632Q17.16668701171875,13.82387,17.16668701171875,13.75L17.16668701171875,7.5Z" fill-rule="evenodd" fill="#FFFFFF" fill-opacity="1" style="mix-blend-mode:passthrough"/></g><g><path d="M2.58331298828125,4.70754390625L2.58331298828125,5.41650390625Q2.58331298828125,5.490373906249999,2.59772398828125,5.562823906249999Q2.61213498828125,5.63527390625,2.64040298828125,5.70351390625Q2.66867198828125,5.7717639062499995,2.70971098828125,5.8331839062499995Q2.75074998828125,5.8946039062499995,2.80298298828125,5.94683390625Q2.85521598828125,5.99906390625,2.91663498828125,6.04010390625Q2.97805498828125,6.08114390625,3.04629998828125,6.1094139062499995Q3.11454598828125,6.13768390625,3.18699498828125,6.15209390625Q3.25944448828125,6.16650390625,3.33331298828125,6.16650390625Q3.40718148828125,6.16650390625,3.47963098828125,6.15209390625Q3.55207998828125,6.13768390625,3.62032598828125,6.1094139062499995Q3.68857098828125,6.08114390625,3.74999098828125,6.04010390625Q3.81140998828125,5.99906390625,3.86364298828125,5.94683390625Q3.91587598828125,5.8946039062499995,3.95691498828125,5.8331839062499995Q3.99795398828125,5.7717639062499995,4.02622298828125,5.70351390625Q4.05449098828125,5.63527390625,4.06890198828125,5.562823906249999Q4.08331298828125,5.490373906249999,4.08331298828125,5.41650390625L4.08331298828125,4.70754390625Q4.08331298828125,4.33665390625,4.30723298828125,4.03958390625Q4.58844298828125,3.66650390625,5.20831298828125,3.66650390625L11.24998298828125,3.66650390625Q11.68775298828125,3.66650390625,12.04924298828125,3.96420390625Q12.58331298828125,4.40402390625,12.58331298828125,5.41650390625Q12.58331298828125,5.490373906249999,12.59772298828125,5.562823906249999Q12.61213298828125,5.63527390625,12.64040298828125,5.70351390625Q12.66867298828125,5.7717639062499995,12.70971298828125,5.8331839062499995Q12.75075298828125,5.8946039062499995,12.80298298828125,5.94683390625Q12.85521298828125,5.99906390625,12.91663298828125,6.04010390625Q12.97805298828125,6.08114390625,13.04630298828125,6.1094139062499995Q13.11454298828125,6.13768390625,13.18699298828125,6.15209390625Q13.25944298828125,6.16650390625,13.33331298828125,6.16650390625Q13.40721298828125,6.16650390625,13.47961298828125,6.15209390625Q13.55211298828125,6.13768390625,13.62031298828125,6.1094139062499995Q13.68861298828125,6.08114390625,13.75001298828125,6.04010390625Q13.81141298828125,5.99906390625,13.86361298828125,5.94683390625Q13.91591298828125,5.8946039062499995,13.95691298828125,5.8331839062499995Q13.99791298828125,5.7717639062499995,14.02621298828125,5.70351390625Q14.05451298828125,5.63527390625,14.06891298828125,5.562823906249999Q14.08331298828125,5.490373906249999,14.08331298828125,5.41650390625Q14.08331298828125,3.69613890625,13.00280298828125,2.80630590625Q12.59000298828125,2.46635590625,12.06700298828125,2.29960190625Q11.64956298828125,2.16650390625,11.24998298828125,2.16650390625L5.20831298828125,2.16650390625Q3.84068598828125,2.16650390625,3.10939298828125,3.13670890625Q2.58331298828125,3.83465790625,2.58331298828125,4.70754390625Z" fill-rule="evenodd" fill="#FFFFFF" fill-opacity="1" style="mix-blend-mode:passthrough"/></g><g><ellipse cx="13.95831298828125" cy="10.625" rx="0.625" ry="0.625" fill="#FFFFFF" fill-opacity="1" style="mix-blend-mode:passthrough"/></g></g></svg>