<svg xmlns="http://www.w3.org/2000/svg" xmlns:xlink="http://www.w3.org/1999/xlink" fill="none" version="1.1" width="200" height="200" viewBox="0 0 200 200"><defs><clipPath id="0_848_1767"><rect x="0" y="0" width="200" height="200" rx="0"/></clipPath></defs><g clip-path="url(#0_848_1767)"><g><g><g></g><g><g><g><path d="M18.080078125,60.800078125L18.080078125,139.200078125C18.080078125,144.240078125,20.720078125,148.800078125,25.120078125,151.360078125L93.040078125,190.560078125C97.360078125,193.040078125,102.720078125,193.040078125,107.040078125,190.560078125L174.960078125,151.360078125C179.280078125,148.880078125,182.000078125,144.240078125,182.000078125,139.200078125L182.000078125,60.800078125C182.000078125,55.760078125,179.360078125,51.200078125,174.960078125,48.640078125L107.040078125,9.440078125C102.720078125,6.960078125,97.360078125,6.960078125,93.040078125,9.440078125L25.120078125,48.640078125C20.800078125,51.120078125,18.160078125,55.760078125,18.160078125,60.800078125L18.080078125,60.800078125Z" fill="#213147" fill-opacity="1"/></g><g><g><g><g><path d="M114.799453125,115.2001171875L105.119453125,141.7601171875C104.879453125,142.4801171875,104.879453125,143.2801171875,105.119453125,144.0801171875L121.759453125,189.7601171875L141.039453125,178.64011718749998L117.919453125,115.2001171875C117.359453125,113.7601171875,115.359453125,113.7601171875,114.799453125,115.2001171875Z" fill="#12AAFF" fill-opacity="1"/></g></g><g><g><path d="M134.239765625,70.55998046875C133.679765625,69.11998046875,131.679765625,69.11998046875,131.119765625,70.55998046875L121.439765625,97.11998046875C121.199765625,97.83998046875,121.199765625,98.63998046875,121.439765625,99.43998046875001L148.719765625,174.23998046875L167.999765625,163.11998046875L134.239765625,70.63998046875L134.239765625,70.55998046875Z" fill="#12AAFF" fill-opacity="1"/></g></g></g></g><g><g><path d="M99.999375,12.4C100.479375,12.4,100.959375,12.56,101.359375,12.8L174.799375,55.2C175.679375,55.68,176.159375,56.64,176.159375,57.6L176.159375,142.4C176.159375,143.36,175.599375,144.32,174.799375,144.8L101.359375,187.2C100.959375,187.44,100.479375,187.6,99.999375,187.6C99.519375,187.6,99.039375,187.44,98.639375,187.2L25.199375,144.8C24.319375,144.32,23.839375,143.36,23.839375,142.4L23.839375,57.52C23.839375,56.56,24.399375,55.6,25.199375,55.12L98.639375,12.72C99.039375,12.48,99.519375,12.32,99.999375,12.32L99.999375,12.4ZM99.999375,0C97.359375,0,94.799375,0.64,92.399375,2L18.959375,44.4C14.239374999999999,47.12,11.359375,52.08,11.359375,57.52L11.359375,142.32C11.359375,147.76,14.239374999999999,152.72,18.959375,155.44L92.399375,197.84C94.719375,199.2,97.359375,199.84,99.999375,199.84C102.639375,199.84,105.199375,199.2,107.599375,197.84L181.039375,155.44C185.759375,152.72,188.639375,147.76,188.639375,142.32L188.639375,57.52C188.639375,52.08,185.759375,47.12,181.039375,44.4L107.519375,2C105.199375,0.64,102.559375,0,99.919375,0L99.999375,0Z" fill="#9DCCED" fill-opacity="1"/></g></g><g><path d="M51.359375,174.320009765625L58.159375,155.760009765625L71.759375,167.040009765625L59.039375,178.720009765625L51.359375,174.320009765625Z" fill="#213147" fill-opacity="1"/></g><g><g><path d="M93.760078125,51.51994140625L75.12007812499999,51.51994140625C73.760078125,51.51994140625,72.480078125,52.39994140625,72.000078125,53.67994140625L32.080078125,163.11994140625L51.360078125,174.23994140625L95.360078125,53.67994140625C95.760078125,52.55994140625,94.960078125,51.43994140625,93.84007812499999,51.43994140625L93.760078125,51.51994140625Z" fill="#FFFFFF" fill-opacity="1"/></g><g><path d="M126.3990625,51.51994140625L107.7590625,51.51994140625C106.3990625,51.51994140625,105.1190625,52.39994140625,104.6390625,53.67994140625L59.0390625,178.63994140625L78.3190625,189.75994140625L127.9190625,53.67994140625C128.3190625,52.55994140625,127.5190625,51.43994140625,126.3990625,51.43994140625L126.3990625,51.51994140625Z" fill="#FFFFFF" fill-opacity="1"/></g></g></g></g></g></g></g></svg>