<svg xmlns="http://www.w3.org/2000/svg" xmlns:xlink="http://www.w3.org/1999/xlink" fill="none" version="1.1" width="200" height="200" viewBox="0 0 200 200"><defs><clip-path  id="0_848_1798"><rect x="0" y="0" width="200" height="200" rx="0"/></clip-path ></defs><g  clip-path ="url(#0_848_1798)"><g><ellipse cx="99.8741683959961" cy="99.8741683959961" rx="98.6163558959961" ry="98.6163558959961" fill="#9BA885" fill-opacity="1"/><ellipse cx="99.8741683959961" cy="99.8741683959961" rx="98.6163558959961" ry="98.6163558959961" fill-opacity="0" stroke-opacity="1" stroke="#FFFFFF" fill="none" stroke-width="1"/></g><g><path d="M53.585821875,57.35861975L36.982043875,71.19506875C35.724181875,72.20136875,36.478899875,74.46556875,38.239901875,74.46556875L144.403421875,74.46556875C145.661421875,74.46556875,146.416421875,75.72336874999999,146.16442187500002,76.98126875L140.881421875,92.32716875C140.629421875,93.08186875,139.875421875,93.58506875,139.120421875,93.58506875L97.862521875,93.58506875C97.107821875,93.58506875,96.353121875,94.08816875,96.101521875,94.84286875000001L91.824821875,105.91206875C91.321621875,107.16996875000001,92.327921875,108.42776875,93.585821875,108.42776875L133.585821875,108.42776875C134.843721875,108.42776875,135.59842187499999,109.68566874999999,135.346821875,110.94356875L129.05752187500002,130.31456875C128.805921875,131.06936875,128.051221875,131.57246874999998,127.296521875,131.57246874999998L67.673821875,131.57246874999998C66.416021875,131.57246874999998,65.661321875,130.31456875,65.91282187499999,129.30826875L77.736721875,87.04416875C77.988321875,86.28946875,77.48522187500001,85.28316875,76.982021875,85.03156875L64.40342187499999,77.73596875C63.397121874999996,77.23286875,62.139321875,77.73596875,61.636121875,78.74226875L42.013481875,145.66046875C41.510341875,146.91836875,42.516631875,147.92466875,43.774491875,147.92466875L123.522921875,147.92466875C123.774521875,147.92466875,124.026021875,147.92466875,124.277621875,147.67306875L144.15142187499998,138.11336875C144.655421875,137.86176875,144.906421875,137.61016875,145.158421875,137.10706875L152.956421875,114.21396874999999C153.208421875,113.71086875,152.956421875,112.70456874999999,152.453421875,112.45296875L143.145421875,103.14476875C142.39042187500002,102.39006875,142.642421875,100.62906875,143.648421875,100.12586875L157.988421875,93.33346875000001C158.49142187500001,93.08186875,158.743421875,92.83026875,158.743421875,92.32716875L167.296421875,69.43406875C167.548421875,68.67936875,167.296421875,67.67306875,166.793421875,67.42146875L154.969421875,57.35861575C154.46642187499998,57.10704175,154.46642187499998,56.85546875,153.71142187499998,56.85546875L54.843721875,56.85546875C54.592121875000004,56.85547834672,54.088921875,57.10705175,53.585821875,57.35861975Z" fill="#FFFFFF" fill-opacity="1"/><path d="M153.71142187499998,56.35546875L54.843721875,56.35546875Q54.474121875,56.35548275,53.362321875,56.91137595L53.362221875,56.91140475L53.310321875,56.93735755L36.661951875,70.81096875Q36.077458875,71.27846875,35.912188875,72.02216875Q35.761823875,72.69876875,36.009002875,73.37856875Q36.258586275,74.06486875,36.820216875,74.49346875Q37.438721875,74.96556875,38.239901875,74.96556875L144.403421875,74.96556875Q145.058421875,74.96556875,145.434421875,75.52906875Q145.819421875,76.10656875000001,145.68042187499998,76.85176875L140.408421875,92.16436875Q140.273421875,92.57016875,139.90242187500002,92.82946874999999Q139.537421875,93.08506875,139.120421875,93.08506875L97.862521875,93.08506875Q97.12992187500001,93.08506875,96.50662187500001,93.52136875Q95.870721875,93.96646874999999,95.631221875,94.67296875L91.358421875,105.73186874999999Q90.88762187500001,106.90886875000001,91.641721875,107.93736874999999Q92.368121875,108.92776875,93.585821875,108.92776875L133.585821875,108.92776875Q134.240621875,108.92776875,134.61632187499998,109.49136874999999Q135.00242187499998,110.07046875,134.861821875,110.81816875L128.581921875,130.16016875Q128.44952187500002,130.55756875,128.078921875,130.81696875Q127.713921875,131.07246874999998,127.296521875,131.07246874999998L67.673821875,131.07246874999998Q67.023721875,131.07246874999998,66.63422187500001,130.52716875Q66.258021875,130.00046874999998,66.396321875,129.43586875L78.215221875,87.18986875Q78.446621875,86.47936874999999,78.103921875,85.65686875Q77.780321875,84.88006874999999,77.220921875,84.59216875L64.640921875,77.29566875L64.627021875,77.28876875Q63.686321875000004,76.81836875,62.655521875000005,77.20496875Q61.658921875000004,77.57866874999999,61.188921875,78.51866875L61.168921874999995,78.55866875L41.540101875,145.49796874999998Q41.080221875,146.67526875,41.851921875,147.58726875000002Q42.560501875,148.42466875,43.774491875,148.42466875L123.522921875,148.42466875Q124.172621875,148.42466875,124.561121875,148.09156875L144.368421875,138.56396875000002Q145.195421875,138.15066875,145.605421875,137.33066875L145.620421875,137.30036875000002L153.420421875,114.40386875Q153.67542187499998,113.85856875,153.470421875,113.10756875Q153.26442187499998,112.34946875,152.757421875,112.04926875000001L143.499421875,102.79126875Q143.107421875,102.39946875,143.230421875,101.61896875Q143.355421875,100.83186875,143.872421875,100.57316875000001L158.202421875,93.78536875Q159.18842187500002,93.29266874999999,159.24042187499998,92.42536874999999L167.768421875,69.60066875L167.770421875,69.59216875Q168.005421875,68.88796875,167.813421875,68.11786875Q167.611421875,67.31046875,167.077421875,67.00636875000001L155.247421875,56.93852955L155.193421875,56.91140095Q155.072421875,56.85104887,154.900421875,56.72542375Q154.392421875,56.35546875,153.71142187499998,56.35546875ZM53.861121874999995,57.78002075Q54.714021875,57.35547375,54.843721875,57.35546875L153.71142187499998,57.35546875Q154.066421875,57.35546875,154.311421875,57.53360575Q154.516421875,57.68292775,154.68842187500002,57.77590475L166.515421875,67.84156875L166.569421875,67.86876875Q166.741421875,67.95456874999999,166.842421875,68.36036874999999Q166.963421875,68.84356875,166.824421875,69.26806875L158.243421875,92.23676875000001L158.243421875,92.32716875Q158.243421875,92.64706875,157.774421875,92.88156875L143.42542187499998,99.67866875Q142.447421875,100.16756875,142.242421875,101.46306874999999Q142.040421875,102.74656875,142.792421875,103.49836875L152.157421875,112.86386875L152.230421875,112.90016875Q152.400421875,112.98556875,152.506421875,113.37066875Q152.61642187500001,113.77646874999999,152.509421875,113.99036875L152.494421875,114.02066875L144.696421875,136.91196875Q144.435421875,137.41236874999998,143.935421875,137.66276875L123.984221875,147.25936875L123.924121875,147.31956875Q123.818921875,147.42466875,123.522921875,147.42466875L43.774491875,147.42466875Q43.024291875,147.42466875,42.615301875,146.94126875Q42.224451875,146.47936875,42.477721875,145.84616875L42.486571875,145.82406874999998L62.102621875,78.92846875000001Q62.397921875,78.36956875,63.006621875,78.14126875Q63.621821874999995,77.91056875,64.166921875,78.17676875000001L76.744621875,85.47186875L76.75842187500001,85.47876875Q76.995921875,85.59756875,77.180921875,86.04146875Q77.382621875,86.52556875,77.262421875,86.88606874999999L77.258521875,86.89766875000001L65.429521875,129.18026874999998L65.427821875,129.18706874999998Q65.173821875,130.20306875,65.820421875,131.10836875Q66.509121875,132.07246874999998,67.673821875,132.07246874999998L127.296521875,132.07246874999998Q128.029121875,132.07246874999998,128.65242187500002,131.63616875Q129.29372187500002,131.18726875,129.533121875,130.46896875L135.831421875,111.07016875L135.83712187499998,111.04156875000001Q136.071221875,109.87086875,135.448421875,108.93666875Q134.77582187500002,107.92776875,133.585821875,107.92776875L93.585821875,107.92776875Q92.87482187500001,107.92776875,92.448121875,107.34596875Q92.02212187500001,106.76506875,92.29122187499999,106.09226875L96.572221875,95.01216875L96.575921875,95.00096875Q96.70962187500001,94.59996875,97.080121875,94.34056875Q97.445121875,94.08506875,97.862521875,94.08506875L139.120421875,94.08506875Q139.85342187499998,94.08506875,140.476421875,93.64876875Q141.117421875,93.19986875000001,141.354421875,92.48996875L146.648421875,77.11226875L146.654421875,77.07936875Q146.888421875,75.90866875,146.266421875,74.97436875Q145.593421875,73.96556875,144.403421875,73.96556875L38.239901875,73.96556875Q37.286516875,73.96556875,36.948795875,73.03676875Q36.617866875,72.12676875,37.302135875,71.57916875L53.861121874999995,57.78002075Z" fill-rule="evenodd" fill="#FFFFFF" fill-opacity="1"/></g></g></svg>