<svg xmlns="http://www.w3.org/2000/svg" xmlns:xlink="http://www.w3.org/1999/xlink" fill="none" version="1.1" width="200" height="200" viewBox="0 0 200 200"><defs><mask id="0_848_7501" style="mask-type:alpha" maskUnits="userSpaceOnUse"><g><ellipse cx="100" cy="100" rx="100" ry="100" fill="#FFFFFF" fill-opacity="1"/></g></mask></defs><g mask="url(#0_848_7501)"><g><g><path d="M100.22409999999999,31L100.22409999999999,81.8065C100.22409999999999,82.0318,99.9995,82.25710000000001,99.775,82.25710000000001C98.2406,82.8955,96.8934,83.5714,95.35900000000001,84.2097C93.37559999999999,85.07339999999999,91.1676,85.9371,89.1842,87.0261L81.924,90.293L75.97370000000001,92.9216L68.7135,96.1885C66.7301,97.0522,64.74665,97.9158,62.538669999999996,99.0048C61.004310000000004,99.6432,59.24541,100.5444,57.673623,101.1828C57.44908,101.1828,57.44908,101.4081,57.224543,101.1828L57,101.1828C57.673623,100.0938,58.30982,99.2301,58.98344,98.1412C62.50125,92.2456,66.24359,86.3501,69.7988,80.4922C73.5412,74.1836,77.5081,67.8375,81.2504,61.5289C84.76820000000001,55.6334,88.32339999999999,49.737899999999996,91.8412,44.1053C94.4983,39.74937,97.118,35.61876,99.5505,31.225298C99.9996,31.225307,99.9996,31,100.22409999999999,31Q99.9996,31,100.22409999999999,31Z" fill="#8A92B2" fill-opacity="1"/></g><g><path d="M143.000031060791,101.22044509277345C139.70673106079101,103.39834509277344,136.151531060791,105.35104509277343,132.858231060791,107.34124509277343C122.04283106079102,113.64974509277343,111.45203106079101,119.77054509277343,100.67406006079102,126.07914509277344C100.44951706079101,126.07914509277344,100.44951706079101,126.30444509277343,100.22497406079101,126.30444509277343Q100.00043106079102,126.30444509277343,100.00043106079102,126.07914509277344L100.00043106079102,125.40324509277343L100.00043106079102,82.89551909277344L100.00043106079102,82.25715309277344C100.00043106079102,82.03184509277344,100.22497406079101,82.03184509277344,100.44951706079101,82.03184509277344C101.34768106079102,82.48245609277343,102.20842106079101,82.89551909277344,103.33113106079102,83.34612509277343C105.98819106079101,84.66041509277343,108.83238106079102,85.74939509277344,111.48943106079102,87.06367509277344C113.92193106079101,88.15265509277344,116.12993106079102,89.24163509277344,118.56243106079101,90.10530509277343C120.995031060791,91.19428509277344,123.20293106079102,92.28324509277344,125.63553106079101,93.37224509277344C127.61893106079101,94.23594509277343,129.82693106079103,95.09954509277344,131.81033106079101,96.18854509277344C133.793831060791,97.05224509277343,136.001831060791,97.91594509277344,137.98523106079102,99.00484509277344C139.51963106079103,99.64324509277344,141.09143106079102,100.54444509277343,142.850331060791,101.18284509277343C142.77543106079102,100.99504509277344,142.77543106079102,101.22044509277345,143.000031060791,101.22044509277345Z" fill="#464A75" fill-opacity="1"/></g><g><path d="M100.22545642337799,168.99995130615235Q100.000856423378,168.99995130615235,100.22545642337799,168.99995130615235C100.000856423378,168.99995130615235,100.000856423378,168.99995130615235,99.77635642337799,168.77465130615235C95.360356423378,162.65385130615235,91.16895642337799,156.79585130615234,86.752956423378,150.67505130615234L73.54245642337798,132.38775130615235C69.351056423378,126.49225130615234,64.93509642337798,120.59675130615234,60.74366642337799,114.51348130615234L57.45039942337799,109.93226230615234C57.45039942337799,109.70695330615234,57.22585642337799,109.70695330615234,57.22585642337799,109.48165130615234C57.45039942337799,109.48165130615234,57.45039942337799,109.70695930615234,57.67493642337799,109.70695930615234C63.625266423377994,113.19920130615235,69.80015642337798,116.69144130615234,75.75045642337798,120.18365130615234C82.59895642337798,124.31425130615234,89.634556423378,128.25715130615234,96.48305642337799,132.38775130615235C97.56835642337799,133.02615130615234,98.91555642337799,133.70205130615236,100.000856423378,134.34045130615235C100.22545642337799,134.34045130615235,100.22545642337799,134.56575130615235,100.22545642337799,134.79105130615235L100.22545642337799,168.99995130615235Z" fill="#8A92B2" fill-opacity="1"/></g><g><path d="M57.22585642337799,101.22025299072266Q57.45039942337799,101.22025299072266,57.22585642337799,101.22025299072266C57.45039942337799,101.22025299072266,57.45039942337799,101.22025299072266,57.22585642337799,101.22025299072266C57.22585642337799,101.40800799072265,57.22585642337799,101.40800799072265,57.22585642337799,101.22025299072266Z" fill="#808081" fill-opacity="1"/></g><g><path d="M57.44952008128166,101.40819484863282C57.44952008128166,101.22049484863281,57.44952008128166,101.22049484863281,57.44952008128166,101.40819484863282C59.65750008128166,100.3191948486328,61.86549008128166,99.45559484863281,64.07347008128166,98.36659484863281L72.68082008128167,94.4236948486328C74.88882008128166,93.33479484863281,77.09682008128166,92.47109484863282,79.30482008128166,91.3821048486328C82.37352008128167,89.84250484863281,85.70422008128166,88.56577484863281,88.77292008128165,87.02618484863281C90.98092008128165,86.16251484863281,93.18892008128167,85.07353484863282,95.39692008128166,84.20986484863282C96.93132008128165,83.57149484863281,98.46562008128166,82.89557484863282,100.03742008128165,82.03190284863281C100.26192008128166,82.03190284863281,100.26192008128166,81.80659484863281,100.48652008128167,81.80659484863281L100.48652008128167,126.2669948486328C100.26192008128166,126.49229484863281,100.26192008128166,126.2669948486328,100.03742008128165,126.2669948486328C99.36382008128166,125.81639484863281,98.72762008128166,125.62859484863282,98.27852008128167,125.1779948486328L57.93601508128166,101.63349484863281Q57.67406308128166,101.40819484863282,57.44952008128166,101.40819484863282ZM142.77502008128167,109.48169484863281C142.77502008128167,109.70699484863282,142.77502008128167,109.70699484863282,142.55052008128166,109.93229484863281C129.75162008128166,127.80659484863281,116.95282008128166,145.4554948486328,104.19142008128166,163.32979484863282C102.88162008128165,165.2824948486328,101.53432008128166,167.04729484863282,100.22452008128167,168.9999948486328L100.22452008128167,168.7746948486328L100.22452008128167,168.3240948486328L100.22452008128167,134.97879484863282L100.22452008128167,134.3403948486328C103.10612008128166,132.6130948486328,105.95032008128166,130.84819484863283,108.83192008128165,129.30859484863282C120.09642008128166,122.7746948486328,131.32342008128165,116.24089484863282,142.58792008128165,109.6693948486328Q142.55052008128166,109.48169484863281,142.77502008128167,109.48169484863281Z" fill="#636890" fill-opacity="1"/></g><g><path d="M100.22409439086914,82.03184660100936L100.22409439086914,81.58124660100937L100.22409439086914,31.63845860100937L100.22409439086914,31.18784660100937L142.54999439086913,100.50694660100937C142.77459439086914,100.73224660100936,142.99909439086915,100.95754660100937,142.99909439086915,101.14534660100936C142.10099439086915,100.69474660100937,141.24019439086914,100.28164660100937,140.11749439086913,99.83104660100936C139.03219439086914,99.38044660100937,137.90949439086916,98.74204660100936,136.82429439086914,98.29144660100937C136.15059439086914,98.06614660100936,135.51439439086914,97.65304660100936,134.61629439086914,97.42774660100937C133.53099439086913,96.97714660100937,132.18369439086914,96.33884660100937,131.09849439086915,95.88814660100937C130.42479439086915,95.66284660100936,129.78859439086915,95.24984660100937,129.11499439086913,95.02454660100938L124.47449439086914,93.07184660100937C123.57639439086914,92.62124660100937,122.94019439086914,92.43354660100937,122.04199439086915,91.98284660100937C120.95669439086915,91.53224660100938,119.83399439086914,90.89394660100936,118.74869439086913,90.44334660100937C118.07509439086914,90.21794660100937,117.43889439086914,89.80494660100936,116.76529439086914,89.57964660100937L112.12479439086914,87.62694660100937C111.22659439086914,87.17634660100937,110.59039439086914,86.98864660100938,109.69226439086914,86.53804660100937C108.60698439086914,86.08734660100937,107.48427439086915,85.44904660100937,106.39900439086914,84.99844660100936C105.72538439086914,84.54774660100938,104.86463439086914,84.36004660100937,104.19101439086914,83.90944660100936L100.22409439086914,82.03184660100936Z" fill="#636890" fill-opacity="1"/></g></g></g></svg>