<svg xmlns="http://www.w3.org/2000/svg" xmlns:xlink="http://www.w3.org/1999/xlink" fill="none" version="1.1" width="200" height="200" viewBox="0 0 200 200"><defs><mask id="0_848_7493" style="mask-type:alpha" maskUnits="userSpaceOnUse"><g><ellipse cx="100" cy="100" rx="100" ry="100" fill="#FFFFFF" fill-opacity="1"/></g></mask></defs><g mask="url(#0_848_7493)"><g><path d="M139.606,73.5668C136.791,71.9525,133.172,71.9525,129.95600000000002,73.5668L107.4386,86.8843L92.1593,95.3591L70.0444,108.6766C67.2298,110.2908,63.611,110.2908,60.3943,108.6766L43.1044,98.184C40.2898,96.5697,38.2794,93.3412,38.2794,89.70920000000001L38.2794,69.5312C38.2794,66.3027,39.887699999999995,63.074200000000005,43.1044,61.0564L60.3943,50.9674C63.2089,49.3531,66.8277,49.3531,70.0444,50.9674L87.3342,61.459900000000005C90.1488,63.074200000000005,92.1593,66.3027,92.1593,69.93469999999999L92.1593,83.2522L107.4386,74.37389999999999L107.4386,60.6528C107.4386,57.4243,105.8303,54.1958,102.6136,52.178L70.4465,33.210679999999996C67.6319,31.596439,64.01310000000001,31.596439,60.7963,33.210679999999996L27.82507,52.5816C24.60836,54.1958,23,57.4243,23,60.6528L23,98.5875C23,101.816,24.60836,105.0445,27.82507,107.0623L60.3943,126.0297C63.2089,127.6439,66.8277,127.6439,70.0444,126.0297L92.1593,113.1157L107.4386,104.2374L129.554,91.32339999999999C132.368,89.70920000000001,135.987,89.70920000000001,139.204,91.32339999999999L156.493,101.4125C159.308,103.0267,161.319,106.2552,161.319,109.8872L161.319,130.06529999999998C161.319,133.29399999999998,159.71,136.522,156.493,138.54000000000002L139.606,148.62900000000002C136.791,150.243,133.172,150.243,129.95600000000002,148.62900000000002L112.6658,138.54000000000002C109.8512,136.926,107.8407,133.697,107.8407,130.06529999999998L107.8407,117.1513L92.5614,126.0297L92.5614,139.34699999999998C92.5614,142.576,94.1697,145.804,97.3864,147.822L129.95600000000002,166.789C132.76999999999998,168.404,136.389,168.404,139.606,166.789L172.175,147.822C174.99,146.208,177,142.97899999999998,177,139.34699999999998L177,101.0089C177,97.7804,175.392,94.5519,172.175,92.5341L139.606,73.5668Z" fill="#8247E5" fill-opacity="1"/></g></g></svg>