<svg xmlns="http://www.w3.org/2000/svg" xmlns:xlink="http://www.w3.org/1999/xlink" fill="none" version="1.1" width="200" height="200" viewBox="0 0 200 200"><defs><linearGradient x1="0.06114794313907623" y1="1.0124802589416504" x2="0.9362112283706665" y2="-0.013054491020739079" id="0_848_7484"><stop offset="0%" stop-color="#CF41E8" stop-opacity="1"/><stop offset="100%" stop-color="#10F2B0" stop-opacity="1"/></linearGradient></defs><g><g><path d="M99.9182,0L100.082,0C155.256,0,200,43.5683,200,97.2919L200,102.708C200,156.432,155.256,200,100.082,200L99.9182,200C44.7444,200,0,156.432,0,102.708L0,97.2919C0,43.5683,44.7444,0,99.9182,0Z" fill="#232323" fill-opacity="1"/></g><g><path d="M140.39450228881836,75.44000076293945C140.07450228881837,75.80000076293945,139.67450228881836,76.08000076293945,139.23450228881836,76.24000076293945C138.79450228881836,76.44000076293945,138.31450228881835,76.52000076293945,137.83450228881836,76.52000076293945L47.23450228881836,76.52000076293945C44.03449928881836,76.52000076293945,42.39449228881836,72.52000076293945,44.63450228881836,70.12000076293945L59.51450228881836,54.32000076293945C59.834502288818356,53.960004762939455,60.23450228881836,53.67999976293945,60.71450228881836,53.47999976293945C61.154502288818364,53.27999956293945,61.63450228881836,53.20000076293945,62.11450228881836,53.20000076293945L153.07500228881835,53.20000076293945C156.31400228881836,53.20000076293945,157.91400228881835,57.24000076293945,155.63500228881836,59.64000076293945L140.39450228881836,75.44000076293945ZM140.39450228881836,146.08000076293945C139.71450228881838,146.76000076293946,138.79450228881836,147.16000076293943,137.83450228881836,147.16000076293943L47.23450228881836,147.16000076293943C44.03449928881836,147.16000076293943,42.39449228881836,143.24000076293947,44.63450228881836,140.92000076293945L59.51450228881836,125.48000076293945C59.834502288818356,125.12000076293945,60.274502288818354,124.84000076293945,60.71450228881836,124.68000076293946C61.154502288818364,124.48000076293945,61.63450228881836,124.40000076293946,62.11450228881836,124.40000076293946L153.07500228881835,124.40000076293946C156.31400228881836,124.40000076293946,157.91400228881835,128.36000076293945,155.63500228881836,130.68000076293947L140.39450228881836,146.08000076293945ZM140.39450228881836,89.88000076293946C139.71450228881838,89.20000076293945,138.79450228881836,88.80000076293945,137.83450228881836,88.80000076293945L47.23450228881836,88.80000076293945C44.03449928881836,88.80000076293945,42.39449228881836,92.72000076293946,44.63450228881836,95.04000076293946L59.51450228881836,110.48000076293945C59.834502288818356,110.84000076293945,60.274502288818354,111.12000076293945,60.71450228881836,111.28000076293945C61.154502288818364,111.48000076293945,61.63450228881836,111.56000076293945,62.11450228881836,111.56000076293945L153.07500228881835,111.56000076293945C156.31400228881836,111.56000076293945,157.91400228881835,107.60000076293946,155.63500228881836,105.28000076293945L140.39450228881836,89.88000076293946Z" fill="url(#0_848_7484)" fill-opacity="1"/></g></g></svg>