<svg xmlns="http://www.w3.org/2000/svg" xmlns:xlink="http://www.w3.org/1999/xlink" fill="none" version="1.1" width="22" height="22" viewBox="0 0 22 22"><g style="opacity:0.800000011920929;"><path d="M11,0C4.92486,0,0,4.92486,0,11C0,17.0751,4.92486,22,11,22C17.0751,22,22,17.0751,22,11C22,4.92486,17.0751,0,11,0ZM16.7174,6.95819L14.7637,16.2852C14.6609,16.7756,14.0849,16.9951,13.6819,16.6974L10.8401,14.5979L9.1184,16.2221C9.02351,16.3116,8.87364,16.3059,8.78582,16.2094L8.74882,16.1688L9.04797,13.2738L14.4399,8.34737C14.4951,8.29695,14.5027,8.21264,14.4573,8.15319C14.4119,8.09373,14.3286,8.07885,14.2654,8.1189L7.36979,12.4832L4.4,11.4858C4.23819,11.4315,4.12808,11.2812,4.12499,11.1106C4.1219,10.9399,4.22651,10.7857,4.38625,10.7256L16.0059,6.34838C16.1884,6.27968,16.3939,6.31587,16.542,6.4428C16.6901,6.56974,16.7573,6.76726,16.7174,6.95819Z" fill="#FCFCFC" fill-opacity="1"/></g></svg>