<svg xmlns="http://www.w3.org/2000/svg" xmlns:xlink="http://www.w3.org/1999/xlink" fill="none" version="1.1" width="40" height="40" viewBox="0 0 30 30"><defs><clipPath id="master_svg0_2805_10063"><rect x="0" y="0" width="30" height="30" rx="0"/></clipPath><filter id="master_svg1_2805_10066" filterUnits="objectBoundingBox" color-interpolation-filters="sRGB" x="-0.7692307692307693" y="-1.7066666666666668" width="2.5384615384615383" height="5.266666666666667"><feFlood flood-opacity="0" result="BackgroundImageFix"/><feColorMatrix in="SourceAlpha" type="matrix" values="0 0 0 0 0 0 0 0 0 0 0 0 0 0 0 0 0 0 127 0"/><feOffset dy="4" dx="0"/><feGaussianBlur stdDeviation="5"/><feColorMatrix type="matrix" values="0 0 0 0 0 0 0 0 0 0 0 0 0 0 0 0 0 0 0.30000001192092896 0"/><feBlend mode="normal" in2="BackgroundImageFix" result="effect1_dropShadow"/><feBlend mode="normal" in="SourceGraphic" in2="effect1_dropShadow" result="shape"/></filter></defs><g style="opacity:0.6000000238418579;" clip-path="url(#master_svg0_2805_10063)"><g><path d="M1.5,4.625L1.5,25.625L29.5,25.625L29.5,4.625L1.5,4.625ZM3.5,23.625L3.5,6.625L27.5,6.625L27.5,23.625L3.5,23.625Z" fill-rule="evenodd" fill="#FFFFFF" fill-opacity="1" style="mix-blend-mode:passthrough"/></g><g filter="url(#master_svg1_2805_10066)"><path d="M3.084921,4.81391L15.5,13.76709L27.9148,4.814091L27.9151,4.81391Q28.0428,4.7217970000000005,28.1927,4.673399Q28.3425,4.625,28.5,4.625Q28.5985,4.625,28.6951,4.644215Q28.7917,4.66343,28.8827,4.701121Q28.9737,4.738812,29.0556,4.79353Q29.1375,4.848249,29.2071,4.917893Q29.2767,4.987537,29.3315,5.06943Q29.3862,5.151322,29.4239,5.242317Q29.4616,5.333311,29.4808,5.42991Q29.5,5.5265086,29.5,5.625Q29.5,5.743806,29.4722,5.859305Q29.4443,5.974804,29.3902,6.080565Q29.3361,6.186327,29.2587,6.276462Q29.1813,6.366598,29.0849,6.43609L29.0847,6.436271L15.5,16.2329L1.915079,6.43609Q1.818717,6.366598,1.7413189999999998,6.276462Q1.663921,6.186327,1.609797,6.080565Q1.555674,5.974804,1.527837,5.859305Q1.5,5.743806,1.5,5.625Q1.5,5.5265086,1.519215,5.42991Q1.53843,5.333311,1.576121,5.242317Q1.613812,5.151322,1.66853,5.06943Q1.723249,4.987537,1.7928929999999998,4.917893Q1.862537,4.848249,1.94443,4.79353Q2.026322,4.738812,2.117317,4.701121Q2.208311,4.66343,2.30491,4.644215Q2.4015086,4.625,2.5,4.625Q2.6574780000000002,4.625,2.807335,4.673399Q2.957192,4.7217970000000005,3.084921,4.81391Z" fill-rule="evenodd" fill="#FFFFFF" fill-opacity="1" style="mix-blend-mode:passthrough"/></g></g></svg>