<svg xmlns="http://www.w3.org/2000/svg" xmlns:xlink="http://www.w3.org/1999/xlink" fill="none" version="1.1" width="200" height="200" viewBox="0 0 200 200"><defs><clipPath id="master_svg0_848_7388"><rect x="0" y="0" width="200" height="200" rx="0"/></clipPath></defs><g clip-path="url(#master_svg0_848_7388)"><g><g><g></g><g><g><path d="M26.080078125,15.36L26.080078125,138.8C26.080078125,141.12,26.640078125,143.36,27.680078125,145.44C28.720078125,147.52,30.240078125,149.28,32.080078125,150.8L92.480078125,197.52C94.640078125,199.2,97.280078125,200.08,100.000078125,200.08C102.720078125,200.08,105.360078125,199.2,107.520078125,197.52L167.920078125,150.8C169.760078125,149.36,171.280078125,147.52,172.320078125,145.44C173.360078125,143.36,173.920078125,141.04,173.920078125,138.8L173.920078125,15.36C173.920078125,11.28,172.240078125,7.36,169.280078125,4.48C166.240078125,1.6,162.240078125,0,158.000078125,0L42.160078125,0C37.920078125,0,33.840078125,1.6,30.880078125,4.48C27.920078125,7.36,26.160078125,11.28,26.160078125,15.36L26.080078125,15.36Z" fill-rule="evenodd" fill="#1273EA" fill-opacity="1"/></g><g><path d="M149.92015625,69.19996093750001L149.92015625,38.3999609375C149.92015625,34.3199609375,148.24015624999998,30.3999609375,145.28015625,27.5199609375C142.24015624999998,24.6399609375,138.24015624999998,22.9599609375,134.00015625,22.9599609375L66.08015625,22.9599609375C61.84015625,22.9599609375,57.76015625,24.5599609375,54.80015625,27.5199609375C51.84015625,30.3999609375,50.16015625,34.3199609375,50.16015625,38.3999609375L50.16015625,127.6799609375C50.16015625,129.99996093750002,50.72015625,132.3199609375,51.76015625,134.3199609375C52.80015625,136.3999609375,54.32015625,138.2399609375,56.16015625,139.6799609375L80.88015625,158.7999609375C81.20015624999999,159.0399609375,81.52015625,159.1199609375,81.92015625,159.1999609375C82.32015625,159.1999609375,82.64015624999999,159.1999609375,83.04015625,159.0399609375C83.36015625,158.8799609375,83.68015625000001,158.6399609375,83.84015625,158.3199609375C84.08015625,157.9999609375,84.16015625,157.6799609375,84.16015625,157.2799609375L84.16015625,94.1599609375C84.16015625,93.5999609375,84.40015625000001,93.1199609375,84.80015625,92.7999609375C85.20015624999999,92.3999609375,85.68015625000001,92.2399609375,86.24015625,92.2399609375L104.24015625,92.2399609375C107.36015625,92.2399609375,110.48015625,93.4399609375,112.72015625,95.5999609375C114.96015625,97.7599609375,116.24015625,100.7199609375,116.24015625,103.7599609375L116.24015625,157.2799609375C116.24015625,157.5999609375,116.32015625,157.9999609375,116.56015625,158.3199609375C116.80015625,158.6399609375,117.04015625,158.8799609375,117.36015625,159.0399609375C118.08015625,159.3599609375,118.88015625,159.2799609375,119.44015625,158.7999609375L144.16015625,139.6799609375C146.08015625000002,138.2399609375,147.52015625,136.3999609375,148.56015625,134.3199609375C149.60015625,132.2399609375,150.16015625,129.99996093750002,150.16015625,127.6799609375L150.16015625,99.9199609375C150.16015625,95.8399609375,148.48015625,91.9199609375,145.52015625,89.0399609375C142.48015625,86.1599609375,138.48015625,84.5599609375,134.16015625,84.5599609375C138.40015625,84.5599609375,142.48015625,82.9599609375,145.44015625,79.99996093749999C148.40015625,77.1199609375,150.08015625000002,73.19996093750001,150.08015625000002,69.1199609375L149.92015625,69.19996093750001ZM104.00015625,76.8799609375L86.00015625,76.8799609375C85.52015625,76.8799609375,84.96015625,76.6399609375,84.56015625,76.3199609375C84.16015625,75.99996093749999,84.00015625,75.43996093749999,84.00015625,74.9599609375L84.00015625,40.3199609375C84.00015625,39.839960937499995,84.24015625,39.3599609375,84.56015625,38.9599609375C84.96015625,38.6399609375,85.44015625,38.3999609375,86.00015625,38.3999609375L113.92015624999999,38.3999609375C114.48015625,38.3999609375,114.96015625,38.6399609375,115.36015625,38.9599609375C115.76015625,39.3599609375,115.92015625,39.839960937499995,115.92015625,40.3199609375L115.92015625,65.3599609375C115.92015625,68.3999609375,114.64015625,71.3599609375,112.40015625000001,73.5199609375C110.16015625,75.6799609375,107.12015625000001,76.8799609375,103.92015624999999,76.8799609375L104.00015625,76.8799609375Z" fill="#FFFFFF" fill-opacity="1"/></g></g></g></g></g></svg>